<svg xmlns="http://www.w3.org/2000/svg" xmlns:xlink="http://www.w3.org/1999/xlink" viewBox="0 0 512 512"><circle cx="256" cy="256.5" r="256" fill="#b3b3b3"/><defs><circle id="a" cx="256" cy="256.5" r="256"/></defs><clipPath id="b"><use xlink:href="#a" overflow="visible"/></clipPath><path d="M416.6 77H95.4l28.3 321.2L256 436l132.3-37.8L416.6 77z" clip-path="url(#b)" fill="#0277bd"/><defs><circle id="c" cx="256" cy="256.5" r="256"/></defs><clipPath id="d"><use xlink:href="#c" overflow="visible"/></clipPath><path d="M256 105.3v301.4l105.8-30.2 23.6-271.1-129.4-.1z" clip-path="url(#d)" fill="#039be5"/><g><defs><circle id="e" cx="256" cy="256.5" r="256"/></defs><clipPath id="f"><use xlink:href="#e" overflow="visible"/></clipPath><g opacity=".3" clip-path="url(#f)"><path d="M542.4 352.1h-85.9v37.8h46.3l-2.9 37.8h-43.4v37.8H498l-2.8 42.5-38.7 13.2v39.7l74.6-24.6 6.6-108.6zM456.5 352.1v37.8h-84.1l-2.8-37.8h86.9zM413 427.7l1.9 37.8h41.6v-37.8H413zm3.8 56.7H379l2.8 52 74.6 24.6v-39.7L417.7 508l-.9-23.6z"/><path d="M541.4 351.1h-85.9v37.8h46.3l-2.9 37.8h-43.4v37.8H497l-2.8 42.5-38.7 13.2v39.7l74.6-24.6 6.6-108.6zM455.5 351.1v37.8h-84.1l-2.8-37.8h86.9zM412 426.7l1.9 37.8h41.6v-37.8H412zm3.8 56.7H378l2.8 52 74.6 24.6v-39.7L416.7 507l-.9-23.6z"/><path d="M540.4 350.1h-85.9v37.8h46.3l-2.9 37.8h-43.4v37.8H496l-2.8 42.5-38.7 13.2v39.7l74.6-24.6 6.6-108.6zM454.5 350.1v37.8h-84.1l-2.8-37.8h86.9zM411 425.7l1.9 37.8h41.6v-37.8H411zm3.8 56.7H377l2.8 52 74.6 24.6v-39.7L415.7 506l-.9-23.6z"/><path d="M539.4 349.1h-85.9v37.8h46.3l-2.9 37.8h-43.4v37.8H495l-2.8 42.5-38.7 13.2v39.7l74.6-24.6 6.6-108.6zM453.5 349.1v37.8h-84.1l-2.8-37.8h86.9zM410 424.7l1.9 37.8h41.6v-37.8H410zm3.8 56.7H376l2.8 52 74.6 24.6v-39.7L414.7 505l-.9-23.6z"/><path d="M538.4 348.1h-85.9v37.8h46.3l-2.9 37.8h-43.4v37.8H494l-2.8 42.5-38.7 13.2v39.7l74.6-24.6 6.6-108.6zM452.5 348.1v37.8h-84.1l-2.8-37.8h86.9zM409 423.7l1.9 37.8h41.6v-37.8H409zm3.8 56.7H375l2.8 52 74.6 24.6v-39.7L413.7 504l-.9-23.6z"/><path d="M537.4 347.1h-85.9v37.8h46.3l-2.9 37.8h-43.4v37.8H493l-2.8 42.5-38.7 13.2v39.7l74.6-24.6 6.6-108.6zM451.5 347.1v37.8h-84.1l-2.8-37.8h86.9zM408 422.7l1.9 37.8h41.6v-37.8H408zm3.8 56.7H374l2.8 52 74.6 24.6v-39.7L412.7 503l-.9-23.6z"/><path d="M536.4 346.1h-85.9v37.8h46.3l-2.9 37.8h-43.4v37.8H492l-2.8 42.5-38.7 13.2v39.7l74.6-24.6 6.6-108.6zM450.5 346.1v37.8h-84.1l-2.8-37.8h86.9zM407 421.7l1.9 37.8h41.6v-37.8H407zm3.8 56.7H373l2.8 52 74.6 24.6v-39.7L411.7 502l-.9-23.6z"/><path d="M535.4 345.1h-85.9v37.8h46.3l-2.9 37.8h-43.4v37.8H491l-2.8 42.5-38.7 13.2v39.7l74.6-24.6 6.6-108.6zM449.5 345.1v37.8h-84.1l-2.8-37.8h86.9zM406 420.7l1.9 37.8h41.6v-37.8H406zm3.8 56.7H372l2.8 52 74.6 24.6v-39.7L410.7 501l-.9-23.6z"/><path d="M534.4 344.1h-85.9v37.8h46.3l-2.9 37.8h-43.4v37.8H490l-2.8 42.5-38.7 13.2v39.7l74.6-24.6 6.6-108.6zM448.5 344.1v37.8h-84.1l-2.8-37.8h86.9zM405 419.7l1.9 37.8h41.6v-37.8H405zm3.8 56.7H371l2.8 52 74.6 24.6v-39.7L409.7 500l-.9-23.6z"/><path d="M533.4 343.1h-85.9v37.8h46.3l-2.9 37.8h-43.4v37.8H489l-2.8 42.5-38.7 13.2v39.7l74.6-24.6 6.6-108.6zM447.5 343.1v37.8h-84.1l-2.8-37.8h86.9zM404 418.7l1.9 37.8h41.6v-37.8H404zm3.8 56.7H370l2.8 52 74.6 24.6v-39.7L408.7 499l-.9-23.6z"/><path d="M532.4 342.1h-85.9v37.8h46.3l-2.9 37.8h-43.4v37.8H488l-2.8 42.5-38.7 13.2v39.7l74.6-24.6 6.6-108.6zM446.5 342.1v37.8h-84.1l-2.8-37.8h86.9zM403 417.7l1.9 37.8h41.6v-37.8H403zm3.8 56.7H369l2.8 52 74.6 24.6v-39.7L407.7 498l-.9-23.6z"/><path d="M531.4 341.1h-85.9v37.8h46.3l-2.9 37.8h-43.4v37.8H487l-2.8 42.5-38.7 13.2v39.7l74.6-24.6 6.6-108.6zM445.5 341.1v37.8h-84.1l-2.8-37.8h86.9zM402 416.7l1.9 37.8h41.6v-37.8H402zm3.8 56.7H368l2.8 52 74.6 24.6v-39.7L406.7 497l-.9-23.6z"/><path d="M530.4 340.1h-85.9v37.8h46.3l-2.9 37.8h-43.4v37.8H486l-2.8 42.5-38.7 13.2v39.7l74.6-24.6 6.6-108.6zM444.5 340.1v37.8h-84.1l-2.8-37.8h86.9zM401 415.7l1.9 37.8h41.6v-37.8H401zm3.8 56.7H367l2.8 52 74.6 24.6v-39.7L405.7 496l-.9-23.6z"/><path d="M529.4 339.1h-85.9v37.8h46.3l-2.9 37.8h-43.4v37.8H485l-2.8 42.5-38.7 13.2v39.7l74.6-24.6 6.6-108.6zM443.5 339.1v37.8h-84.1l-2.8-37.8h86.9zM400 414.7l1.9 37.8h41.6v-37.8H400zm3.8 56.7H366l2.8 52 74.6 24.6v-39.7L404.7 495l-.9-23.6z"/><path d="M528.4 338.1h-85.9v37.8h46.3l-2.9 37.8h-43.4v37.8H484l-2.8 42.5-38.7 13.2v39.7l74.6-24.6 6.6-108.6zM442.5 338.1v37.8h-84.1l-2.8-37.8h86.9zM399 413.7l1.9 37.8h41.6v-37.8H399zm3.8 56.7H365l2.8 52 74.6 24.6v-39.7L403.7 494l-.9-23.6z"/><path d="M527.4 337.1h-85.9v37.8h46.3l-2.9 37.8h-43.4v37.8H483l-2.8 42.5-38.7 13.2v39.7l74.6-24.6 6.6-108.6zM441.5 337.1v37.8h-84.1l-2.8-37.8h86.9zM398 412.7l1.9 37.8h41.6v-37.8H398zm3.8 56.7H364l2.8 52 74.6 24.6v-39.7L402.7 493l-.9-23.6z"/><path d="M526.4 336.1h-85.9v37.8h46.3l-2.9 37.8h-43.4v37.8H482l-2.8 42.5-38.7 13.2v39.7l74.6-24.6 6.6-108.6zM440.5 336.1v37.8h-84.1l-2.8-37.8h86.9zM397 411.7l1.9 37.8h41.6v-37.8H397zm3.8 56.7H363l2.8 52 74.6 24.6v-39.7L401.7 492l-.9-23.6z"/><path d="M525.4 335.1h-85.9v37.8h46.3l-2.9 37.8h-43.4v37.8H481l-2.8 42.5-38.7 13.2v39.7l74.6-24.6 6.6-108.6zM439.5 335.1v37.8h-84.1l-2.8-37.8h86.9zM396 410.7l1.9 37.8h41.6v-37.8H396zm3.8 56.7H362l2.8 52 74.6 24.6v-39.7L400.7 491l-.9-23.6z"/><path d="M524.4 334.1h-85.9v37.8h46.3l-2.9 37.8h-43.4v37.8H480l-2.8 42.5-38.7 13.2v39.7l74.6-24.6 6.6-108.6zM438.5 334.1v37.8h-84.1l-2.8-37.8h86.9zM395 409.7l1.9 37.8h41.6v-37.8H395zm3.8 56.7H361l2.8 52 74.6 24.6v-39.7L399.7 490l-.9-23.6z"/><path d="M523.4 333.1h-85.9v37.8h46.3l-2.9 37.8h-43.4v37.8H479l-2.8 42.5-38.7 13.2v39.7l74.6-24.6 6.6-108.6zM437.5 333.1v37.8h-84.1l-2.8-37.8h86.9zM394 408.7l1.9 37.8h41.6v-37.8H394zm3.8 56.7H360l2.8 52 74.6 24.6v-39.7L398.7 489l-.9-23.6z"/><path d="M522.4 332.1h-85.9v37.8h46.3l-2.9 37.8h-43.4v37.8H478l-2.8 42.5-38.7 13.2v39.7l74.6-24.6 6.6-108.6zM436.5 332.1v37.8h-84.1l-2.8-37.8h86.9zM393 407.7l1.9 37.8h41.6v-37.8H393zm3.8 56.7H359l2.8 52 74.6 24.6v-39.7L397.7 488l-.9-23.6z"/><path d="M521.4 331.1h-85.9v37.8h46.3l-2.9 37.8h-43.4v37.8H477l-2.8 42.5-38.7 13.2v39.7l74.6-24.6 6.6-108.6zM435.5 331.1v37.8h-84.1l-2.8-37.8h86.9zM392 406.7l1.9 37.8h41.6v-37.8H392zm3.8 56.7H358l2.8 52 74.6 24.6v-39.7L396.7 487l-.9-23.6z"/><path d="M520.4 330.1h-85.9v37.8h46.3l-2.9 37.8h-43.4v37.8H476l-2.8 42.5-38.7 13.2v39.7l74.6-24.6 6.6-108.6zM434.5 330.1v37.8h-84.1l-2.8-37.8h86.9zM391 405.7l1.9 37.8h41.6v-37.8H391zm3.8 56.7H357l2.8 52 74.6 24.6v-39.7L395.7 486l-.9-23.6z"/><path d="M519.4 329.1h-85.9v37.8h46.3l-2.9 37.8h-43.4v37.8H475l-2.8 42.5-38.7 13.2v39.7l74.6-24.6 6.6-108.6zM433.5 329.1v37.8h-84.1l-2.8-37.8h86.9zM390 404.7l1.9 37.8h41.6v-37.8H390zm3.8 56.7H356l2.8 52 74.6 24.6v-39.7L394.7 485l-.9-23.6z"/><path d="M518.4 328.1h-85.9v37.8h46.3l-2.9 37.8h-43.4v37.8H474l-2.8 42.5-38.7 13.2v39.7l74.6-24.6 6.6-108.6zM432.5 328.1v37.8h-84.1l-2.8-37.8h86.9zM389 403.7l1.9 37.8h41.6v-37.8H389zm3.8 56.7H355l2.8 52 74.6 24.6v-39.7L393.7 484l-.9-23.6z"/><path d="M517.4 327.1h-85.9v37.8h46.3l-2.9 37.8h-43.4v37.8H473l-2.8 42.5-38.7 13.2v39.7l74.6-24.6 6.6-108.6zM431.5 327.1v37.8h-84.1l-2.8-37.8h86.9zM388 402.7l1.9 37.8h41.6v-37.8H388zm3.8 56.7H354l2.8 52 74.6 24.6v-39.7L392.7 483l-.9-23.6z"/><path d="M516.4 326.1h-85.9v37.8h46.3l-2.9 37.8h-43.4v37.8H472l-2.8 42.5-38.7 13.2v39.7l74.6-24.6 6.6-108.6zM430.5 326.1v37.8h-84.1l-2.8-37.8h86.9zM387 401.7l1.9 37.8h41.6v-37.8H387zm3.8 56.7H353l2.8 52 74.6 24.6v-39.7L391.7 482l-.9-23.6z"/><path d="M515.4 325.1h-85.9v37.8h46.3l-2.9 37.8h-43.4v37.8H471l-2.8 42.5-38.7 13.2v39.7l74.6-24.6 6.6-108.6zM429.5 325.1v37.8h-84.1l-2.8-37.8h86.9zM386 400.7l1.9 37.8h41.6v-37.8H386zm3.8 56.7H352l2.8 52 74.6 24.6v-39.7L390.7 481l-.9-23.6z"/><path d="M514.4 324.1h-85.9v37.8h46.3l-2.9 37.8h-43.4v37.8H470l-2.8 42.5-38.7 13.2v39.7l74.6-24.6 6.6-108.6zM428.5 324.1v37.8h-84.1l-2.8-37.8h86.9zM385 399.7l1.9 37.8h41.6v-37.8H385zm3.8 56.7H351l2.8 52 74.6 24.6v-39.7L389.7 480l-.9-23.6z"/><path d="M513.4 323.1h-85.9v37.8h46.3l-2.9 37.8h-43.4v37.8H469l-2.8 42.5-38.7 13.2v39.7l74.6-24.6 6.6-108.6zM427.5 323.1v37.8h-84.1l-2.8-37.8h86.9zM384 398.7l1.9 37.8h41.6v-37.8H384zm3.8 56.7H350l2.8 52 74.6 24.6v-39.7L388.7 479l-.9-23.6z"/><path d="M512.4 322.1h-85.9v37.8h46.3l-2.9 37.8h-43.4v37.8H468l-2.8 42.5-38.7 13.2v39.7l74.6-24.6 6.6-108.6zM426.5 322.1v37.8h-84.1l-2.8-37.8h86.9zM383 397.7l1.9 37.8h41.6v-37.8H383zm3.8 56.7H349l2.8 52 74.6 24.6v-39.7L387.7 478l-.9-23.6z"/><path d="M511.4 321.1h-85.9v37.8h46.3l-2.9 37.8h-43.4v37.8H467l-2.8 42.5-38.7 13.2v39.7l74.6-24.6 6.6-108.6zM425.5 321.1v37.8h-84.1l-2.8-37.8h86.9zM382 396.7l1.9 37.8h41.6v-37.8H382zm3.8 56.7H348l2.8 52 74.6 24.6v-39.7L386.7 477l-.9-23.6z"/><path d="M510.4 320.1h-85.9v37.8h46.3l-2.9 37.8h-43.4v37.8H466l-2.8 42.5-38.7 13.2v39.7l74.6-24.6 6.6-108.6zM424.5 320.1v37.8h-84.1l-2.8-37.8h86.9zM381 395.7l1.9 37.8h41.6v-37.8H381zm3.8 56.7H347l2.8 52 74.6 24.6v-39.7L385.7 476l-.9-23.6z"/><path d="M509.4 319.1h-85.9v37.8h46.3l-2.9 37.8h-43.4v37.8H465l-2.8 42.5-38.7 13.2v39.7l74.6-24.6 6.6-108.6zM423.5 319.1v37.8h-84.1l-2.8-37.8h86.9zM380 394.7l1.9 37.8h41.6v-37.8H380zm3.8 56.7H346l2.8 52 74.6 24.6v-39.7L384.7 475l-.9-23.6z"/><path d="M508.4 318.1h-85.9v37.8h46.3l-2.9 37.8h-43.4v37.8H464l-2.8 42.5-38.7 13.2v39.7l74.6-24.6 6.6-108.6zM422.5 318.1v37.8h-84.1l-2.8-37.8h86.9zM379 393.7l1.9 37.8h41.6v-37.8H379zm3.8 56.7H345l2.8 52 74.6 24.6v-39.7L383.7 474l-.9-23.6z"/><path d="M507.4 317.1h-85.9v37.8h46.3l-2.9 37.8h-43.4v37.8H463l-2.8 42.5-38.7 13.2v39.7l74.6-24.6 6.6-108.6zM421.5 317.1v37.8h-84.1l-2.8-37.8h86.9zM378 392.7l1.9 37.8h41.6v-37.8H378zm3.8 56.7H344l2.8 52 74.6 24.6v-39.7L382.7 473l-.9-23.6z"/><path d="M506.4 316.1h-85.9v37.8h46.3l-2.9 37.8h-43.4v37.8H462l-2.8 42.5-38.7 13.2v39.7l74.6-24.6 6.6-108.6zM420.5 316.1v37.8h-84.1l-2.8-37.8h86.9zM377 391.7l1.9 37.8h41.6v-37.8H377zm3.8 56.7H343l2.8 52 74.6 24.6v-39.7L381.7 472l-.9-23.6z"/><path d="M505.4 315.1h-85.9v37.8h46.3l-2.9 37.8h-43.4v37.8H461l-2.8 42.5-38.7 13.2v39.7l74.6-24.6 6.6-108.6zM419.5 315.1v37.8h-84.1l-2.8-37.8h86.9zM376 390.7l1.9 37.8h41.6v-37.8H376zm3.8 56.7H342l2.8 52 74.6 24.6v-39.7L380.7 471l-.9-23.6z"/><path d="M504.4 314.1h-85.9v37.8h46.3l-2.9 37.8h-43.4v37.8H460l-2.8 42.5-38.7 13.2v39.7l74.6-24.6 6.6-108.6zM418.5 314.1v37.8h-84.1l-2.8-37.8h86.9zM375 389.7l1.9 37.8h41.6v-37.8H375zm3.8 56.7H341l2.8 52 74.6 24.6v-39.7L379.7 470l-.9-23.6z"/><path d="M503.4 313.1h-85.9v37.8h46.3l-2.9 37.8h-43.4v37.8H459l-2.8 42.5-38.7 13.2v39.7l74.6-24.6 6.6-108.6zM417.5 313.1v37.8h-84.1l-2.8-37.8h86.9zM374 388.7l1.9 37.8h41.6v-37.8H374zm3.8 56.7H340l2.8 52 74.6 24.6v-39.7L378.7 469l-.9-23.6z"/><path d="M502.4 312.1h-85.9v37.8h46.3l-2.9 37.8h-43.4v37.8H458l-2.8 42.5-38.7 13.2v39.7l74.6-24.6 6.6-108.6zM416.5 312.1v37.8h-84.1l-2.8-37.8h86.9zM373 387.7l1.9 37.8h41.6v-37.8H373zm3.8 56.7H339l2.8 52 74.6 24.6v-39.7L377.7 468l-.9-23.6z"/><path d="M501.4 311.1h-85.9v37.8h46.3l-2.9 37.8h-43.4v37.8H457l-2.8 42.5-38.7 13.2v39.7l74.6-24.6 6.6-108.6zM415.5 311.1v37.8h-84.1l-2.8-37.8h86.9zM372 386.7l1.9 37.8h41.6v-37.8H372zm3.8 56.7H338l2.8 52 74.6 24.6v-39.7L376.7 467l-.9-23.6z"/><path d="M500.4 310.1h-85.9v37.8h46.3l-2.9 37.8h-43.4v37.8H456l-2.8 42.5-38.7 13.2v39.7l74.6-24.6 6.6-108.6zM414.5 310.1v37.8h-84.1l-2.8-37.8h86.9zM371 385.7l1.9 37.8h41.6v-37.8H371zm3.8 56.7H337l2.8 52 74.6 24.6v-39.7L375.7 466l-.9-23.6z"/><path d="M499.4 309.1h-85.9v37.8h46.3l-2.9 37.8h-43.4v37.8H455l-2.8 42.5-38.7 13.2v39.7l74.6-24.6 6.6-108.6zM413.5 309.1v37.8h-84.1l-2.8-37.8h86.9zM370 384.7l1.9 37.8h41.6v-37.8H370zm3.8 56.7H336l2.8 52 74.6 24.6v-39.7L374.7 465l-.9-23.6z"/><path d="M498.4 308.1h-85.9v37.8h46.3l-2.9 37.8h-43.4v37.8H454l-2.8 42.5-38.7 13.2v39.7l74.6-24.6 6.6-108.6zM412.5 308.1v37.8h-84.1l-2.8-37.8h86.9zM369 383.7l1.9 37.8h41.6v-37.8H369zm3.8 56.7H335l2.8 52 74.6 24.6v-39.7L373.7 464l-.9-23.6z"/><path d="M497.4 307.1h-85.9v37.8h46.3l-2.9 37.8h-43.4v37.8H453l-2.8 42.5-38.7 13.2v39.7l74.6-24.6 6.6-108.6zM411.5 307.1v37.8h-84.1l-2.8-37.8h86.9zM368 382.7l1.9 37.8h41.6v-37.8H368zm3.8 56.7H334l2.8 52 74.6 24.6v-39.7L372.7 463l-.9-23.6z"/><path d="M496.4 306.1h-85.9v37.8h46.3l-2.9 37.8h-43.4v37.8H452l-2.8 42.5-38.7 13.2v39.7l74.6-24.6 6.6-108.6zM410.5 306.1v37.8h-84.1l-2.8-37.8h86.9zM367 381.7l1.9 37.8h41.6v-37.8H367zm3.8 56.7H333l2.8 52 74.6 24.6v-39.7L371.7 462l-.9-23.6z"/><path d="M495.4 305.1h-85.9v37.8h46.3l-2.9 37.8h-43.4v37.8H451l-2.8 42.5-38.7 13.2v39.7l74.6-24.6 6.6-108.6zM409.5 305.1v37.8h-84.1l-2.8-37.8h86.9zM366 380.7l1.9 37.8h41.6v-37.8H366zm3.8 56.7H332l2.8 52 74.6 24.6v-39.7L370.7 461l-.9-23.6z"/><path d="M494.4 304.1h-85.9v37.8h46.3l-2.9 37.8h-43.4v37.8H450l-2.8 42.5-38.7 13.2v39.7l74.6-24.6 6.6-108.6zM408.5 304.1v37.8h-84.1l-2.8-37.8h86.9zM365 379.7l1.9 37.8h41.6v-37.8H365zm3.8 56.7H331l2.8 52 74.6 24.6v-39.7L369.7 460l-.9-23.6z"/><path d="M493.4 303.1h-85.9v37.8h46.3l-2.9 37.8h-43.4v37.8H449l-2.8 42.5-38.7 13.2v39.7l74.6-24.6 6.6-108.6zM407.5 303.1v37.8h-84.1l-2.8-37.8h86.9zM364 378.7l1.9 37.8h41.6v-37.8H364zm3.8 56.7H330l2.8 52 74.6 24.6v-39.7L368.7 459l-.9-23.6z"/><path d="M492.4 302.1h-85.9v37.8h46.3l-2.9 37.8h-43.4v37.8H448l-2.8 42.5-38.7 13.2v39.7l74.6-24.6 6.6-108.6zM406.5 302.1v37.8h-84.1l-2.8-37.8h86.9zM363 377.7l1.9 37.8h41.6v-37.8H363zm3.8 56.7H329l2.8 52 74.6 24.6v-39.7L367.7 458l-.9-23.6z"/><path d="M491.4 301.1h-85.9v37.8h46.3l-2.9 37.8h-43.4v37.8H447l-2.8 42.5-38.7 13.2v39.7l74.6-24.6 6.6-108.6zM405.5 301.1v37.8h-84.1l-2.8-37.8h86.9zM362 376.7l1.9 37.8h41.6v-37.8H362zm3.8 56.7H328l2.8 52 74.6 24.6v-39.7L366.7 457l-.9-23.6z"/><path d="M490.4 300.1h-85.9v37.8h46.3l-2.9 37.8h-43.4v37.8H446l-2.8 42.5-38.7 13.2v39.7l74.6-24.6 6.6-108.6zM404.5 300.1v37.8h-84.1l-2.8-37.8h86.9zM361 375.7l1.9 37.8h41.6v-37.8H361zm3.8 56.7H327l2.8 52 74.6 24.6v-39.7L365.7 456l-.9-23.6z"/><path d="M489.4 299.1h-85.9v37.8h46.3l-2.9 37.8h-43.4v37.8H445l-2.8 42.5-38.7 13.2v39.7l74.6-24.6 6.6-108.6zM403.5 299.1v37.8h-84.1l-2.8-37.8h86.9zM360 374.7l1.9 37.8h41.6v-37.8H360zm3.8 56.7H326l2.8 52 74.6 24.6v-39.7L364.7 455l-.9-23.6z"/><path d="M488.4 298.1h-85.9v37.8h46.3l-2.9 37.8h-43.4v37.8H444l-2.8 42.5-38.7 13.2v39.7l74.6-24.6 6.6-108.6zM402.5 298.1v37.8h-84.1l-2.8-37.8h86.9zM359 373.7l1.9 37.8h41.6v-37.8H359zm3.8 56.7H325l2.8 52 74.6 24.6v-39.7L363.7 454l-.9-23.6z"/><path d="M487.4 297.1h-85.9v37.8h46.3l-2.9 37.8h-43.4v37.8H443l-2.8 42.5-38.7 13.2v39.7l74.6-24.6 6.6-108.6zM401.5 297.1v37.8h-84.1l-2.8-37.8h86.9zM358 372.7l1.9 37.8h41.6v-37.8H358zm3.8 56.7H324l2.8 52 74.6 24.6v-39.7L362.7 453l-.9-23.6z"/><path d="M486.4 296.1h-85.9v37.8h46.3l-2.9 37.8h-43.4v37.8H442l-2.8 42.5-38.7 13.2v39.7l74.6-24.6 6.6-108.6zM400.5 296.1v37.8h-84.1l-2.8-37.8h86.9zM357 371.7l1.9 37.8h41.6v-37.8H357zm3.8 56.7H323l2.8 52 74.6 24.6v-39.7L361.7 452l-.9-23.6z"/><path d="M485.4 295.1h-85.9v37.8h46.3l-2.9 37.8h-43.4v37.8H441l-2.8 42.5-38.7 13.2v39.7l74.6-24.6 6.6-108.6zM399.5 295.1v37.8h-84.1l-2.8-37.8h86.9zM356 370.7l1.9 37.8h41.6v-37.8H356zm3.8 56.7H322l2.8 52 74.6 24.6v-39.7L360.7 451l-.9-23.6z"/><path d="M484.4 294.1h-85.9v37.8h46.3l-2.9 37.8h-43.4v37.8H440l-2.8 42.5-38.7 13.2v39.7l74.6-24.6 6.6-108.6zM398.5 294.1v37.8h-84.1l-2.8-37.8h86.9zM355 369.7l1.9 37.8h41.6v-37.8H355zm3.8 56.7H321l2.8 52 74.6 24.6v-39.7L359.7 450l-.9-23.6z"/><path d="M483.4 293.1h-85.9v37.8h46.3l-2.9 37.8h-43.4v37.8H439l-2.8 42.5-38.7 13.2v39.7l74.6-24.6 6.6-108.6zM397.5 293.1v37.8h-84.1l-2.8-37.8h86.9zM354 368.7l1.9 37.8h41.6v-37.8H354zm3.8 56.7H320l2.8 52 74.6 24.6v-39.7L358.7 449l-.9-23.6z"/><path d="M482.4 292.1h-85.9v37.8h46.3l-2.9 37.8h-43.4v37.8H438l-2.8 42.5-38.7 13.2v39.7l74.6-24.6 6.6-108.6zM396.5 292.1v37.8h-84.1l-2.8-37.8h86.9zM353 367.7l1.9 37.8h41.6v-37.8H353zm3.8 56.7H319l2.8 52 74.6 24.6v-39.7L357.7 448l-.9-23.6z"/><path d="M481.4 291.1h-85.9v37.8h46.3l-2.9 37.8h-43.4v37.8H437l-2.8 42.5-38.7 13.2v39.7l74.6-24.6 6.6-108.6zM395.5 291.1v37.8h-84.1l-2.8-37.8h86.9zM352 366.7l1.9 37.8h41.6v-37.8H352zm3.8 56.7H318l2.8 52 74.6 24.6v-39.7L356.7 447l-.9-23.6z"/><path d="M480.4 290.1h-85.9v37.8h46.3l-2.9 37.8h-43.4v37.8H436l-2.8 42.5-38.7 13.2v39.7l74.6-24.6 6.6-108.6zM394.5 290.1v37.8h-84.1l-2.8-37.8h86.9zM351 365.7l1.9 37.8h41.6v-37.8H351zm3.8 56.7H317l2.8 52 74.6 24.6v-39.7L355.7 446l-.9-23.6z"/><path d="M479.4 289.1h-85.9v37.8h46.3l-2.9 37.8h-43.4v37.8H435l-2.8 42.5-38.7 13.2v39.7l74.6-24.6 6.6-108.6zM393.5 289.1v37.8h-84.1l-2.8-37.8h86.9zM350 364.7l1.9 37.8h41.6v-37.8H350zm3.8 56.7H316l2.8 52 74.6 24.6v-39.7L354.7 445l-.9-23.6z"/><path d="M478.4 288.1h-85.9v37.8h46.3l-2.9 37.8h-43.4v37.8H434l-2.8 42.5-38.7 13.2v39.7l74.6-24.6 6.6-108.6zM392.5 288.1v37.8h-84.1l-2.8-37.8h86.9zM349 363.7l1.9 37.8h41.6v-37.8H349zm3.8 56.7H315l2.8 52 74.6 24.6v-39.7L353.7 444l-.9-23.6z"/><path d="M477.4 287.1h-85.9v37.8h46.3l-2.9 37.8h-43.4v37.8H433l-2.8 42.5-38.7 13.2v39.7l74.6-24.6 6.6-108.6zM391.5 287.1v37.8h-84.1l-2.8-37.8h86.9zM348 362.7l1.9 37.8h41.6v-37.8H348zm3.8 56.7H314l2.8 52 74.6 24.6v-39.7L352.7 443l-.9-23.6z"/><path d="M476.4 286.1h-85.9v37.8h46.3l-2.9 37.8h-43.4v37.8H432l-2.8 42.5-38.7 13.2v39.7l74.6-24.6 6.6-108.6zM390.5 286.1v37.8h-84.1l-2.8-37.8h86.9zM347 361.7l1.9 37.8h41.6v-37.8H347zm3.8 56.7H313l2.8 52 74.6 24.6v-39.7L351.7 442l-.9-23.6z"/><path d="M475.4 285.1h-85.9v37.8h46.3l-2.9 37.8h-43.4v37.8H431l-2.8 42.5-38.7 13.2v39.7l74.6-24.6 6.6-108.6zM389.5 285.1v37.8h-84.1l-2.8-37.8h86.9zM346 360.7l1.9 37.8h41.6v-37.8H346zm3.8 56.7H312l2.8 52 74.6 24.6v-39.7L350.7 441l-.9-23.6z"/><path d="M474.4 284.1h-85.9v37.8h46.3l-2.9 37.8h-43.4v37.8H430l-2.8 42.5-38.7 13.2v39.7l74.6-24.6 6.6-108.6zM388.5 284.1v37.8h-84.1l-2.8-37.8h86.9zM345 359.7l1.9 37.8h41.6v-37.8H345zm3.8 56.7H311l2.8 52 74.6 24.6v-39.7L349.7 440l-.9-23.6z"/><path d="M473.4 283.1h-85.9v37.8h46.3l-2.9 37.8h-43.4v37.8H429l-2.8 42.5-38.7 13.2v39.7l74.6-24.6 6.6-108.6zM387.5 283.1v37.8h-84.1l-2.8-37.8h86.9zM344 358.7l1.9 37.8h41.6v-37.8H344zm3.8 56.7H310l2.8 52 74.6 24.6v-39.7L348.7 439l-.9-23.6z"/><path d="M472.4 282.1h-85.9v37.8h46.3l-2.9 37.8h-43.4v37.8H428l-2.8 42.5-38.7 13.2v39.7l74.6-24.6 6.6-108.6zM386.5 282.1v37.8h-84.1l-2.8-37.8h86.9zM343 357.7l1.9 37.8h41.6v-37.8H343zm3.8 56.7H309l2.8 52 74.6 24.6v-39.7L347.7 438l-.9-23.6z"/><path d="M471.4 281.1h-85.9v37.8h46.3l-2.9 37.8h-43.4v37.8H427l-2.8 42.5-38.7 13.2v39.7l74.6-24.6 6.6-108.6zM385.5 281.1v37.8h-84.1l-2.8-37.8h86.9zM342 356.7l1.9 37.8h41.6v-37.8H342zm3.8 56.7H308l2.8 52 74.6 24.6v-39.7L346.7 437l-.9-23.6z"/><path d="M470.4 280.1h-85.9v37.8h46.3l-2.9 37.8h-43.4v37.8H426l-2.8 42.5-38.7 13.2v39.7l74.6-24.6 6.6-108.6zM384.5 280.1v37.8h-84.1l-2.8-37.8h86.9zM341 355.7l1.9 37.8h41.6v-37.8H341zm3.8 56.7H307l2.8 52 74.6 24.6v-39.7L345.7 436l-.9-23.6z"/><path d="M469.4 279.1h-85.9v37.8h46.3l-2.9 37.8h-43.4v37.8H425l-2.8 42.5-38.7 13.2v39.7l74.6-24.6 6.6-108.6zM383.5 279.1v37.8h-84.1l-2.8-37.8h86.9zM340 354.7l1.9 37.8h41.6v-37.8H340zm3.8 56.7H306l2.8 52 74.6 24.6v-39.7L344.7 435l-.9-23.6z"/><path d="M468.4 278.1h-85.9v37.8h46.3l-2.9 37.8h-43.4v37.8H424l-2.8 42.5-38.7 13.2v39.7l74.6-24.6 6.6-108.6zM382.5 278.1v37.8h-84.1l-2.8-37.8h86.9zM339 353.7l1.9 37.8h41.6v-37.8H339zm3.8 56.7H305l2.8 52 74.6 24.6v-39.7L343.7 434l-.9-23.6z"/><path d="M467.4 277.1h-85.9v37.8h46.3l-2.9 37.8h-43.4v37.8H423l-2.8 42.5-38.7 13.2v39.7l74.6-24.6 6.6-108.6zM381.5 277.1v37.8h-84.1l-2.8-37.8h86.9zM338 352.7l1.9 37.8h41.6v-37.8H338zm3.8 56.7H304l2.8 52 74.6 24.6v-39.7L342.7 433l-.9-23.6z"/><path d="M466.4 276.1h-85.9v37.8h46.3l-2.9 37.8h-43.4v37.8H422l-2.8 42.5-38.7 13.2v39.7l74.6-24.6 6.6-108.6zM380.5 276.1v37.8h-84.1l-2.8-37.8h86.9zM337 351.7l1.9 37.8h41.6v-37.8H337zm3.8 56.7H303l2.8 52 74.6 24.6v-39.7L341.7 432l-.9-23.6z"/><path d="M465.4 275.1h-85.9v37.8h46.3l-2.9 37.8h-43.4v37.8H421l-2.8 42.5-38.7 13.2v39.7l74.6-24.6 6.6-108.6zM379.5 275.1v37.8h-84.1l-2.8-37.8h86.9zM336 350.7l1.9 37.8h41.6v-37.8H336zm3.8 56.7H302l2.8 52 74.6 24.6v-39.7L340.7 431l-.9-23.6z"/><path d="M464.4 274.1h-85.9v37.8h46.3l-2.9 37.8h-43.4v37.8H420l-2.8 42.5-38.7 13.2v39.7l74.6-24.6 6.6-108.6zM378.5 274.1v37.8h-84.1l-2.8-37.8h86.9zM335 349.7l1.9 37.8h41.6v-37.8H335zm3.8 56.7H301l2.8 52 74.6 24.6v-39.7L339.7 430l-.9-23.6z"/><path d="M463.4 273.1h-85.9v37.8h46.3l-2.9 37.8h-43.4v37.8H419l-2.8 42.5-38.7 13.2v39.7l74.6-24.6 6.6-108.6zM377.5 273.1v37.8h-84.1l-2.8-37.8h86.9zM334 348.7l1.9 37.8h41.6v-37.8H334zm3.8 56.7H300l2.8 52 74.6 24.6v-39.7L338.7 429l-.9-23.6z"/><path d="M462.4 272.1h-85.9v37.8h46.3l-2.9 37.8h-43.4v37.8H418l-2.8 42.5-38.7 13.2v39.7l74.6-24.6 6.6-108.6zM376.5 272.1v37.8h-84.1l-2.8-37.8h86.9zM333 347.7l1.9 37.8h41.6v-37.8H333zm3.8 56.7H299l2.8 52 74.6 24.6v-39.7L337.7 428l-.9-23.6z"/><path d="M461.4 271.1h-85.9v37.8h46.3l-2.9 37.8h-43.4v37.8H417l-2.8 42.5-38.7 13.2v39.7l74.6-24.6 6.6-108.6zM375.5 271.1v37.8h-84.1l-2.8-37.8h86.9zM332 346.7l1.9 37.8h41.6v-37.8H332zm3.8 56.7H298l2.8 52 74.6 24.6v-39.7L336.7 427l-.9-23.6z"/><path d="M460.4 270.1h-85.9v37.8h46.3l-2.9 37.8h-43.4v37.8H416l-2.8 42.5-38.7 13.2v39.7l74.6-24.6 6.6-108.6zM374.5 270.1v37.8h-84.1l-2.8-37.8h86.9zM331 345.7l1.9 37.8h41.6v-37.8H331zm3.8 56.7H297l2.8 52 74.6 24.6v-39.7L335.7 426l-.9-23.6z"/><path d="M459.4 269.1h-85.9v37.8h46.3l-2.9 37.8h-43.4v37.8H415l-2.8 42.5-38.7 13.2v39.7l74.6-24.6 6.6-108.6zM373.5 269.1v37.8h-84.1l-2.8-37.8h86.9zM330 344.7l1.9 37.8h41.6v-37.8H330zm3.8 56.7H296l2.8 52 74.6 24.6v-39.7L334.7 425l-.9-23.6z"/><path d="M458.4 268.1h-85.9v37.8h46.3l-2.9 37.8h-43.4v37.8H414l-2.8 42.5-38.7 13.2v39.7l74.6-24.6 6.6-108.6zM372.5 268.1v37.8h-84.1l-2.8-37.8h86.9zM329 343.7l1.9 37.8h41.6v-37.8H329zm3.8 56.7H295l2.8 52 74.6 24.6v-39.7L333.7 424l-.9-23.6z"/><path d="M457.4 267.1h-85.9v37.8h46.3l-2.9 37.8h-43.4v37.8H413l-2.8 42.5-38.7 13.2v39.7l74.6-24.6 6.6-108.6zM371.5 267.1v37.8h-84.1l-2.8-37.8h86.9zM328 342.7l1.9 37.8h41.6v-37.8H328zm3.8 56.7H294l2.8 52 74.6 24.6v-39.7L332.7 423l-.9-23.6z"/><path d="M456.4 266.1h-85.9v37.8h46.3l-2.9 37.8h-43.4v37.8H412l-2.8 42.5-38.7 13.2v39.7l74.6-24.6 6.6-108.6zM370.5 266.1v37.8h-84.1l-2.8-37.8h86.9zM327 341.7l1.9 37.8h41.6v-37.8H327zm3.8 56.7H293l2.8 52 74.6 24.6v-39.7L331.7 422l-.9-23.6z"/><path d="M455.4 265.1h-85.9v37.8h46.3l-2.9 37.8h-43.4v37.8H411l-2.8 42.5-38.7 13.2v39.7l74.6-24.6 6.6-108.6zM369.5 265.1v37.8h-84.1l-2.8-37.8h86.9zM326 340.7l1.9 37.8h41.6v-37.8H326zm3.8 56.7H292l2.8 52 74.6 24.6v-39.7L330.7 421l-.9-23.6z"/><path d="M454.4 264.1h-85.9v37.8h46.3l-2.9 37.8h-43.4v37.8H410l-2.8 42.5-38.7 13.2v39.7l74.6-24.6 6.6-108.6zM368.5 264.1v37.8h-84.1l-2.8-37.8h86.9zM325 339.7l1.9 37.8h41.6v-37.8H325zm3.8 56.7H291l2.8 52 74.6 24.6v-39.7L329.7 420l-.9-23.6z"/><path d="M453.4 263.1h-85.9v37.8h46.3l-2.9 37.8h-43.4v37.8H409l-2.8 42.5-38.7 13.2v39.7l74.6-24.6 6.6-108.6zM367.5 263.1v37.8h-84.1l-2.8-37.8h86.9zM324 338.7l1.9 37.8h41.6v-37.8H324zm3.8 56.7H290l2.8 52 74.6 24.6v-39.7L328.7 419l-.9-23.6z"/><path d="M452.4 262.1h-85.9v37.8h46.3l-2.9 37.8h-43.4v37.8H408l-2.8 42.5-38.7 13.2v39.7l74.6-24.6 6.6-108.6zM366.5 262.1v37.8h-84.1l-2.8-37.8h86.9zM323 337.7l1.9 37.8h41.6v-37.8H323zm3.8 56.7H289l2.8 52 74.6 24.6v-39.7L327.7 418l-.9-23.6z"/><path d="M451.4 261.1h-85.9v37.8h46.3l-2.9 37.8h-43.4v37.8H407l-2.8 42.5-38.7 13.2v39.7l74.6-24.6 6.6-108.6zM365.5 261.1v37.8h-84.1l-2.8-37.8h86.9zM322 336.7l1.9 37.8h41.6v-37.8H322zm3.8 56.7H288l2.8 52 74.6 24.6v-39.7L326.7 417l-.9-23.6z"/><path d="M450.4 260.1h-85.9v37.8h46.3l-2.9 37.8h-43.4v37.8H406l-2.8 42.5-38.7 13.2v39.7l74.6-24.6 6.6-108.6zM364.5 260.1v37.8h-84.1l-2.8-37.8h86.9zM321 335.7l1.9 37.8h41.6v-37.8H321zm3.8 56.7H287l2.8 52 74.6 24.6v-39.7L325.7 416l-.9-23.6z"/><path d="M449.4 259.1h-85.9v37.8h46.3l-2.9 37.8h-43.4v37.8H405l-2.8 42.5-38.7 13.2v39.7l74.6-24.6 6.6-108.6zM363.5 259.1v37.8h-84.1l-2.8-37.8h86.9zM320 334.7l1.9 37.8h41.6v-37.8H320zm3.8 56.7H286l2.8 52 74.6 24.6v-39.7L324.7 415l-.9-23.6z"/><path d="M448.4 258.1h-85.9v37.8h46.3l-2.9 37.8h-43.4v37.8H404l-2.8 42.5-38.7 13.2v39.7l74.6-24.6 6.6-108.6zM362.5 258.1v37.8h-84.1l-2.8-37.8h86.9zM319 333.7l1.9 37.8h41.6v-37.8H319zm3.8 56.7H285l2.8 52 74.6 24.6v-39.7L323.7 414l-.9-23.6z"/><path d="M447.4 257.1h-85.9v37.8h46.3l-2.9 37.8h-43.4v37.8H403l-2.8 42.5-38.7 13.2v39.7l74.6-24.6 6.6-108.6zM361.5 257.1v37.8h-84.1l-2.8-37.8h86.9zM318 332.7l1.9 37.8h41.6v-37.8H318zm3.8 56.7H284l2.8 52 74.6 24.6v-39.7L322.7 413l-.9-23.6z"/><path d="M446.4 256.1h-85.9v37.8h46.3l-2.9 37.8h-43.4v37.8H402l-2.8 42.5-38.7 13.2v39.7l74.6-24.6 6.6-108.6zM360.5 256.1v37.8h-84.1l-2.8-37.8h86.9zM317 331.7l1.9 37.8h41.6v-37.8H317zm3.8 56.7H283l2.8 52 74.6 24.6v-39.7L321.7 412l-.9-23.6z"/><path d="M445.4 255.1h-85.9v37.8h46.3l-2.9 37.8h-43.4v37.8H401l-2.8 42.5-38.7 13.2v39.7l74.6-24.6 6.6-108.6zM359.5 255.1v37.8h-84.1l-2.8-37.8h86.9zM316 330.7l1.9 37.8h41.6v-37.8H316zm3.8 56.7H282l2.8 52 74.6 24.6v-39.7L320.7 411l-.9-23.6z"/><path d="M444.4 254.1h-85.9v37.8h46.3l-2.9 37.8h-43.4v37.8H400l-2.8 42.5-38.7 13.2v39.7l74.6-24.6 6.6-108.6zM358.5 254.1v37.8h-84.1l-2.8-37.8h86.9zM315 329.7l1.9 37.8h41.6v-37.8H315zm3.8 56.7H281l2.8 52 74.6 24.6v-39.7L319.7 410l-.9-23.6z"/><path d="M443.4 253.1h-85.9v37.8h46.3l-2.9 37.8h-43.4v37.8H399l-2.8 42.5-38.7 13.2v39.7l74.6-24.6 6.6-108.6zM357.5 253.1v37.8h-84.1l-2.8-37.8h86.9zM314 328.7l1.9 37.8h41.6v-37.8H314zm3.8 56.7H280l2.8 52 74.6 24.6v-39.7L318.7 409l-.9-23.6z"/><path d="M442.4 252.1h-85.9v37.8h46.3l-2.9 37.8h-43.4v37.8H398l-2.8 42.5-38.7 13.2v39.7l74.6-24.6 6.6-108.6zM356.5 252.1v37.8h-84.1l-2.8-37.8h86.9zM313 327.7l1.9 37.8h41.6v-37.8H313zm3.8 56.7H279l2.8 52 74.6 24.6v-39.7L317.7 408l-.9-23.6z"/><g><path d="M441.4 251.1h-85.9v37.8h46.3l-2.9 37.8h-43.4v37.8H397l-2.8 42.5-38.7 13.2v39.7l74.6-24.6 6.6-108.6zM355.5 251.1v37.8h-84.1l-2.8-37.8h86.9zM312 326.7l1.9 37.8h41.6v-37.8H312zm3.8 56.7H278l2.8 52 74.6 24.6v-39.7L316.7 407l-.9-23.6z"/></g><g><path d="M440.4 250.1h-85.9v37.8h46.3l-2.9 37.8h-43.4v37.8H396l-2.8 42.5-38.7 13.2v39.7l74.6-24.6 6.6-108.6zM354.5 250.1v37.8h-84.1l-2.8-37.8h86.9zM311 325.7l1.9 37.8h41.6v-37.8H311zm3.8 56.7H277l2.8 52 74.6 24.6v-39.7L315.7 406l-.9-23.6z"/></g><g><path d="M439.4 249.1h-85.9v37.8h46.3l-2.9 37.8h-43.4v37.8H395l-2.8 42.5-38.7 13.2v39.7l74.6-24.6 6.6-108.6zM353.5 249.1v37.8h-84.1l-2.8-37.8h86.9zM310 324.7l1.9 37.8h41.6v-37.8H310zm3.8 56.7H276l2.8 52 74.6 24.6v-39.7L314.7 405l-.9-23.6z"/></g><g><path d="M438.4 248.1h-85.9v37.8h46.3l-2.9 37.8h-43.4v37.8H394l-2.8 42.5-38.7 13.2v39.7l74.6-24.6 6.6-108.6zM352.5 248.1v37.8h-84.1l-2.8-37.8h86.9zM309 323.7l1.9 37.8h41.6v-37.8H309zm3.8 56.7H275l2.8 52 74.6 24.6v-39.7L313.7 404l-.9-23.6z"/></g><g><path d="M437.4 247.1h-85.9v37.8h46.3l-2.9 37.8h-43.4v37.8H393l-2.8 42.5-38.7 13.2v39.7l74.6-24.6 6.6-108.6zM351.5 247.1v37.8h-84.1l-2.8-37.8h86.9zM308 322.7l1.9 37.8h41.6v-37.8H308zm3.8 56.7H274l2.8 52 74.6 24.6v-39.7L312.7 403l-.9-23.6z"/></g><g><path d="M436.4 246.1h-85.9v37.8h46.3l-2.9 37.8h-43.4v37.8H392l-2.8 42.5-38.7 13.2v39.7l74.6-24.6 6.6-108.6zM350.5 246.1v37.8h-84.1l-2.8-37.8h86.9zM307 321.7l1.9 37.8h41.6v-37.8H307zm3.8 56.7H273l2.8 52 74.6 24.6v-39.7L311.7 402l-.9-23.6z"/></g><g><path d="M435.4 245.1h-85.9v37.8h46.3l-2.9 37.8h-43.4v37.8H391l-2.8 42.5-38.7 13.2v39.7l74.6-24.6 6.6-108.6zM349.5 245.1v37.8h-84.1l-2.8-37.8h86.9zM306 320.7l1.9 37.8h41.6v-37.8H306zm3.8 56.7H272l2.8 52 74.6 24.6v-39.7L310.7 401l-.9-23.6z"/></g><g><path d="M434.4 244.1h-85.9v37.8h46.3l-2.9 37.8h-43.4v37.8H390l-2.8 42.5-38.7 13.2v39.7l74.6-24.6 6.6-108.6zM348.5 244.1v37.8h-84.1l-2.8-37.8h86.9zM305 319.7l1.9 37.8h41.6v-37.8H305zm3.8 56.7H271l2.8 52 74.6 24.6v-39.7L309.7 400l-.9-23.6z"/></g><g><path d="M433.4 243.1h-85.9v37.8h46.3l-2.9 37.8h-43.4v37.8H389l-2.8 42.5-38.7 13.2v39.7l74.6-24.6 6.6-108.6zM347.5 243.1v37.8h-84.1l-2.8-37.8h86.9zM304 318.7l1.9 37.8h41.6v-37.8H304zm3.8 56.7H270l2.8 52 74.6 24.6v-39.7L308.7 399l-.9-23.6z"/></g><g><path d="M432.4 242.1h-85.9v37.8h46.3l-2.9 37.8h-43.4v37.8H388l-2.8 42.5-38.7 13.2v39.7l74.6-24.6 6.6-108.6zM346.5 242.1v37.8h-84.1l-2.8-37.8h86.9zM303 317.7l1.9 37.8h41.6v-37.8H303zm3.8 56.7H269l2.8 52 74.6 24.6v-39.7L307.7 398l-.9-23.6z"/></g><g><path d="M431.4 241.1h-85.9v37.8h46.3l-2.9 37.8h-43.4v37.8H387l-2.8 42.5-38.7 13.2v39.7l74.6-24.6 6.6-108.6zM345.5 241.1v37.8h-84.1l-2.8-37.8h86.9zM302 316.7l1.9 37.8h41.6v-37.8H302zm3.8 56.7H268l2.8 52 74.6 24.6v-39.7L306.7 397l-.9-23.6z"/></g><g><path d="M430.4 240.1h-85.9v37.8h46.3l-2.9 37.8h-43.4v37.8H386l-2.8 42.5-38.7 13.2v39.7l74.6-24.6 6.6-108.6zM344.5 240.1v37.8h-84.1l-2.8-37.8h86.9zM301 315.7l1.9 37.8h41.6v-37.8H301zm3.8 56.7H267l2.8 52 74.6 24.6v-39.7L305.7 396l-.9-23.6z"/></g><g><path d="M429.4 239.1h-85.9v37.8h46.3l-2.9 37.8h-43.4v37.8H385l-2.8 42.5-38.7 13.2v39.7l74.6-24.6 6.6-108.6zM343.5 239.1v37.8h-84.1l-2.8-37.8h86.9zM300 314.7l1.9 37.8h41.6v-37.8H300zm3.8 56.7H266l2.8 52 74.6 24.6v-39.7L304.7 395l-.9-23.6z"/></g><g><path d="M428.4 238.1h-85.9v37.8h46.3l-2.9 37.8h-43.4v37.8H384l-2.8 42.5-38.7 13.2v39.7l74.6-24.6 6.6-108.6zM342.5 238.1v37.8h-84.1l-2.8-37.8h86.9zM299 313.7l1.9 37.8h41.6v-37.8H299zm3.8 56.7H265l2.8 52 74.6 24.6v-39.7L303.7 394l-.9-23.6z"/></g><g><path d="M427.4 237.1h-85.9v37.8h46.3l-2.9 37.8h-43.4v37.8H383l-2.8 42.5-38.7 13.2v39.7l74.6-24.6 6.6-108.6zM341.5 237.1v37.8h-84.1l-2.8-37.8h86.9zM298 312.7l1.9 37.8h41.6v-37.8H298zm3.8 56.7H264l2.8 52 74.6 24.6v-39.7L302.7 393l-.9-23.6z"/></g><g><path d="M426.4 236.1h-85.9v37.8h46.3l-2.9 37.8h-43.4v37.8H382l-2.8 42.5-38.7 13.2v39.7l74.6-24.6 6.6-108.6zM340.5 236.1v37.8h-84.1l-2.8-37.8h86.9zM297 311.7l1.9 37.8h41.6v-37.8H297zm3.8 56.7H263l2.8 52 74.6 24.6v-39.7L301.7 392l-.9-23.6z"/></g><g><path d="M425.4 235.1h-85.9v37.8h46.3l-2.9 37.8h-43.4v37.8H381l-2.8 42.5-38.7 13.2v39.7l74.6-24.6 6.6-108.6zM339.5 235.1v37.8h-84.1l-2.8-37.8h86.9zM296 310.7l1.9 37.8h41.6v-37.8H296zm3.8 56.7H262l2.8 52 74.6 24.6v-39.7L300.7 391l-.9-23.6z"/></g><g><path d="M424.4 234.1h-85.9v37.8h46.3l-2.9 37.8h-43.4v37.8H380l-2.8 42.5-38.7 13.2v39.7l74.6-24.6 6.6-108.6zM338.5 234.1v37.8h-84.1l-2.8-37.8h86.9zM295 309.7l1.9 37.8h41.6v-37.8H295zm3.8 56.7H261l2.8 52 74.6 24.6v-39.7L299.7 390l-.9-23.6z"/></g><g><path d="M423.4 233.1h-85.9v37.8h46.3l-2.9 37.8h-43.4v37.8H379l-2.8 42.5-38.7 13.2v39.7l74.6-24.6 6.6-108.6zM337.5 233.1v37.8h-84.1l-2.8-37.8h86.9zM294 308.7l1.9 37.8h41.6v-37.8H294zm3.8 56.7H260l2.8 52 74.6 24.6v-39.7L298.7 389l-.9-23.6z"/></g><g><path d="M422.4 232.1h-85.9v37.8h46.3l-2.9 37.8h-43.4v37.8H378l-2.8 42.5-38.7 13.2v39.7l74.6-24.6 6.6-108.6zM336.5 232.1v37.8h-84.1l-2.8-37.8h86.9zM293 307.7l1.9 37.8h41.6v-37.8H293zm3.8 56.7H259l2.8 52 74.6 24.6v-39.7L297.7 388l-.9-23.6z"/></g><g><path d="M421.4 231.1h-85.9v37.8h46.3l-2.9 37.8h-43.4v37.8H377l-2.8 42.5-38.7 13.2v39.7l74.6-24.6 6.6-108.6zM335.5 231.1v37.8h-84.1l-2.8-37.8h86.9zM292 306.7l1.9 37.8h41.6v-37.8H292zm3.8 56.7H258l2.8 52 74.6 24.6v-39.7L296.7 387l-.9-23.6z"/></g><g><path d="M420.4 230.1h-85.9v37.8h46.3l-2.9 37.8h-43.4v37.8H376l-2.8 42.5-38.7 13.2v39.7l74.6-24.6 6.6-108.6zM334.5 230.1v37.8h-84.1l-2.8-37.8h86.9zM291 305.7l1.9 37.8h41.6v-37.8H291zm3.8 56.7H257l2.8 52 74.6 24.6v-39.7L295.7 386l-.9-23.6z"/></g><g><path d="M419.4 229.1h-85.9v37.8h46.3l-2.9 37.8h-43.4v37.8H375l-2.8 42.5-38.7 13.2v39.7l74.6-24.6 6.6-108.6zM333.5 229.1v37.8h-84.1l-2.8-37.8h86.9zM290 304.7l1.9 37.8h41.6v-37.8H290zm3.8 56.7H256l2.8 52 74.6 24.6v-39.7L294.7 385l-.9-23.6z"/></g><g><path d="M418.4 228.1h-85.9v37.8h46.3l-2.9 37.8h-43.4v37.8H374l-2.8 42.5-38.7 13.2v39.7l74.6-24.6 6.6-108.6zM332.5 228.1v37.8h-84.1l-2.8-37.8h86.9zM289 303.7l1.9 37.8h41.6v-37.8H289zm3.8 56.7H255l2.8 52 74.6 24.6v-39.7L293.7 384l-.9-23.6z"/></g><g><path d="M417.4 227.1h-85.9v37.8h46.3l-2.9 37.8h-43.4v37.8H373l-2.8 42.5-38.7 13.2v39.7l74.6-24.6 6.6-108.6zM331.5 227.1v37.8h-84.1l-2.8-37.8h86.9zM288 302.7l1.9 37.8h41.6v-37.8H288zm3.8 56.7H254l2.8 52 74.6 24.6v-39.7L292.7 383l-.9-23.6z"/></g><g><path d="M416.4 226.1h-85.9v37.8h46.3l-2.9 37.8h-43.4v37.8H372l-2.8 42.5-38.7 13.2v39.7l74.6-24.6 6.6-108.6zM330.5 226.1v37.8h-84.1l-2.8-37.8h86.9zM287 301.7l1.9 37.8h41.6v-37.8H287zm3.8 56.7H253l2.8 52 74.6 24.6v-39.7L291.7 382l-.9-23.6z"/></g><g><path d="M415.4 225.1h-85.9v37.8h46.3l-2.9 37.8h-43.4v37.8H371l-2.8 42.5-38.7 13.2v39.7l74.6-24.6 6.6-108.6zM329.5 225.1v37.8h-84.1l-2.8-37.8h86.9zM286 300.7l1.9 37.8h41.6v-37.8H286zm3.8 56.7H252l2.8 52 74.6 24.6v-39.7L290.7 381l-.9-23.6z"/></g><g><path d="M414.4 224.1h-85.9v37.8h46.3l-2.9 37.8h-43.4v37.8H370l-2.8 42.5-38.7 13.2v39.7l74.6-24.6 6.6-108.6zM328.5 224.1v37.8h-84.1l-2.8-37.8h86.9zM285 299.7l1.9 37.8h41.6v-37.8H285zm3.8 56.7H251l2.8 52 74.6 24.6v-39.7L289.7 380l-.9-23.6z"/></g><g><path d="M413.4 223.1h-85.9v37.8h46.3l-2.9 37.8h-43.4v37.8H369l-2.8 42.5-38.7 13.2v39.7l74.6-24.6 6.6-108.6zM327.5 223.1v37.8h-84.1l-2.8-37.8h86.9zM284 298.7l1.9 37.8h41.6v-37.8H284zm3.8 56.7H250l2.8 52 74.6 24.6v-39.7L288.7 379l-.9-23.6z"/></g><g><path d="M412.4 222.1h-85.9v37.8h46.3l-2.9 37.8h-43.4v37.8H368l-2.8 42.5-38.7 13.2v39.7l74.6-24.6 6.6-108.6zM326.5 222.1v37.8h-84.1l-2.8-37.8h86.9zM283 297.7l1.9 37.8h41.6v-37.8H283zm3.8 56.7H249l2.8 52 74.6 24.6v-39.7L287.7 378l-.9-23.6z"/></g><g><path d="M411.4 221.1h-85.9v37.8h46.3l-2.9 37.8h-43.4v37.8H367l-2.8 42.5-38.7 13.2v39.7l74.6-24.6 6.6-108.6zM325.5 221.1v37.8h-84.1l-2.8-37.8h86.9zM282 296.7l1.9 37.8h41.6v-37.8H282zm3.8 56.7H248l2.8 52 74.6 24.6v-39.7L286.7 377l-.9-23.6z"/></g><g><path d="M410.4 220.1h-85.9v37.8h46.3l-2.9 37.8h-43.4v37.8H366l-2.8 42.5-38.7 13.2v39.7l74.6-24.6 6.6-108.6zM324.5 220.1v37.8h-84.1l-2.8-37.8h86.9zM281 295.7l1.9 37.8h41.6v-37.8H281zm3.8 56.7H247l2.8 52 74.6 24.6v-39.7L285.7 376l-.9-23.6z"/></g><g><path d="M409.4 219.1h-85.9v37.8h46.3l-2.9 37.8h-43.4v37.8H365l-2.8 42.5-38.7 13.2v39.7l74.6-24.6 6.6-108.6zM323.5 219.1v37.8h-84.1l-2.8-37.8h86.9zM280 294.7l1.9 37.8h41.6v-37.8H280zm3.8 56.7H246l2.8 52 74.6 24.6v-39.7L284.7 375l-.9-23.6z"/></g><g><path d="M408.4 218.1h-85.9v37.8h46.3l-2.9 37.8h-43.4v37.8H364l-2.8 42.5-38.7 13.2v39.7l74.6-24.6 6.6-108.6zM322.5 218.1v37.8h-84.1l-2.8-37.8h86.9zM279 293.7l1.9 37.8h41.6v-37.8H279zm3.8 56.7H245l2.8 52 74.6 24.6v-39.7L283.7 374l-.9-23.6z"/></g><g><path d="M407.4 217.1h-85.9v37.8h46.3l-2.9 37.8h-43.4v37.8H363l-2.8 42.5-38.7 13.2v39.7l74.6-24.6 6.6-108.6zM321.5 217.1v37.8h-84.1l-2.8-37.8h86.9zM278 292.7l1.9 37.8h41.6v-37.8H278zm3.8 56.7H244l2.8 52 74.6 24.6v-39.7L282.7 373l-.9-23.6z"/></g><g><path d="M406.4 216.1h-85.9v37.8h46.3l-2.9 37.8h-43.4v37.8H362l-2.8 42.5-38.7 13.2v39.7l74.6-24.6 6.6-108.6zM320.5 216.1v37.8h-84.1l-2.8-37.8h86.9zM277 291.7l1.9 37.8h41.6v-37.8H277zm3.8 56.7H243l2.8 52 74.6 24.6v-39.7L281.7 372l-.9-23.6z"/></g><g><path d="M405.4 215.1h-85.9v37.8h46.3l-2.9 37.8h-43.4v37.8H361l-2.8 42.5-38.7 13.2v39.7l74.6-24.6 6.6-108.6zM319.5 215.1v37.8h-84.1l-2.8-37.8h86.9zM276 290.7l1.9 37.8h41.6v-37.8H276zm3.8 56.7H242l2.8 52 74.6 24.6v-39.7L280.7 371l-.9-23.6z"/></g><g><path d="M404.4 214.1h-85.9v37.8h46.3l-2.9 37.8h-43.4v37.8H360l-2.8 42.5-38.7 13.2v39.7l74.6-24.6 6.6-108.6zM318.5 214.1v37.8h-84.1l-2.8-37.8h86.9zM275 289.7l1.9 37.8h41.6v-37.8H275zm3.8 56.7H241l2.8 52 74.6 24.6v-39.7L279.7 370l-.9-23.6z"/></g><g><path d="M403.4 213.1h-85.9v37.8h46.3l-2.9 37.8h-43.4v37.8H359l-2.8 42.5-38.7 13.2v39.7l74.6-24.6 6.6-108.6zM317.5 213.1v37.8h-84.1l-2.8-37.8h86.9zM274 288.7l1.9 37.8h41.6v-37.8H274zm3.8 56.7H240l2.8 52 74.6 24.6v-39.7L278.7 369l-.9-23.6z"/></g><g><path d="M402.4 212.1h-85.9v37.8h46.3l-2.9 37.8h-43.4v37.8H358l-2.8 42.5-38.7 13.2v39.7l74.6-24.6 6.6-108.6zM316.5 212.1v37.8h-84.1l-2.8-37.8h86.9zM273 287.7l1.9 37.8h41.6v-37.8H273zm3.8 56.7H239l2.8 52 74.6 24.6v-39.7L277.7 368l-.9-23.6z"/></g><g><path d="M401.4 211.1h-85.9v37.8h46.3l-2.9 37.8h-43.4v37.8H357l-2.8 42.5-38.7 13.2v39.7l74.6-24.6 6.6-108.6zM315.5 211.1v37.8h-84.1l-2.8-37.8h86.9zM272 286.7l1.9 37.8h41.6v-37.8H272zm3.8 56.7H238l2.8 52 74.6 24.6v-39.7L276.7 367l-.9-23.6z"/></g><g><path d="M400.4 210.1h-85.9v37.8h46.3l-2.9 37.8h-43.4v37.8H356l-2.8 42.5-38.7 13.2v39.7l74.6-24.6 6.6-108.6zM314.5 210.1v37.8h-84.1l-2.8-37.8h86.9zM271 285.7l1.9 37.8h41.6v-37.8H271zm3.8 56.7H237l2.8 52 74.6 24.6v-39.7L275.7 366l-.9-23.6z"/></g><g><path d="M399.4 209.1h-85.9v37.8h46.3l-2.9 37.8h-43.4v37.8H355l-2.8 42.5-38.7 13.2v39.7l74.6-24.6 6.6-108.6zM313.5 209.1v37.8h-84.1l-2.8-37.8h86.9zM270 284.7l1.9 37.8h41.6v-37.8H270zm3.8 56.7H236l2.8 52 74.6 24.6v-39.7L274.7 365l-.9-23.6z"/></g><g><path d="M398.4 208.1h-85.9v37.8h46.3l-2.9 37.8h-43.4v37.8H354l-2.8 42.5-38.7 13.2v39.7l74.6-24.6 6.6-108.6zM312.5 208.1v37.8h-84.1l-2.8-37.8h86.9zM269 283.7l1.9 37.8h41.6v-37.8H269zm3.8 56.7H235l2.8 52 74.6 24.6v-39.7L273.7 364l-.9-23.6z"/></g><g><path d="M397.4 207.1h-85.9v37.8h46.3l-2.9 37.8h-43.4v37.8H353l-2.8 42.5-38.7 13.2v39.7l74.6-24.6 6.6-108.6zM311.5 207.1v37.8h-84.1l-2.8-37.8h86.9zM268 282.7l1.9 37.8h41.6v-37.8H268zm3.8 56.7H234l2.8 52 74.6 24.6v-39.7L272.7 363l-.9-23.6z"/></g><g><path d="M396.4 206.1h-85.9v37.8h46.3l-2.9 37.8h-43.4v37.8H352l-2.8 42.5-38.7 13.2v39.7l74.6-24.6 6.6-108.6zM310.5 206.1v37.8h-84.1l-2.8-37.8h86.9zM267 281.7l1.9 37.8h41.6v-37.8H267zm3.8 56.7H233l2.8 52 74.6 24.6v-39.7L271.7 362l-.9-23.6z"/></g><g><path d="M395.4 205.1h-85.9v37.8h46.3l-2.9 37.8h-43.4v37.8H351l-2.8 42.5-38.7 13.2v39.7l74.6-24.6 6.6-108.6zM309.5 205.1v37.8h-84.1l-2.8-37.8h86.9zM266 280.7l1.9 37.8h41.6v-37.8H266zm3.8 56.7H232l2.8 52 74.6 24.6v-39.7L270.7 361l-.9-23.6z"/></g><g><path d="M394.4 204.1h-85.9v37.8h46.3l-2.9 37.8h-43.4v37.8H350l-2.8 42.5-38.7 13.2v39.7l74.6-24.6 6.6-108.6zM308.5 204.1v37.8h-84.1l-2.8-37.8h86.9zM265 279.7l1.9 37.8h41.6v-37.8H265zm3.8 56.7H231l2.8 52 74.6 24.6v-39.7L269.7 360l-.9-23.6z"/></g><g><path d="M393.4 203.1h-85.9v37.8h46.3l-2.9 37.8h-43.4v37.8H349l-2.8 42.5-38.7 13.2v39.7l74.6-24.6 6.6-108.6zM307.5 203.1v37.8h-84.1l-2.8-37.8h86.9zM264 278.7l1.9 37.8h41.6v-37.8H264zm3.8 56.7H230l2.8 52 74.6 24.6v-39.7L268.7 359l-.9-23.6z"/></g><g><path d="M392.4 202.1h-85.9v37.8h46.3l-2.9 37.8h-43.4v37.8H348l-2.8 42.5-38.7 13.2v39.7l74.6-24.6 6.6-108.6zM306.5 202.1v37.8h-84.1l-2.8-37.8h86.9zM263 277.7l1.9 37.8h41.6v-37.8H263zm3.8 56.7H229l2.8 52 74.6 24.6v-39.7L267.7 358l-.9-23.6z"/></g><g><path d="M391.4 201.1h-85.9v37.8h46.3l-2.9 37.8h-43.4v37.8H347l-2.8 42.5-38.7 13.2v39.7l74.6-24.6 6.6-108.6zM305.5 201.1v37.8h-84.1l-2.8-37.8h86.9zM262 276.7l1.9 37.8h41.6v-37.8H262zm3.8 56.7H228l2.8 52 74.6 24.6v-39.7L266.7 357l-.9-23.6z"/></g><g><path d="M390.4 200.1h-85.9v37.8h46.3l-2.9 37.8h-43.4v37.8H346l-2.8 42.5-38.7 13.2v39.7l74.6-24.6 6.6-108.6zM304.5 200.1v37.8h-84.1l-2.8-37.8h86.9zM261 275.7l1.9 37.8h41.6v-37.8H261zm3.8 56.7H227l2.8 52 74.6 24.6v-39.7L265.7 356l-.9-23.6z"/></g><g><path d="M389.4 199.1h-85.9v37.8h46.3l-2.9 37.8h-43.4v37.8H345l-2.8 42.5-38.7 13.2v39.7l74.6-24.6 6.6-108.6zM303.5 199.1v37.8h-84.1l-2.8-37.8h86.9zM260 274.7l1.9 37.8h41.6v-37.8H260zm3.8 56.7H226l2.8 52 74.6 24.6v-39.7L264.7 355l-.9-23.6z"/></g><g><path d="M388.4 198.1h-85.9v37.8h46.3l-2.9 37.8h-43.4v37.8H344l-2.8 42.5-38.7 13.2v39.7l74.6-24.6 6.6-108.6zM302.5 198.1v37.8h-84.1l-2.8-37.8h86.9zM259 273.7l1.9 37.8h41.6v-37.8H259zm3.8 56.7H225l2.8 52 74.6 24.6v-39.7L263.7 354l-.9-23.6z"/></g><g><path d="M387.4 197.1h-85.9v37.8h46.3l-2.9 37.8h-43.4v37.8H343l-2.8 42.5-38.7 13.2v39.7l74.6-24.6 6.6-108.6zM301.5 197.1v37.8h-84.1l-2.8-37.8h86.9zM258 272.7l1.9 37.8h41.6v-37.8H258zm3.8 56.7H224l2.8 52 74.6 24.6v-39.7L262.7 353l-.9-23.6z"/></g><g><path d="M386.4 196.1h-85.9v37.8h46.3l-2.9 37.8h-43.4v37.8H342l-2.8 42.5-38.7 13.2v39.7l74.6-24.6 6.6-108.6zM300.5 196.1v37.8h-84.1l-2.8-37.8h86.9zM257 271.7l1.9 37.8h41.6v-37.8H257zm3.8 56.7H223l2.8 52 74.6 24.6v-39.7L261.7 352l-.9-23.6z"/></g><g><path d="M385.4 195.1h-85.9v37.8h46.3l-2.9 37.8h-43.4v37.8H341l-2.8 42.5-38.7 13.2v39.7l74.6-24.6 6.6-108.6zM299.5 195.1v37.8h-84.1l-2.8-37.8h86.9zM256 270.7l1.9 37.8h41.6v-37.8H256zm3.8 56.7H222l2.8 52 74.6 24.6v-39.7L260.7 351l-.9-23.6z"/></g><g><path d="M384.4 194.1h-85.9v37.8h46.3l-2.9 37.8h-43.4v37.8H340l-2.8 42.5-38.7 13.2v39.7l74.6-24.6 6.6-108.6zM298.5 194.1v37.8h-84.1l-2.8-37.8h86.9zM255 269.7l1.9 37.8h41.6v-37.8H255zm3.8 56.7H221l2.8 52 74.6 24.6v-39.7L259.7 350l-.9-23.6z"/></g><g><path d="M383.4 193.1h-85.9v37.8h46.3l-2.9 37.8h-43.4v37.8H339l-2.8 42.5-38.7 13.2v39.7l74.6-24.6 6.6-108.6zM297.5 193.1v37.8h-84.1l-2.8-37.8h86.9zM254 268.7l1.9 37.8h41.6v-37.8H254zm3.8 56.7H220l2.8 52 74.6 24.6v-39.7L258.7 349l-.9-23.6z"/></g><g><path d="M382.4 192.1h-85.9v37.8h46.3l-2.9 37.8h-43.4v37.8H338l-2.8 42.5-38.7 13.2v39.7l74.6-24.6 6.6-108.6zM296.5 192.1v37.8h-84.1l-2.8-37.8h86.9zM253 267.7l1.9 37.8h41.6v-37.8H253zm3.8 56.7H219l2.8 52 74.6 24.6v-39.7L257.7 348l-.9-23.6z"/></g><g><path d="M381.4 191.1h-85.9v37.8h46.3l-2.9 37.8h-43.4v37.8H337l-2.8 42.5-38.7 13.2v39.7l74.6-24.6 6.6-108.6zM295.5 191.1v37.8h-84.1l-2.8-37.8h86.9zM252 266.7l1.9 37.8h41.6v-37.8H252zm3.8 56.7H218l2.8 52 74.6 24.6v-39.7L256.7 347l-.9-23.6z"/></g><g><path d="M380.4 190.1h-85.9v37.8h46.3l-2.9 37.8h-43.4v37.8H336l-2.8 42.5-38.7 13.2v39.7l74.6-24.6 6.6-108.6zM294.5 190.1v37.8h-84.1l-2.8-37.8h86.9zM251 265.7l1.9 37.8h41.6v-37.8H251zm3.8 56.7H217l2.8 52 74.6 24.6v-39.7L255.7 346l-.9-23.6z"/></g><g><path d="M379.4 189.1h-85.9v37.8h46.3l-2.9 37.8h-43.4v37.8H335l-2.8 42.5-38.7 13.2v39.7l74.6-24.6 6.6-108.6zM293.5 189.1v37.8h-84.1l-2.8-37.8h86.9zM250 264.7l1.9 37.8h41.6v-37.8H250zm3.8 56.7H216l2.8 52 74.6 24.6v-39.7L254.7 345l-.9-23.6z"/></g><g><path d="M378.4 188.1h-85.9v37.8h46.3l-2.9 37.8h-43.4v37.8H334l-2.8 42.5-38.7 13.2v39.7l74.6-24.6 6.6-108.6zM292.5 188.1v37.8h-84.1l-2.8-37.8h86.9zM249 263.7l1.9 37.8h41.6v-37.8H249zm3.8 56.7H215l2.8 52 74.6 24.6v-39.7L253.7 344l-.9-23.6z"/></g><g><path d="M377.4 187.1h-85.9v37.8h46.3l-2.9 37.8h-43.4v37.8H333l-2.8 42.5-38.7 13.2v39.7l74.6-24.6 6.6-108.6zM291.5 187.1v37.8h-84.1l-2.8-37.8h86.9zM248 262.7l1.9 37.8h41.6v-37.8H248zm3.8 56.7H214l2.8 52 74.6 24.6v-39.7L252.7 343l-.9-23.6z"/></g><g><path d="M376.4 186.1h-85.9v37.8h46.3l-2.9 37.8h-43.4v37.8H332l-2.8 42.5-38.7 13.2v39.7l74.6-24.6 6.6-108.6zM290.5 186.1v37.8h-84.1l-2.8-37.8h86.9zM247 261.7l1.9 37.8h41.6v-37.8H247zm3.8 56.7H213l2.8 52 74.6 24.6v-39.7L251.7 342l-.9-23.6z"/></g><g><path d="M375.4 185.1h-85.9v37.8h46.3l-2.9 37.8h-43.4v37.8H331l-2.8 42.5-38.7 13.2v39.7l74.6-24.6 6.6-108.6zM289.5 185.1v37.8h-84.1l-2.8-37.8h86.9zM246 260.7l1.9 37.8h41.6v-37.8H246zm3.8 56.7H212l2.8 52 74.6 24.6v-39.7L250.7 341l-.9-23.6z"/></g><g><path d="M374.4 184.1h-85.9v37.8h46.3l-2.9 37.8h-43.4v37.8H330l-2.8 42.5-38.7 13.2v39.7l74.6-24.6 6.6-108.6zM288.5 184.1v37.8h-84.1l-2.8-37.8h86.9zM245 259.7l1.9 37.8h41.6v-37.8H245zm3.8 56.7H211l2.8 52 74.6 24.6v-39.7L249.7 340l-.9-23.6z"/></g><g><path d="M373.4 183.1h-85.9v37.8h46.3l-2.9 37.8h-43.4v37.8H329l-2.8 42.5-38.7 13.2v39.7l74.6-24.6 6.6-108.6zM287.5 183.1v37.8h-84.1l-2.8-37.8h86.9zM244 258.7l1.9 37.8h41.6v-37.8H244zm3.8 56.7H210l2.8 52 74.6 24.6v-39.7L248.7 339l-.9-23.6z"/></g><g><path d="M372.4 182.1h-85.9v37.8h46.3l-2.9 37.8h-43.4v37.8H328l-2.8 42.5-38.7 13.2v39.7l74.6-24.6 6.6-108.6zM286.5 182.1v37.8h-84.1l-2.8-37.8h86.9zM243 257.7l1.9 37.8h41.6v-37.8H243zm3.8 56.7H209l2.8 52 74.6 24.6v-39.7L247.7 338l-.9-23.6z"/></g><g><path d="M371.4 181.1h-85.9v37.8h46.3l-2.9 37.8h-43.4v37.8H327l-2.8 42.5-38.7 13.2v39.7l74.6-24.6 6.6-108.6zM285.5 181.1v37.8h-84.1l-2.8-37.8h86.9zM242 256.7l1.9 37.8h41.6v-37.8H242zm3.8 56.7H208l2.8 52 74.6 24.6v-39.7L246.7 337l-.9-23.6z"/></g><g><path d="M370.4 180.1h-85.9v37.8h46.3l-2.9 37.8h-43.4v37.8H326l-2.8 42.5-38.7 13.2v39.7l74.6-24.6 6.6-108.6zM284.5 180.1v37.8h-84.1l-2.8-37.8h86.9zM241 255.7l1.9 37.8h41.6v-37.8H241zm3.8 56.7H207l2.8 52 74.6 24.6v-39.7L245.7 336l-.9-23.6z"/></g><g><path d="M369.4 179.1h-85.9v37.8h46.3l-2.9 37.8h-43.4v37.8H325l-2.8 42.5-38.7 13.2v39.7l74.6-24.6 6.6-108.6zM283.5 179.1v37.8h-84.1l-2.8-37.8h86.9zM240 254.7l1.9 37.8h41.6v-37.8H240zm3.8 56.7H206l2.8 52 74.6 24.6v-39.7L244.7 335l-.9-23.6z"/></g><g><path d="M368.4 178.1h-85.9v37.8h46.3l-2.9 37.8h-43.4v37.8H324l-2.8 42.5-38.7 13.2v39.7l74.6-24.6 6.6-108.6zM282.5 178.1v37.8h-84.1l-2.8-37.8h86.9zM239 253.7l1.9 37.8h41.6v-37.8H239zm3.8 56.7H205l2.8 52 74.6 24.6v-39.7L243.7 334l-.9-23.6z"/></g><g><path d="M367.4 177.1h-85.9v37.8h46.3l-2.9 37.8h-43.4v37.8H323l-2.8 42.5-38.7 13.2v39.7l74.6-24.6 6.6-108.6zM281.5 177.1v37.8h-84.1l-2.8-37.8h86.9zM238 252.7l1.9 37.8h41.6v-37.8H238zm3.8 56.7H204l2.8 52 74.6 24.6v-39.7L242.7 333l-.9-23.6z"/></g><g><path d="M366.4 176.1h-85.9v37.8h46.3l-2.9 37.8h-43.4v37.8H322l-2.8 42.5-38.7 13.2v39.7l74.6-24.6 6.6-108.6zM280.5 176.1v37.8h-84.1l-2.8-37.8h86.9zM237 251.7l1.9 37.8h41.6v-37.8H237zm3.8 56.7H203l2.8 52 74.6 24.6v-39.7L241.7 332l-.9-23.6z"/></g><g><path d="M365.4 175.1h-85.9v37.8h46.3l-2.9 37.8h-43.4v37.8H321l-2.8 42.5-38.7 13.2v39.7l74.6-24.6 6.6-108.6zM279.5 175.1v37.8h-84.1l-2.8-37.8h86.9zM236 250.7l1.9 37.8h41.6v-37.8H236zm3.8 56.7H202l2.8 52 74.6 24.6v-39.7L240.7 331l-.9-23.6z"/></g><g><path d="M364.4 174.1h-85.9v37.8h46.3l-2.9 37.8h-43.4v37.8H320l-2.8 42.5-38.7 13.2v39.7l74.6-24.6 6.6-108.6zM278.5 174.1v37.8h-84.1l-2.8-37.8h86.9zM235 249.7l1.9 37.8h41.6v-37.8H235zm3.8 56.7H201l2.8 52 74.6 24.6v-39.7L239.7 330l-.9-23.6z"/></g><g><path d="M363.4 173.1h-85.9v37.8h46.3l-2.9 37.8h-43.4v37.8H319l-2.8 42.5-38.7 13.2v39.7l74.6-24.6 6.6-108.6zM277.5 173.1v37.8h-84.1l-2.8-37.8h86.9zM234 248.7l1.9 37.8h41.6v-37.8H234zm3.8 56.7H200l2.8 52 74.6 24.6v-39.7L238.7 329l-.9-23.6z"/></g><g><path d="M362.4 172.1h-85.9v37.8h46.3l-2.9 37.8h-43.4v37.8H318l-2.8 42.5-38.7 13.2v39.7l74.6-24.6 6.6-108.6zM276.5 172.1v37.8h-84.1l-2.8-37.8h86.9zM233 247.7l1.9 37.8h41.6v-37.8H233zm3.8 56.7H199l2.8 52 74.6 24.6v-39.7L237.7 328l-.9-23.6z"/></g><g><path d="M361.4 171.1h-85.9v37.8h46.3l-2.9 37.8h-43.4v37.8H317l-2.8 42.5-38.7 13.2v39.7l74.6-24.6 6.6-108.6zM275.5 171.1v37.8h-84.1l-2.8-37.8h86.9zM232 246.7l1.9 37.8h41.6v-37.8H232zm3.8 56.7H198l2.8 52 74.6 24.6v-39.7L236.7 327l-.9-23.6z"/></g><g><path d="M360.4 170.1h-85.9v37.8h46.3l-2.9 37.8h-43.4v37.8H316l-2.8 42.5-38.7 13.2v39.7l74.6-24.6 6.6-108.6zM274.5 170.1v37.8h-84.1l-2.8-37.8h86.9zM231 245.7l1.9 37.8h41.6v-37.8H231zm3.8 56.7H197l2.8 52 74.6 24.6v-39.7L235.7 326l-.9-23.6z"/></g><g><path d="M359.4 169.1h-85.9v37.8h46.3l-2.9 37.8h-43.4v37.8H315l-2.8 42.5-38.7 13.2v39.7l74.6-24.6 6.6-108.6zM273.5 169.1v37.8h-84.1l-2.8-37.8h86.9zM230 244.7l1.9 37.8h41.6v-37.8H230zm3.8 56.7H196l2.8 52 74.6 24.6v-39.7L234.7 325l-.9-23.6z"/></g><g><path d="M358.4 168.1h-85.9v37.8h46.3l-2.9 37.8h-43.4v37.8H314l-2.8 42.5-38.7 13.2v39.7l74.6-24.6 6.6-108.6zM272.5 168.1v37.8h-84.1l-2.8-37.8h86.9zM229 243.7l1.9 37.8h41.6v-37.8H229zm3.8 56.7H195l2.8 52 74.6 24.6v-39.7L233.7 324l-.9-23.6z"/></g><g><path d="M357.4 167.1h-85.9v37.8h46.3l-2.9 37.8h-43.4v37.8H313l-2.8 42.5-38.7 13.2v39.7l74.6-24.6 6.6-108.6zM271.5 167.1v37.8h-84.1l-2.8-37.8h86.9zM228 242.7l1.9 37.8h41.6v-37.8H228zm3.8 56.7H194l2.8 52 74.6 24.6v-39.7L232.7 323l-.9-23.6z"/></g><g><path d="M356.4 166.1h-85.9v37.8h46.3l-2.9 37.8h-43.4v37.8H312l-2.8 42.5-38.7 13.2v39.7l74.6-24.6 6.6-108.6zM270.5 166.1v37.8h-84.1l-2.8-37.8h86.9zM227 241.7l1.9 37.8h41.6v-37.8H227zm3.8 56.7H193l2.8 52 74.6 24.6v-39.7L231.7 322l-.9-23.6z"/></g><g><path d="M355.4 165.1h-85.9v37.8h46.3l-2.9 37.8h-43.4v37.8H311l-2.8 42.5-38.7 13.2v39.7l74.6-24.6 6.6-108.6zM269.5 165.1v37.8h-84.1l-2.8-37.8h86.9zM226 240.7l1.9 37.8h41.6v-37.8H226zm3.8 56.7H192l2.8 52 74.6 24.6v-39.7L230.7 321l-.9-23.6z"/></g><g><path d="M354.4 164.1h-85.9v37.8h46.3l-2.9 37.8h-43.4v37.8H310l-2.8 42.5-38.7 13.2v39.7l74.6-24.6 6.6-108.6zM268.5 164.1v37.8h-84.1l-2.8-37.8h86.9zM225 239.7l1.9 37.8h41.6v-37.8H225zm3.8 56.7H191l2.8 52 74.6 24.6v-39.7L229.7 320l-.9-23.6z"/></g><g><path d="M353.4 163.1h-85.9v37.8h46.3l-2.9 37.8h-43.4v37.8H309l-2.8 42.5-38.7 13.2v39.7l74.6-24.6 6.6-108.6zM267.5 163.1v37.8h-84.1l-2.8-37.8h86.9zM224 238.7l1.9 37.8h41.6v-37.8H224zm3.8 56.7H190l2.8 52 74.6 24.6v-39.7L228.7 319l-.9-23.6z"/></g><g><path d="M352.4 162.1h-85.9v37.8h46.3l-2.9 37.8h-43.4v37.8H308l-2.8 42.5-38.7 13.2v39.7l74.6-24.6 6.6-108.6zM266.5 162.1v37.8h-84.1l-2.8-37.8h86.9zM223 237.7l1.9 37.8h41.6v-37.8H223zm3.8 56.7H189l2.8 52 74.6 24.6v-39.7L227.7 318l-.9-23.6z"/></g><g><path d="M351.4 161.1h-85.9v37.8h46.3l-2.9 37.8h-43.4v37.8H307l-2.8 42.5-38.7 13.2v39.7l74.6-24.6 6.6-108.6zM265.5 161.1v37.8h-84.1l-2.8-37.8h86.9zM222 236.7l1.9 37.8h41.6v-37.8H222zm3.8 56.7H188l2.8 52 74.6 24.6v-39.7L226.7 317l-.9-23.6z"/></g><g><path d="M350.4 160.1h-85.9v37.8h46.3l-2.9 37.8h-43.4v37.8H306l-2.8 42.5-38.7 13.2v39.7l74.6-24.6 6.6-108.6zM264.5 160.1v37.8h-84.1l-2.8-37.8h86.9zM221 235.7l1.9 37.8h41.6v-37.8H221zm3.8 56.7H187l2.8 52 74.6 24.6v-39.7L225.7 316l-.9-23.6z"/></g><g><path d="M349.4 159.1h-85.9v37.8h46.3l-2.9 37.8h-43.4v37.8H305l-2.8 42.5-38.7 13.2v39.7l74.6-24.6 6.6-108.6zM263.5 159.1v37.8h-84.1l-2.8-37.8h86.9zM220 234.7l1.9 37.8h41.6v-37.8H220zm3.8 56.7H186l2.8 52 74.6 24.6v-39.7L224.7 315l-.9-23.6z"/></g><g><path d="M348.4 158.1h-85.9v37.8h46.3l-2.9 37.8h-43.4v37.8H304l-2.8 42.5-38.7 13.2v39.7l74.6-24.6 6.6-108.6zM262.5 158.1v37.8h-84.1l-2.8-37.8h86.9zM219 233.7l1.9 37.8h41.6v-37.8H219zm3.8 56.7H185l2.8 52 74.6 24.6v-39.7L223.7 314l-.9-23.6z"/></g><g><path d="M347.4 157.1h-85.9v37.8h46.3l-2.9 37.8h-43.4v37.8H303l-2.8 42.5-38.7 13.2v39.7l74.6-24.6 6.6-108.6zM261.5 157.1v37.8h-84.1l-2.8-37.8h86.9zM218 232.7l1.9 37.8h41.6v-37.8H218zm3.8 56.7H184l2.8 52 74.6 24.6v-39.7L222.7 313l-.9-23.6z"/></g><g><path d="M346.4 156.1h-85.9v37.8h46.3l-2.9 37.8h-43.4v37.8H302l-2.8 42.5-38.7 13.2v39.7l74.6-24.6 6.6-108.6zM260.5 156.1v37.8h-84.1l-2.8-37.8h86.9zM217 231.7l1.9 37.8h41.6v-37.8H217zm3.8 56.7H183l2.8 52 74.6 24.6v-39.7L221.7 312l-.9-23.6z"/></g><g><path d="M345.4 155.1h-85.9v37.8h46.3l-2.9 37.8h-43.4v37.8H301l-2.8 42.5-38.7 13.2v39.7l74.6-24.6 6.6-108.6zM259.5 155.1v37.8h-84.1l-2.8-37.8h86.9zM216 230.7l1.9 37.8h41.6v-37.8H216zm3.8 56.7H182l2.8 52 74.6 24.6v-39.7L220.7 311l-.9-23.6z"/></g><g><path d="M344.4 154.1h-85.9v37.8h46.3l-2.9 37.8h-43.4v37.8H300l-2.8 42.5-38.7 13.2v39.7l74.6-24.6 6.6-108.6zM258.5 154.1v37.8h-84.1l-2.8-37.8h86.9zM215 229.7l1.9 37.8h41.6v-37.8H215zm3.8 56.7H181l2.8 52 74.6 24.6v-39.7L219.7 310l-.9-23.6z"/></g><g><path d="M343.4 153.1h-85.9v37.8h46.3l-2.9 37.8h-43.4v37.8H299l-2.8 42.5-38.7 13.2v39.7l74.6-24.6 6.6-108.6zM257.5 153.1v37.8h-84.1l-2.8-37.8h86.9zM214 228.7l1.9 37.8h41.6v-37.8H214zm3.8 56.7H180l2.8 52 74.6 24.6v-39.7L218.7 309l-.9-23.6z"/></g><g><path d="M342.4 152.1h-85.9v37.8h46.3l-2.9 37.8h-43.4v37.8H298l-2.8 42.5-38.7 13.2v39.7l74.6-24.6 6.6-108.6zM256.5 152.1v37.8h-84.1l-2.8-37.8h86.9zM213 227.7l1.9 37.8h41.6v-37.8H213zm3.8 56.7H179l2.8 52 74.6 24.6v-39.7L217.7 308l-.9-23.6z"/></g></g></g><g><defs><circle id="g" cx="256" cy="256.5" r="256"/></defs><clipPath id="h"><use xlink:href="#g" overflow="visible"/></clipPath><path d="M342 152.6h-86v37.8h46.3l-2.8 37.8H256V266h41.6l-2.8 42.5-38.8 13.2v39.7l74.6-24.6 6.6-108.6 4.8-75.6z" clip-path="url(#h)" fill="#fff"/></g><g><defs><circle id="i" cx="256" cy="256.5" r="256"/></defs><clipPath id="j"><use xlink:href="#i" overflow="visible"/></clipPath><path d="M256 152.6v37.8h-84.1l-2.8-37.8H256zm-43.5 75.6l1.9 37.8H256v-37.8h-43.5zm3.8 56.6h-37.8l2.8 52 74.6 24.6v-39.7l-38.7-13.2-.9-23.7z" clip-path="url(#j)" fill="#eee"/></g></svg>