<svg xmlns="http://www.w3.org/2000/svg" xmlns:xlink="http://www.w3.org/1999/xlink" viewBox="0 0 512 512"><style>.st4{fill:#76c8da}.st10{fill:#fff}</style><g id="圖層_2"><circle cx="256" cy="256" r="256" fill="#b3b3b3"/><defs><circle id="SVGID_1_" cx="256" cy="256.5" r="256"/></defs><clipPath id="SVGID_2_"><use xlink:href="#SVGID_1_" overflow="visible"/></clipPath><g clip-path="url(#SVGID_2_)"><path fill="#e44d26" d="M382.9 400.3L256 435l-126.9-34.7L99.8 78h312.4z"/><path fill="#ff6c39" d="M256 100.3v309.6l103-30.6 27.4-279z"/><g opacity=".3"><path d="M549.5 345h-187l4.4 44.6 6.9 78.1h121.4l-3.9 44.5-35.1 11.2-35.1-11.2-2.3-22.2h-42.9l5.1 55.7 75.2 22.3 75-22.4 11.1-122.5H414.4l-2.8-33.5h133.8z"/><path d="M548.5 344h-187l4.4 44.6 6.9 78.1h121.4l-3.9 44.5-35.1 11.2-35.1-11.2-2.3-22.2h-42.9l5.1 55.7 75.2 22.3 75-22.4 11.1-122.5H413.4l-2.8-33.5h133.8z"/><path d="M547.5 343h-187l4.4 44.6 6.9 78.1h121.4l-3.9 44.5-35.1 11.2-35.1-11.2-2.3-22.2h-42.9l5.1 55.7 75.2 22.3 75-22.4 11.1-122.5H412.4l-2.8-33.5h133.8z"/><path d="M546.5 342h-187l4.4 44.6 6.9 78.1h121.4l-3.9 44.5-35.1 11.2-35.1-11.2-2.3-22.2h-42.9l5.1 55.7 75.2 22.3 75-22.4 11.1-122.5H411.4l-2.8-33.5h133.8z"/><path d="M545.5 341h-187l4.4 44.6 6.9 78.1h121.4l-3.9 44.5-35.1 11.2-35.1-11.2-2.3-22.2h-42.9l5.1 55.7 75.2 22.3 75-22.4 11.1-122.5H410.4l-2.8-33.5h133.8z"/><path d="M544.5 340h-187l4.4 44.6 6.9 78.1h121.4l-3.9 44.5-35.1 11.2-35.1-11.2-2.3-22.2h-42.9l5.1 55.7 75.2 22.3 75-22.4 11.1-122.5H409.4l-2.8-33.5h133.8z"/><path d="M543.5 339h-187l4.4 44.6 6.9 78.1h121.4l-3.9 44.5-35.1 11.2-35.1-11.2-2.3-22.2h-42.9l5.1 55.7 75.2 22.3 75-22.4 11.1-122.5H408.4l-2.8-33.5h133.8z"/><path d="M542.5 338h-187l4.4 44.6 6.9 78.1h121.4l-3.9 44.5-35.1 11.2-35.1-11.2-2.3-22.2h-42.9l5.1 55.7 75.2 22.3 75-22.4 11.1-122.5H407.4l-2.8-33.5h133.8z"/><path d="M541.5 337h-187l4.4 44.6 6.9 78.1h121.4l-3.9 44.5-35.1 11.2-35.1-11.2-2.3-22.2h-42.9l5.1 55.7 75.2 22.3 75-22.4 11.1-122.5H406.4l-2.8-33.5h133.8z"/><path d="M540.5 336h-187l4.4 44.6 6.9 78.1h121.4l-3.9 44.5-35.1 11.2-35.1-11.2-2.3-22.2h-42.9l5.1 55.7 75.2 22.3 75-22.4 11.1-122.5H405.4l-2.8-33.5h133.8z"/><path d="M539.5 335h-187l4.4 44.6 6.9 78.1h121.4l-3.9 44.5-35.1 11.2-35.1-11.2-2.3-22.2h-42.9l5.1 55.7 75.2 22.3 75-22.4 11.1-122.5H404.4l-2.8-33.5h133.8z"/><path d="M538.5 334h-187l4.4 44.6 6.9 78.1h121.4l-3.9 44.5-35.1 11.2-35.1-11.2-2.3-22.2h-42.9l5.1 55.7 75.2 22.3 75-22.4 11.1-122.5H403.4l-2.8-33.5h133.8z"/><path d="M537.5 333h-187l4.4 44.6 6.9 78.1h121.4l-3.9 44.5-35.1 11.2-35.1-11.2-2.3-22.2h-42.9l5.1 55.7 75.2 22.3 75-22.4 11.1-122.5H402.4l-2.8-33.5h133.8z"/><path d="M536.5 332h-187l4.4 44.6 6.9 78.1h121.4l-3.9 44.5-35.1 11.2-35.1-11.2-2.3-22.2h-42.9l5.1 55.7 75.2 22.3 75-22.4 11.1-122.5H401.4l-2.8-33.5h133.8z"/><path d="M535.5 331h-187l4.4 44.6 6.9 78.1h121.4l-3.9 44.5-35.1 11.2-35.1-11.2-2.3-22.2h-42.9l5.1 55.7 75.2 22.3 75-22.4 11.1-122.5H400.4l-2.8-33.5h133.8z"/><path d="M534.5 330h-187l4.4 44.6 6.9 78.1h121.4l-3.9 44.5-35.1 11.2-35.1-11.2-2.3-22.2h-42.9l5.1 55.7 75.2 22.3 75-22.4 11.1-122.5H399.4l-2.8-33.5h133.8z"/><path d="M533.5 329h-187l4.4 44.6 6.9 78.1h121.4l-3.9 44.5-35.1 11.2-35.1-11.2-2.3-22.2h-42.9l5.1 55.7 75.2 22.3 75-22.4 11.1-122.5H398.4l-2.8-33.5h133.8z"/><path d="M532.5 328h-187l4.4 44.6 6.9 78.1h121.4l-3.9 44.5-35.1 11.2-35.1-11.2-2.3-22.2h-42.9l5.1 55.7 75.2 22.3 75-22.4 11.1-122.5H397.4l-2.8-33.5h133.8z"/><path d="M531.5 327h-187l4.4 44.6 6.9 78.1h121.4l-3.9 44.5-35.1 11.2-35.1-11.2-2.3-22.2h-42.9l5.1 55.7 75.2 22.3 75-22.4 11.1-122.5H396.4l-2.8-33.5h133.8z"/><path d="M530.5 326h-187l4.4 44.6 6.9 78.1h121.4l-3.9 44.5-35.1 11.2-35.1-11.2-2.3-22.2h-42.9l5.1 55.7 75.2 22.3 75-22.4 11.1-122.5H395.4l-2.8-33.5h133.8z"/><path d="M529.5 325h-187l4.4 44.6 6.9 78.1h121.4l-3.9 44.5-35.1 11.2-35.1-11.2-2.3-22.2h-42.9l5.1 55.7 75.2 22.3 75-22.4 11.1-122.5H394.4l-2.8-33.5h133.8z"/><path d="M528.5 324h-187l4.4 44.6 6.9 78.1h121.4l-3.9 44.5-35.1 11.2-35.1-11.2-2.3-22.2h-42.9l5.1 55.7 75.2 22.3 75-22.4 11.1-122.5H393.4l-2.8-33.5h133.8z"/><path d="M527.5 323h-187l4.4 44.6 6.9 78.1h121.4l-3.9 44.5-35.1 11.2-35.1-11.2-2.3-22.2h-42.9l5.1 55.7 75.2 22.3 75-22.4 11.1-122.5H392.4l-2.8-33.5h133.8z"/><path d="M526.5 322h-187l4.4 44.6 6.9 78.1h121.4l-3.9 44.5-35.1 11.2-35.1-11.2-2.3-22.2h-42.9l5.1 55.7 75.2 22.3 75-22.4 11.1-122.5H391.4l-2.8-33.5h133.8z"/><path d="M525.5 321h-187l4.4 44.6 6.9 78.1h121.4l-3.9 44.5-35.1 11.2-35.1-11.2-2.3-22.2h-42.9l5.1 55.7 75.2 22.3 75-22.4 11.1-122.5H390.4l-2.8-33.5h133.8z"/><path d="M524.5 320h-187l4.4 44.6 6.9 78.1h121.4l-3.9 44.5-35.1 11.2-35.1-11.2-2.3-22.2h-42.9l5.1 55.7 75.2 22.3 75-22.4 11.1-122.5H389.4l-2.8-33.5h133.8z"/><path d="M523.5 319h-187l4.4 44.6 6.9 78.1h121.4l-3.9 44.5-35.1 11.2-35.1-11.2-2.3-22.2h-42.9l5.1 55.7 75.2 22.3 75-22.4 11.1-122.5H388.4l-2.8-33.5h133.8z"/><path d="M522.5 318h-187l4.4 44.6 6.9 78.1h121.4l-3.9 44.5-35.1 11.2-35.1-11.2-2.3-22.2h-42.9l5.1 55.7 75.2 22.3 75-22.4 11.1-122.5H387.4l-2.8-33.5h133.8z"/><path d="M521.5 317h-187l4.4 44.6 6.9 78.1h121.4l-3.9 44.5-35.1 11.2-35.1-11.2-2.3-22.2h-42.9l5.1 55.7 75.2 22.3 75-22.4 11.1-122.5H386.4l-2.8-33.5h133.8z"/><path d="M520.5 316h-187l4.4 44.6 6.9 78.1h121.4l-3.9 44.5-35.1 11.2-35.1-11.2-2.3-22.2h-42.9l5.1 55.7 75.2 22.3 75-22.4 11.1-122.5H385.4l-2.8-33.5h133.8z"/><path d="M519.5 315h-187l4.4 44.6 6.9 78.1h121.4l-3.9 44.5-35.1 11.2-35.1-11.2-2.3-22.2h-42.9l5.1 55.7 75.2 22.3 75-22.4 11.1-122.5H384.4l-2.8-33.5h133.8z"/><path d="M518.5 314h-187l4.4 44.6 6.9 78.1h121.4l-3.9 44.5-35.1 11.2-35.1-11.2-2.3-22.2h-42.9l5.1 55.7 75.2 22.3 75-22.4 11.1-122.5H383.4l-2.8-33.5h133.8z"/><path d="M517.5 313h-187l4.4 44.6 6.9 78.1h121.4l-3.9 44.5-35.1 11.2-35.1-11.2-2.3-22.2h-42.9l5.1 55.7 75.2 22.3 75-22.4 11.1-122.5H382.4l-2.8-33.5h133.8z"/><path d="M516.5 312h-187l4.4 44.6 6.9 78.1h121.4l-3.9 44.5-35.1 11.2-35.1-11.2-2.3-22.2h-42.9l5.1 55.7 75.2 22.3 75-22.4 11.1-122.5H381.4l-2.8-33.5h133.8z"/><path d="M515.5 311h-187l4.4 44.6 6.9 78.1h121.4l-3.9 44.5-35.1 11.2-35.1-11.2-2.3-22.2h-42.9l5.1 55.7 75.2 22.3 75-22.4 11.1-122.5H380.4l-2.8-33.5h133.8z"/><path d="M514.5 310h-187l4.4 44.6 6.9 78.1h121.4l-3.9 44.5-35.1 11.2-35.1-11.2-2.3-22.2h-42.9l5.1 55.7 75.2 22.3 75-22.4 11.1-122.5H379.4l-2.8-33.5h133.8z"/><path d="M513.5 309h-187l4.4 44.6 6.9 78.1h121.4l-3.9 44.5-35.1 11.2-35.1-11.2-2.3-22.2h-42.9l5.1 55.7 75.2 22.3 75-22.4 11.1-122.5H378.4l-2.8-33.5h133.8z"/><path d="M512.5 308h-187l4.4 44.6 6.9 78.1h121.4l-3.9 44.5-35.1 11.2-35.1-11.2-2.3-22.2h-42.9l5.1 55.7 75.2 22.3 75-22.4 11.1-122.5H377.4l-2.8-33.5h133.8z"/><path d="M511.5 307h-187l4.4 44.6 6.9 78.1h121.4l-3.9 44.5-35.1 11.2-35.1-11.2-2.3-22.2h-42.9l5.1 55.7 75.2 22.3 75-22.4 11.1-122.5H376.4l-2.8-33.5h133.8z"/><path d="M510.5 306h-187l4.4 44.6 6.9 78.1h121.4l-3.9 44.5-35.1 11.2-35.1-11.2-2.3-22.2h-42.9l5.1 55.7 75.2 22.3 75-22.4 11.1-122.5H375.4l-2.8-33.5h133.8z"/><path d="M509.5 305h-187l4.4 44.6 6.9 78.1h121.4l-3.9 44.5-35.1 11.2-35.1-11.2-2.3-22.2h-42.9l5.1 55.7 75.2 22.3 75-22.4 11.1-122.5H374.4l-2.8-33.5h133.8z"/><path d="M508.5 304h-187l4.4 44.6 6.9 78.1h121.4l-3.9 44.5-35.1 11.2-35.1-11.2-2.3-22.2h-42.9l5.1 55.7 75.2 22.3 75-22.4 11.1-122.5H373.4l-2.8-33.5h133.8z"/><path d="M507.5 303h-187l4.4 44.6 6.9 78.1h121.4l-3.9 44.5-35.1 11.2-35.1-11.2-2.3-22.2h-42.9l5.1 55.7 75.2 22.3 75-22.4 11.1-122.5H372.4l-2.8-33.5h133.8z"/><path d="M506.5 302h-187l4.4 44.6 6.9 78.1h121.4l-3.9 44.5-35.1 11.2-35.1-11.2-2.3-22.2h-42.9l5.1 55.7 75.2 22.3 75-22.4 11.1-122.5H371.4l-2.8-33.5h133.8z"/><path d="M505.5 301h-187l4.4 44.6 6.9 78.1h121.4l-3.9 44.5-35.1 11.2-35.1-11.2-2.3-22.2h-42.9l5.1 55.7 75.2 22.3 75-22.4 11.1-122.5H370.4l-2.8-33.5h133.8z"/><path d="M504.5 300h-187l4.4 44.6 6.9 78.1h121.4l-3.9 44.5-35.1 11.2-35.1-11.2-2.3-22.2h-42.9l5.1 55.7 75.2 22.3 75-22.4 11.1-122.5H369.4l-2.8-33.5h133.8z"/><path d="M503.5 299h-187l4.4 44.6 6.9 78.1h121.4l-3.9 44.5-35.1 11.2-35.1-11.2-2.3-22.2h-42.9l5.1 55.7 75.2 22.3 75-22.4 11.1-122.5H368.4l-2.8-33.5h133.8z"/><path d="M502.5 298h-187l4.4 44.6 6.9 78.1h121.4l-3.9 44.5-35.1 11.2-35.1-11.2-2.3-22.2h-42.9l5.1 55.7 75.2 22.3 75-22.4 11.1-122.5H367.4l-2.8-33.5h133.8z"/><path d="M501.5 297h-187l4.4 44.6 6.9 78.1h121.4l-3.9 44.5-35.1 11.2-35.1-11.2-2.3-22.2h-42.9l5.1 55.7 75.2 22.3 75-22.4 11.1-122.5H366.4l-2.8-33.5h133.8z"/><path d="M500.5 296h-187l4.4 44.6 6.9 78.1h121.4l-3.9 44.5-35.1 11.2-35.1-11.2-2.3-22.2h-42.9l5.1 55.7 75.2 22.3 75-22.4 11.1-122.5H365.4l-2.8-33.5h133.8z"/><path d="M499.5 295h-187l4.4 44.6 6.9 78.1h121.4l-3.9 44.5-35.1 11.2-35.1-11.2-2.3-22.2h-42.9l5.1 55.7 75.2 22.3 75-22.4 11.1-122.5H364.4l-2.8-33.5h133.8z"/><path d="M498.5 294h-187l4.4 44.6 6.9 78.1h121.4l-3.9 44.5-35.1 11.2-35.1-11.2-2.3-22.2h-42.9l5.1 55.7 75.2 22.3 75-22.4 11.1-122.5H363.4l-2.8-33.5h133.8z"/><path d="M497.5 293h-187l4.4 44.6 6.9 78.1h121.4l-3.9 44.5-35.1 11.2-35.1-11.2-2.3-22.2h-42.9l5.1 55.7 75.2 22.3 75-22.4 11.1-122.5H362.4l-2.8-33.5h133.8z"/><path d="M496.5 292h-187l4.4 44.6 6.9 78.1h121.4l-3.9 44.5-35.1 11.2-35.1-11.2-2.3-22.2h-42.9l5.1 55.7 75.2 22.3 75-22.4 11.1-122.5H361.4l-2.8-33.5h133.8z"/><path d="M495.5 291h-187l4.4 44.6 6.9 78.1h121.4l-3.9 44.5-35.1 11.2-35.1-11.2-2.3-22.2h-42.9l5.1 55.7 75.2 22.3 75-22.4 11.1-122.5H360.4l-2.8-33.5h133.8z"/><path d="M494.5 290h-187l4.4 44.6 6.9 78.1h121.4l-3.9 44.5-35.1 11.2-35.1-11.2-2.3-22.2h-42.9l5.1 55.7 75.2 22.3 75-22.4 11.1-122.5H359.4l-2.8-33.5h133.8z"/><path d="M493.5 289h-187l4.4 44.6 6.9 78.1h121.4l-3.9 44.5-35.1 11.2-35.1-11.2-2.3-22.2h-42.9l5.1 55.7 75.2 22.3 75-22.4 11.1-122.5H358.4l-2.8-33.5h133.8z"/><path d="M492.5 288h-187l4.4 44.6 6.9 78.1h121.4l-3.9 44.5-35.1 11.2-35.1-11.2-2.3-22.2h-42.9l5.1 55.7 75.2 22.3 75-22.4 11.1-122.5H357.4l-2.8-33.5h133.8z"/><path d="M491.5 287h-187l4.4 44.6 6.9 78.1h121.4l-3.9 44.5-35.1 11.2-35.1-11.2-2.3-22.2h-42.9l5.1 55.7 75.2 22.3 75-22.4 11.1-122.5H356.4l-2.8-33.5h133.8z"/><path d="M490.5 286h-187l4.4 44.6 6.9 78.1h121.4l-3.9 44.5-35.1 11.2-35.1-11.2-2.3-22.2h-42.9l5.1 55.7 75.2 22.3 75-22.4 11.1-122.5H355.4l-2.8-33.5h133.8z"/><path d="M489.5 285h-187l4.4 44.6 6.9 78.1h121.4l-3.9 44.5-35.1 11.2-35.1-11.2-2.3-22.2h-42.9l5.1 55.7 75.2 22.3 75-22.4 11.1-122.5H354.4l-2.8-33.5h133.8z"/><path d="M488.5 284h-187l4.4 44.6 6.9 78.1h121.4l-3.9 44.5-35.1 11.2-35.1-11.2-2.3-22.2h-42.9l5.1 55.7 75.2 22.3 75-22.4 11.1-122.5H353.4l-2.8-33.5h133.8z"/><path d="M487.5 283h-187l4.4 44.6 6.9 78.1h121.4l-3.9 44.5-35.1 11.2-35.1-11.2-2.3-22.2h-42.9l5.1 55.7 75.2 22.3 75-22.4 11.1-122.5H352.4l-2.8-33.5h133.8z"/><path d="M486.5 282h-187l4.4 44.6 6.9 78.1h121.4l-3.9 44.5-35.1 11.2-35.1-11.2-2.3-22.2h-42.9l5.1 55.7 75.2 22.3 75-22.4 11.1-122.5H351.4l-2.8-33.5h133.8z"/><path d="M485.5 281h-187l4.4 44.6 6.9 78.1h121.4l-3.9 44.5-35.1 11.2-35.1-11.2-2.3-22.2h-42.9l5.1 55.7 75.2 22.3 75-22.4 11.1-122.5H350.4l-2.8-33.5h133.8z"/><path d="M484.5 280h-187l4.4 44.6 6.9 78.1h121.4l-3.9 44.5-35.1 11.2-35.1-11.2-2.3-22.2h-42.9l5.1 55.7 75.2 22.3 75-22.4 11.1-122.5H349.4l-2.8-33.5h133.8z"/><path d="M483.5 279h-187l4.4 44.6 6.9 78.1h121.4l-3.9 44.5-35.1 11.2-35.1-11.2-2.3-22.2h-42.9l5.1 55.7 75.2 22.3 75-22.4 11.1-122.5H348.4l-2.8-33.5h133.8z"/><path d="M482.5 278h-187l4.4 44.6 6.9 78.1h121.4l-3.9 44.5-35.1 11.2-35.1-11.2-2.3-22.2h-42.9l5.1 55.7 75.2 22.3 75-22.4 11.1-122.5H347.4l-2.8-33.5h133.8z"/><path d="M481.5 277h-187l4.4 44.6 6.9 78.1h121.4l-3.9 44.5-35.1 11.2-35.1-11.2-2.3-22.2h-42.9l5.1 55.7 75.2 22.3 75-22.4 11.1-122.5H346.4l-2.8-33.5h133.8z"/><path d="M480.5 276h-187l4.4 44.6 6.9 78.1h121.4l-3.9 44.5-35.1 11.2-35.1-11.2-2.3-22.2h-42.9l5.1 55.7 75.2 22.3 75-22.4 11.1-122.5H345.4l-2.8-33.5h133.8z"/><path d="M479.5 275h-187l4.4 44.6 6.9 78.1h121.4l-3.9 44.5-35.1 11.2-35.1-11.2-2.3-22.2h-42.9l5.1 55.7 75.2 22.3 75-22.4 11.1-122.5H344.4l-2.8-33.5h133.8z"/><path d="M478.5 274h-187l4.4 44.6 6.9 78.1h121.4l-3.9 44.5-35.1 11.2-35.1-11.2-2.3-22.2h-42.9l5.1 55.7 75.2 22.3 75-22.4 11.1-122.5H343.4l-2.8-33.5h133.8z"/><path d="M477.5 273h-187l4.4 44.6 6.9 78.1h121.4l-3.9 44.5-35.1 11.2-35.1-11.2-2.3-22.2h-42.9l5.1 55.7 75.2 22.3 75-22.4 11.1-122.5H342.4l-2.8-33.5h133.8z"/><path d="M476.5 272h-187l4.4 44.6 6.9 78.1h121.4l-3.9 44.5-35.1 11.2-35.1-11.2-2.3-22.2h-42.9l5.1 55.7 75.2 22.3 75-22.4 11.1-122.5H341.4l-2.8-33.5h133.8z"/><path d="M475.5 271h-187l4.4 44.6 6.9 78.1h121.4l-3.9 44.5-35.1 11.2-35.1-11.2-2.3-22.2h-42.9l5.1 55.7 75.2 22.3 75-22.4 11.1-122.5H340.4l-2.8-33.5h133.8z"/><path d="M474.5 270h-187l4.4 44.6 6.9 78.1h121.4l-3.9 44.5-35.1 11.2-35.1-11.2-2.3-22.2h-42.9l5.1 55.7 75.2 22.3 75-22.4 11.1-122.5H339.4l-2.8-33.5h133.8z"/><path d="M473.5 269h-187l4.4 44.6 6.9 78.1h121.4l-3.9 44.5-35.1 11.2-35.1-11.2-2.3-22.2h-42.9l5.1 55.7 75.2 22.3 75-22.4 11.1-122.5H338.4l-2.8-33.5h133.8z"/><path d="M472.5 268h-187l4.4 44.6 6.9 78.1h121.4l-3.9 44.5-35.1 11.2-35.1-11.2-2.3-22.2h-42.9l5.1 55.7 75.2 22.3 75-22.4 11.1-122.5H337.4l-2.8-33.5h133.8z"/><path d="M471.5 267h-187l4.4 44.6 6.9 78.1h121.4l-3.9 44.5-35.1 11.2-35.1-11.2-2.3-22.2h-42.9l5.1 55.7 75.2 22.3 75-22.4 11.1-122.5H336.4l-2.8-33.5h133.8z"/><path d="M470.5 266h-187l4.4 44.6 6.9 78.1h121.4l-3.9 44.5-35.1 11.2-35.1-11.2-2.3-22.2h-42.9l5.1 55.7 75.2 22.3 75-22.4 11.1-122.5H335.4l-2.8-33.5h133.8z"/><path d="M469.5 265h-187l4.4 44.6 6.9 78.1h121.4l-3.9 44.5-35.1 11.2-35.1-11.2-2.3-22.2h-42.9l5.1 55.7 75.2 22.3 75-22.4 11.1-122.5H334.4l-2.8-33.5h133.8z"/><path d="M468.5 264h-187l4.4 44.6 6.9 78.1h121.4l-3.9 44.5-35.1 11.2-35.1-11.2-2.3-22.2h-42.9l5.1 55.7 75.2 22.3 75-22.4 11.1-122.5H333.4l-2.8-33.5h133.8z"/><path d="M467.5 263h-187l4.4 44.6 6.9 78.1h121.4l-3.9 44.5-35.1 11.2-35.1-11.2-2.3-22.2h-42.9l5.1 55.7 75.2 22.3 75-22.4 11.1-122.5H332.4l-2.8-33.5h133.8z"/><path d="M466.5 262h-187l4.4 44.6 6.9 78.1h121.4l-3.9 44.5-35.1 11.2-35.1-11.2-2.3-22.2h-42.9l5.1 55.7 75.2 22.3 75-22.4 11.1-122.5H331.4l-2.8-33.5h133.8z"/><path d="M465.5 261h-187l4.4 44.6 6.9 78.1h121.4l-3.9 44.5-35.1 11.2-35.1-11.2-2.3-22.2h-42.9l5.1 55.7 75.2 22.3 75-22.4 11.1-122.5H330.4l-2.8-33.5h133.8z"/><path d="M464.5 260h-187l4.4 44.6 6.9 78.1h121.4l-3.9 44.5-35.1 11.2-35.1-11.2-2.3-22.2h-42.9l5.1 55.7 75.2 22.3 75-22.4 11.1-122.5H329.4l-2.8-33.5h133.8z"/><path d="M463.5 259h-187l4.4 44.6 6.9 78.1h121.4l-3.9 44.5-35.1 11.2-35.1-11.2-2.3-22.2h-42.9l5.1 55.7 75.2 22.3 75-22.4 11.1-122.5H328.4l-2.8-33.5h133.8z"/><path d="M462.5 258h-187l4.4 44.6 6.9 78.1h121.4l-3.9 44.5-35.1 11.2-35.1-11.2-2.3-22.2h-42.9l5.1 55.7 75.2 22.3 75-22.4 11.1-122.5H327.4l-2.8-33.5h133.8z"/><path d="M461.5 257h-187l4.4 44.6 6.9 78.1h121.4l-3.9 44.5-35.1 11.2-35.1-11.2-2.3-22.2h-42.9l5.1 55.7 75.2 22.3 75-22.4 11.1-122.5H326.4l-2.8-33.5h133.8z"/><path d="M460.5 256h-187l4.4 44.6 6.9 78.1h121.4l-3.9 44.5-35.1 11.2-35.1-11.2-2.3-22.2h-42.9l5.1 55.7 75.2 22.3 75-22.4 11.1-122.5H325.4l-2.8-33.5h133.8z"/><path d="M459.5 255h-187l4.4 44.6 6.9 78.1h121.4l-3.9 44.5-35.1 11.2-35.1-11.2-2.3-22.2h-42.9l5.1 55.7 75.2 22.3 75-22.4 11.1-122.5H324.4l-2.8-33.5h133.8z"/><path d="M458.5 254h-187l4.4 44.6 6.9 78.1h121.4l-3.9 44.5-35.1 11.2-35.1-11.2-2.3-22.2h-42.9l5.1 55.7 75.2 22.3 75-22.4 11.1-122.5H323.4l-2.8-33.5h133.8z"/><path d="M457.5 253h-187l4.4 44.6 6.9 78.1h121.4l-3.9 44.5-35.1 11.2-35.1-11.2-2.3-22.2h-42.9l5.1 55.7 75.2 22.3 75-22.4 11.1-122.5H322.4l-2.8-33.5h133.8z"/><path d="M456.5 252h-187l4.4 44.6 6.9 78.1h121.4l-3.9 44.5-35.1 11.2-35.1-11.2-2.3-22.2h-42.9l5.1 55.7 75.2 22.3 75-22.4 11.1-122.5H321.4l-2.8-33.5h133.8z"/><path d="M455.5 251h-187l4.4 44.6 6.9 78.1h121.4l-3.9 44.5-35.1 11.2-35.1-11.2-2.3-22.2h-42.9l5.1 55.7 75.2 22.3 75-22.4 11.1-122.5H320.4l-2.8-33.5h133.8z"/><path d="M454.5 250h-187l4.4 44.6 6.9 78.1h121.4l-3.9 44.5-35.1 11.2-35.1-11.2-2.3-22.2h-42.9l5.1 55.7 75.2 22.3 75-22.4 11.1-122.5H319.4l-2.8-33.5h133.8z"/><path d="M453.5 249h-187l4.4 44.6 6.9 78.1h121.4l-3.9 44.5-35.1 11.2-35.1-11.2-2.3-22.2h-42.9l5.1 55.7 75.2 22.3 75-22.4 11.1-122.5H318.4l-2.8-33.5h133.8z"/><path d="M452.5 248h-187l4.4 44.6 6.9 78.1h121.4l-3.9 44.5-35.1 11.2-35.1-11.2-2.3-22.2h-42.9l5.1 55.7 75.2 22.3 75-22.4 11.1-122.5H317.4l-2.8-33.5h133.8z"/><path d="M451.5 247h-187l4.4 44.6 6.9 78.1h121.4l-3.9 44.5-35.1 11.2-35.1-11.2-2.3-22.2h-42.9l5.1 55.7 75.2 22.3 75-22.4 11.1-122.5H316.4l-2.8-33.5h133.8z"/><path d="M450.5 246h-187l4.4 44.6 6.9 78.1h121.4l-3.9 44.5-35.1 11.2-35.1-11.2-2.3-22.2h-42.9l5.1 55.7 75.2 22.3 75-22.4 11.1-122.5H315.4l-2.8-33.5h133.8z"/><path d="M449.5 245h-187l4.4 44.6 6.9 78.1h121.4l-3.9 44.5-35.1 11.2-35.1-11.2-2.3-22.2h-42.9l5.1 55.7 75.2 22.3 75-22.4 11.1-122.5H314.4l-2.8-33.5h133.8z"/><path d="M448.5 244h-187l4.4 44.6 6.9 78.1h121.4l-3.9 44.5-35.1 11.2-35.1-11.2-2.3-22.2h-42.9l5.1 55.7 75.2 22.3 75-22.4 11.1-122.5H313.4l-2.8-33.5h133.8z"/><path d="M447.5 243h-187l4.4 44.6 6.9 78.1h121.4l-3.9 44.5-35.1 11.2-35.1-11.2-2.3-22.2h-42.9l5.1 55.7 75.2 22.3 75-22.4 11.1-122.5H312.4l-2.8-33.5h133.8z"/><path d="M446.5 242h-187l4.4 44.6 6.9 78.1h121.4l-3.9 44.5-35.1 11.2-35.1-11.2-2.3-22.2h-42.9l5.1 55.7 75.2 22.3 75-22.4 11.1-122.5H311.4l-2.8-33.5h133.8z"/><path d="M445.5 241h-187l4.4 44.6 6.9 78.1h121.4l-3.9 44.5-35.1 11.2-35.1-11.2-2.3-22.2h-42.9l5.1 55.7 75.2 22.3 75-22.4 11.1-122.5H310.4l-2.8-33.5h133.8z"/><path d="M444.5 240h-187l4.4 44.6 6.9 78.1h121.4l-3.9 44.5-35.1 11.2-35.1-11.2-2.3-22.2h-42.9l5.1 55.7 75.2 22.3 75-22.4 11.1-122.5H309.4l-2.8-33.5h133.8z"/><path d="M443.5 239h-187l4.4 44.6 6.9 78.1h121.4l-3.9 44.5-35.1 11.2-35.1-11.2-2.3-22.2h-42.9l5.1 55.7 75.2 22.3 75-22.4 11.1-122.5H308.4l-2.8-33.5h133.8z"/><path d="M442.5 238h-187l4.4 44.6 6.9 78.1h121.4l-3.9 44.5-35.1 11.2-35.1-11.2-2.3-22.2h-42.9l5.1 55.7 75.2 22.3 75-22.4 11.1-122.5H307.4l-2.8-33.5h133.8z"/><path d="M441.5 237h-187l4.4 44.6 6.9 78.1h121.4l-3.9 44.5-35.1 11.2-35.1-11.2-2.3-22.2h-42.9l5.1 55.7 75.2 22.3 75-22.4 11.1-122.5H306.4l-2.8-33.5h133.8z"/><path d="M440.5 236h-187l4.4 44.6 6.9 78.1h121.4l-3.9 44.5-35.1 11.2-35.1-11.2-2.3-22.2h-42.9l5.1 55.7 75.2 22.3 75-22.4 11.1-122.5H305.4l-2.8-33.5h133.8z"/><path d="M439.5 235h-187l4.4 44.6 6.9 78.1h121.4l-3.9 44.5-35.1 11.2-35.1-11.2-2.3-22.2h-42.9l5.1 55.7 75.2 22.3 75-22.4 11.1-122.5H304.4l-2.8-33.5h133.8z"/><path d="M438.5 234h-187l4.4 44.6 6.9 78.1h121.4l-3.9 44.5-35.1 11.2-35.1-11.2-2.3-22.2h-42.9l5.1 55.7 75.2 22.3 75-22.4 11.1-122.5H303.4l-2.8-33.5h133.8z"/><path d="M437.5 233h-187l4.4 44.6 6.9 78.1h121.4l-3.9 44.5-35.1 11.2-35.1-11.2-2.3-22.2h-42.9l5.1 55.7 75.2 22.3 75-22.4 11.1-122.5H302.4l-2.8-33.5h133.8z"/><path d="M436.5 232h-187l4.4 44.6 6.9 78.1h121.4l-3.9 44.5-35.1 11.2-35.1-11.2-2.3-22.2h-42.9l5.1 55.7 75.2 22.3 75-22.4 11.1-122.5H301.4l-2.8-33.5h133.8z"/><path d="M435.5 231h-187l4.4 44.6 6.9 78.1h121.4l-3.9 44.5-35.1 11.2-35.1-11.2-2.3-22.2h-42.9l5.1 55.7 75.2 22.3 75-22.4 11.1-122.5H300.4l-2.8-33.5h133.8z"/><path d="M434.5 230h-187l4.4 44.6 6.9 78.1h121.4l-3.9 44.5-35.1 11.2-35.1-11.2-2.3-22.2h-42.9l5.1 55.7 75.2 22.3 75-22.4 11.1-122.5H299.4l-2.8-33.5h133.8z"/><path d="M433.5 229h-187l4.4 44.6 6.9 78.1h121.4l-3.9 44.5-35.1 11.2-35.1-11.2-2.3-22.2h-42.9l5.1 55.7 75.2 22.3 75-22.4 11.1-122.5H298.4l-2.8-33.5h133.8z"/><path d="M432.5 228h-187l4.4 44.6 6.9 78.1h121.4l-3.9 44.5-35.1 11.2-35.1-11.2-2.3-22.2h-42.9l5.1 55.7 75.2 22.3 75-22.4 11.1-122.5H297.4l-2.8-33.5h133.8z"/><path d="M431.5 227h-187l4.4 44.6 6.9 78.1h121.4l-3.9 44.5-35.1 11.2-35.1-11.2-2.3-22.2h-42.9l5.1 55.7 75.2 22.3 75-22.4 11.1-122.5H296.4l-2.8-33.5h133.8z"/><path d="M430.5 226h-187l4.4 44.6 6.9 78.1h121.4l-3.9 44.5-35.1 11.2-35.1-11.2-2.3-22.2h-42.9l5.1 55.7 75.2 22.3 75-22.4 11.1-122.5H295.4l-2.8-33.5h133.8z"/><path d="M429.5 225h-187l4.4 44.6 6.9 78.1h121.4l-3.9 44.5-35.1 11.2-35.1-11.2-2.3-22.2h-42.9l5.1 55.7 75.2 22.3 75-22.4 11.1-122.5H294.4l-2.8-33.5h133.8z"/><path d="M428.5 224h-187l4.4 44.6 6.9 78.1h121.4l-3.9 44.5-35.1 11.2-35.1-11.2-2.3-22.2h-42.9l5.1 55.7 75.2 22.3 75-22.4 11.1-122.5H293.4l-2.8-33.5h133.8z"/><path d="M427.5 223h-187l4.4 44.6 6.9 78.1h121.4l-3.9 44.5-35.1 11.2-35.1-11.2-2.3-22.2h-42.9l5.1 55.7 75.2 22.3 75-22.4 11.1-122.5H292.4l-2.8-33.5h133.8z"/><path d="M426.5 222h-187l4.4 44.6 6.9 78.1h121.4l-3.9 44.5-35.1 11.2-35.1-11.2-2.3-22.2h-42.9l5.1 55.7 75.2 22.3 75-22.4 11.1-122.5H291.4l-2.8-33.5h133.8z"/><path d="M425.5 221h-187l4.4 44.6 6.9 78.1h121.4l-3.9 44.5-35.1 11.2-35.1-11.2-2.3-22.2h-42.9l5.1 55.7 75.2 22.3 75-22.4 11.1-122.5H290.4l-2.8-33.5h133.8z"/><path d="M424.5 220h-187l4.4 44.6 6.9 78.1h121.4l-3.9 44.5-35.1 11.2-35.1-11.2-2.3-22.2h-42.9l5.1 55.7 75.2 22.3 75-22.4 11.1-122.5H289.4l-2.8-33.5h133.8z"/><path d="M423.5 219h-187l4.4 44.6 6.9 78.1h121.4l-3.9 44.5-35.1 11.2-35.1-11.2-2.3-22.2h-42.9l5.1 55.7 75.2 22.3 75-22.4 11.1-122.5H288.4l-2.8-33.5h133.8z"/><path d="M422.5 218h-187l4.4 44.6 6.9 78.1h121.4l-3.9 44.5-35.1 11.2-35.1-11.2-2.3-22.2h-42.9l5.1 55.7 75.2 22.3 75-22.4 11.1-122.5H287.4l-2.8-33.5h133.8z"/><path d="M421.5 217h-187l4.4 44.6 6.9 78.1h121.4l-3.9 44.5-35.1 11.2-35.1-11.2-2.3-22.2h-42.9l5.1 55.7 75.2 22.3 75-22.4 11.1-122.5H286.4l-2.8-33.5h133.8z"/><path d="M420.5 216h-187l4.4 44.6 6.9 78.1h121.4l-3.9 44.5-35.1 11.2-35.1-11.2-2.3-22.2h-42.9l5.1 55.7 75.2 22.3 75-22.4 11.1-122.5H285.4l-2.8-33.5h133.8z"/><path d="M419.5 215h-187l4.4 44.6 6.9 78.1h121.4l-3.9 44.5-35.1 11.2-35.1-11.2-2.3-22.2h-42.9l5.1 55.7 75.2 22.3 75-22.4 11.1-122.5H284.4l-2.8-33.5h133.8z"/><path d="M418.5 214h-187l4.4 44.6 6.9 78.1h121.4l-3.9 44.5-35.1 11.2-35.1-11.2-2.3-22.2h-42.9l5.1 55.7 75.2 22.3 75-22.4 11.1-122.5H283.4l-2.8-33.5h133.8z"/><path d="M417.5 213h-187l4.4 44.6 6.9 78.1h121.4l-3.9 44.5-35.1 11.2-35.1-11.2-2.3-22.2h-42.9l5.1 55.7 75.2 22.3 75-22.4 11.1-122.5H282.4l-2.8-33.5h133.8z"/><path d="M416.5 212h-187l4.4 44.6 6.9 78.1h121.4l-3.9 44.5-35.1 11.2-35.1-11.2-2.3-22.2h-42.9l5.1 55.7 75.2 22.3 75-22.4 11.1-122.5H281.4l-2.8-33.5h133.8z"/><path d="M415.5 211h-187l4.4 44.6 6.9 78.1h121.4l-3.9 44.5-35.1 11.2-35.1-11.2-2.3-22.2h-42.9l5.1 55.7 75.2 22.3 75-22.4 11.1-122.5H280.4l-2.8-33.5h133.8z"/><path d="M414.5 210h-187l4.4 44.6 6.9 78.1h121.4l-3.9 44.5-35.1 11.2-35.1-11.2-2.3-22.2h-42.9l5.1 55.7 75.2 22.3 75-22.4 11.1-122.5H279.4l-2.8-33.5h133.8z"/><path d="M413.5 209h-187l4.4 44.6 6.9 78.1h121.4l-3.9 44.5-35.1 11.2-35.1-11.2-2.3-22.2h-42.9l5.1 55.7 75.2 22.3 75-22.4 11.1-122.5H278.4l-2.8-33.5h133.8z"/><path d="M412.5 208h-187l4.4 44.6 6.9 78.1h121.4l-3.9 44.5-35.1 11.2-35.1-11.2-2.3-22.2h-42.9l5.1 55.7 75.2 22.3 75-22.4 11.1-122.5H277.4l-2.8-33.5h133.8z"/><path d="M411.5 207h-187l4.4 44.6 6.9 78.1h121.4l-3.9 44.5-35.1 11.2-35.1-11.2-2.3-22.2h-42.9l5.1 55.7 75.2 22.3 75-22.4 11.1-122.5H276.4l-2.8-33.5h133.8z"/><path d="M410.5 206h-187l4.4 44.6 6.9 78.1h121.4l-3.9 44.5-35.1 11.2-35.1-11.2-2.3-22.2h-42.9l5.1 55.7 75.2 22.3 75-22.4 11.1-122.5H275.4l-2.8-33.5h133.8z"/><path d="M409.5 205h-187l4.4 44.6 6.9 78.1h121.4l-3.9 44.5-35.1 11.2-35.1-11.2-2.3-22.2h-42.9l5.1 55.7 75.2 22.3 75-22.4 11.1-122.5H274.4l-2.8-33.5h133.8z"/><path d="M408.5 204h-187l4.4 44.6 6.9 78.1h121.4l-3.9 44.5-35.1 11.2-35.1-11.2-2.3-22.2h-42.9l5.1 55.7 75.2 22.3 75-22.4 11.1-122.5H273.4l-2.8-33.5h133.8z"/><path d="M407.5 203h-187l4.4 44.6 6.9 78.1h121.4l-3.9 44.5-35.1 11.2-35.1-11.2-2.3-22.2h-42.9l5.1 55.7 75.2 22.3 75-22.4 11.1-122.5H272.4l-2.8-33.5h133.8z"/><path d="M406.5 202h-187l4.4 44.6 6.9 78.1h121.4l-3.9 44.5-35.1 11.2-35.1-11.2-2.3-22.2h-42.9l5.1 55.7 75.2 22.3 75-22.4 11.1-122.5H271.4l-2.8-33.5h133.8z"/><path d="M405.5 201h-187l4.4 44.6 6.9 78.1h121.4l-3.9 44.5-35.1 11.2-35.1-11.2-2.3-22.2h-42.9l5.1 55.7 75.2 22.3 75-22.4 11.1-122.5H270.4l-2.8-33.5h133.8z"/><path d="M404.5 200h-187l4.4 44.6 6.9 78.1h121.4l-3.9 44.5-35.1 11.2-35.1-11.2-2.3-22.2h-42.9l5.1 55.7 75.2 22.3 75-22.4 11.1-122.5H269.4l-2.8-33.5h133.8z"/><path d="M403.5 199h-187l4.4 44.6 6.9 78.1h121.4l-3.9 44.5-35.1 11.2-35.1-11.2-2.3-22.2h-42.9l5.1 55.7 75.2 22.3 75-22.4 11.1-122.5H268.4l-2.8-33.5h133.8z"/><path d="M402.5 198h-187l4.4 44.6 6.9 78.1h121.4l-3.9 44.5-35.1 11.2-35.1-11.2-2.3-22.2h-42.9l5.1 55.7 75.2 22.3 75-22.4 11.1-122.5H267.4l-2.8-33.5h133.8z"/><path d="M401.5 197h-187l4.4 44.6 6.9 78.1h121.4l-3.9 44.5-35.1 11.2-35.1-11.2-2.3-22.2h-42.9l5.1 55.7 75.2 22.3 75-22.4 11.1-122.5H266.4l-2.8-33.5h133.8z"/><path d="M400.5 196h-187l4.4 44.6 6.9 78.1h121.4l-3.9 44.5-35.1 11.2-35.1-11.2-2.3-22.2h-42.9l5.1 55.7 75.2 22.3 75-22.4 11.1-122.5H265.4l-2.8-33.5h133.8z"/><path d="M399.5 195h-187l4.4 44.6 6.9 78.1h121.4l-3.9 44.5-35.1 11.2-35.1-11.2-2.3-22.2h-42.9l5.1 55.7 75.2 22.3 75-22.4 11.1-122.5H264.4l-2.8-33.5h133.8z"/><path d="M398.5 194h-187l4.4 44.6 6.9 78.1h121.4l-3.9 44.5-35.1 11.2-35.1-11.2-2.3-22.2h-42.9l5.1 55.7 75.2 22.3 75-22.4 11.1-122.5H263.4l-2.8-33.5h133.8z"/><path d="M397.5 193h-187l4.4 44.6 6.9 78.1h121.4l-3.9 44.5-35.1 11.2-35.1-11.2-2.3-22.2h-42.9l5.1 55.7 75.2 22.3 75-22.4 11.1-122.5H262.4l-2.8-33.5h133.8z"/><path d="M396.5 192h-187l4.4 44.6 6.9 78.1h121.4l-3.9 44.5-35.1 11.2-35.1-11.2-2.3-22.2h-42.9l5.1 55.7 75.2 22.3 75-22.4 11.1-122.5H261.4l-2.8-33.5h133.8z"/><path d="M395.5 191h-187l4.4 44.6 6.9 78.1h121.4l-3.9 44.5-35.1 11.2-35.1-11.2-2.3-22.2h-42.9l5.1 55.7 75.2 22.3 75-22.4 11.1-122.5H260.4l-2.8-33.5h133.8z"/><path d="M394.5 190h-187l4.4 44.6 6.9 78.1h121.4l-3.9 44.5-35.1 11.2-35.1-11.2-2.3-22.2h-42.9l5.1 55.7 75.2 22.3 75-22.4 11.1-122.5H259.4l-2.8-33.5h133.8z"/><path d="M393.5 189h-187l4.4 44.6 6.9 78.1h121.4l-3.9 44.5-35.1 11.2-35.1-11.2-2.3-22.2h-42.9l5.1 55.7 75.2 22.3 75-22.4 11.1-122.5H258.4l-2.8-33.5h133.8z"/><path d="M392.5 188h-187l4.4 44.6 6.9 78.1h121.4l-3.9 44.5-35.1 11.2-35.1-11.2-2.3-22.2h-42.9l5.1 55.7 75.2 22.3 75-22.4 11.1-122.5H257.4l-2.8-33.5h133.8z"/><path d="M391.5 187h-187l4.4 44.6 6.9 78.1h121.4l-3.9 44.5-35.1 11.2-35.1-11.2-2.3-22.2h-42.9l5.1 55.7 75.2 22.3 75-22.4 11.1-122.5H256.4l-2.8-33.5h133.8z"/><path d="M390.5 186h-187l4.4 44.6 6.9 78.1h121.4l-3.9 44.5-35.1 11.2-35.1-11.2-2.3-22.2h-42.9l5.1 55.7 75.2 22.3 75-22.4 11.1-122.5H255.4l-2.8-33.5h133.8z"/><path d="M389.5 185h-187l4.4 44.6 6.9 78.1h121.4l-3.9 44.5-35.1 11.2-35.1-11.2-2.3-22.2h-42.9l5.1 55.7 75.2 22.3 75-22.4 11.1-122.5H254.4l-2.8-33.5h133.8z"/><path d="M388.5 184h-187l4.4 44.6 6.9 78.1h121.4l-3.9 44.5-35.1 11.2-35.1-11.2-2.3-22.2h-42.9l5.1 55.7 75.2 22.3 75-22.4 11.1-122.5H253.4l-2.8-33.5h133.8z"/><path d="M387.5 183h-187l4.4 44.6 6.9 78.1h121.4l-3.9 44.5-35.1 11.2-35.1-11.2-2.3-22.2h-42.9l5.1 55.7 75.2 22.3 75-22.4 11.1-122.5H252.4l-2.8-33.5h133.8z"/><path d="M386.5 182h-187l4.4 44.6 6.9 78.1h121.4l-3.9 44.5-35.1 11.2-35.1-11.2-2.3-22.2h-42.9l5.1 55.7 75.2 22.3 75-22.4 11.1-122.5H251.4l-2.8-33.5h133.8z"/><path d="M385.5 181h-187l4.4 44.6 6.9 78.1h121.4l-3.9 44.5-35.1 11.2-35.1-11.2-2.3-22.2h-42.9l5.1 55.7 75.2 22.3 75-22.4 11.1-122.5H250.4l-2.8-33.5h133.8z"/><path d="M384.5 180h-187l4.4 44.6 6.9 78.1h121.4l-3.9 44.5-35.1 11.2-35.1-11.2-2.3-22.2h-42.9l5.1 55.7 75.2 22.3 75-22.4 11.1-122.5H249.4l-2.8-33.5h133.8z"/><path d="M383.5 179h-187l4.4 44.6 6.9 78.1h121.4l-3.9 44.5-35.1 11.2-35.1-11.2-2.3-22.2h-42.9l5.1 55.7 75.2 22.3 75-22.4 11.1-122.5H248.4l-2.8-33.5h133.8z"/><path d="M382.5 178h-187l4.4 44.6 6.9 78.1h121.4l-3.9 44.5-35.1 11.2-35.1-11.2-2.3-22.2h-42.9l5.1 55.7 75.2 22.3 75-22.4 11.1-122.5H247.4l-2.8-33.5h133.8z"/><path d="M381.5 177h-187l4.4 44.6 6.9 78.1h121.4l-3.9 44.5-35.1 11.2-35.1-11.2-2.3-22.2h-42.9l5.1 55.7 75.2 22.3 75-22.4 11.1-122.5H246.4l-2.8-33.5h133.8z"/><path d="M380.5 176h-187l4.4 44.6 6.9 78.1h121.4l-3.9 44.5-35.1 11.2-35.1-11.2-2.3-22.2h-42.9l5.1 55.7 75.2 22.3 75-22.4 11.1-122.5H245.4l-2.8-33.5h133.8z"/><path d="M379.5 175h-187l4.4 44.6 6.9 78.1h121.4l-3.9 44.5-35.1 11.2-35.1-11.2-2.3-22.2h-42.9l5.1 55.7 75.2 22.3 75-22.4 11.1-122.5H244.4l-2.8-33.5h133.8z"/><path d="M378.5 174h-187l4.4 44.6 6.9 78.1h121.4l-3.9 44.5-35.1 11.2-35.1-11.2-2.3-22.2h-42.9l5.1 55.7 75.2 22.3 75-22.4 11.1-122.5H243.4l-2.8-33.5h133.8z"/><path d="M377.5 173h-187l4.4 44.6 6.9 78.1h121.4l-3.9 44.5-35.1 11.2-35.1-11.2-2.3-22.2h-42.9l5.1 55.7 75.2 22.3 75-22.4 11.1-122.5H242.4l-2.8-33.5h133.8z"/><path d="M376.5 172h-187l4.4 44.6 6.9 78.1h121.4l-3.9 44.5-35.1 11.2-35.1-11.2-2.3-22.2h-42.9l5.1 55.7 75.2 22.3 75-22.4 11.1-122.5H241.4l-2.8-33.5h133.8z"/><path d="M375.5 171h-187l4.4 44.6 6.9 78.1h121.4l-3.9 44.5-35.1 11.2-35.1-11.2-2.3-22.2h-42.9l5.1 55.7 75.2 22.3 75-22.4 11.1-122.5H240.4l-2.8-33.5h133.8z"/><path d="M374.5 170h-187l4.4 44.6 6.9 78.1h121.4l-3.9 44.5-35.1 11.2-35.1-11.2-2.3-22.2h-42.9l5.1 55.7 75.2 22.3 75-22.4 11.1-122.5H239.4l-2.8-33.5h133.8z"/><path d="M373.5 169h-187l4.4 44.6 6.9 78.1h121.4l-3.9 44.5-35.1 11.2-35.1-11.2-2.3-22.2h-42.9l5.1 55.7 75.2 22.3 75-22.4 11.1-122.5H238.4l-2.8-33.5h133.8z"/><path d="M372.5 168h-187l4.4 44.6 6.9 78.1h121.4l-3.9 44.5-35.1 11.2-35.1-11.2-2.3-22.2h-42.9l5.1 55.7 75.2 22.3 75-22.4 11.1-122.5H237.4l-2.8-33.5h133.8z"/><path d="M371.5 167h-187l4.4 44.6 6.9 78.1h121.4l-3.9 44.5-35.1 11.2-35.1-11.2-2.3-22.2h-42.9l5.1 55.7 75.2 22.3 75-22.4 11.1-122.5H236.4l-2.8-33.5h133.8z"/><path d="M370.5 166h-187l4.4 44.6 6.9 78.1h121.4l-3.9 44.5-35.1 11.2-35.1-11.2-2.3-22.2h-42.9l5.1 55.7 75.2 22.3 75-22.4 11.1-122.5H235.4l-2.8-33.5h133.8z"/><path d="M369.5 165h-187l4.4 44.6 6.9 78.1h121.4l-3.9 44.5-35.1 11.2-35.1-11.2-2.3-22.2h-42.9l5.1 55.7 75.2 22.3 75-22.4 11.1-122.5H234.4l-2.8-33.5h133.8z"/><path d="M368.5 164h-187l4.4 44.6 6.9 78.1h121.4l-3.9 44.5-35.1 11.2-35.1-11.2-2.3-22.2h-42.9l5.1 55.7 75.2 22.3 75-22.4 11.1-122.5H233.4l-2.8-33.5h133.8z"/><path d="M367.5 163h-187l4.4 44.6 6.9 78.1h121.4l-3.9 44.5-35.1 11.2-35.1-11.2-2.3-22.2h-42.9l5.1 55.7 75.2 22.3 75-22.4 11.1-122.5H232.4l-2.8-33.5h133.8z"/><path d="M366.5 162h-187l4.4 44.6 6.9 78.1h121.4l-3.9 44.5-35.1 11.2-35.1-11.2-2.3-22.2h-42.9l5.1 55.7 75.2 22.3 75-22.4 11.1-122.5H231.4l-2.8-33.5h133.8z"/><path d="M365.5 161h-187l4.4 44.6 6.9 78.1h121.4l-3.9 44.5-35.1 11.2-35.1-11.2-2.3-22.2h-42.9l5.1 55.7 75.2 22.3 75-22.4 11.1-122.5H230.4l-2.8-33.5h133.8z"/><path d="M364.5 160h-187l4.4 44.6 6.9 78.1h121.4l-3.9 44.5-35.1 11.2-35.1-11.2-2.3-22.2h-42.9l5.1 55.7 75.2 22.3 75-22.4 11.1-122.5H229.4l-2.8-33.5h133.8z"/><path d="M363.5 159h-187l4.4 44.6 6.9 78.1h121.4l-3.9 44.5-35.1 11.2-35.1-11.2-2.3-22.2h-42.9l5.1 55.7 75.2 22.3 75-22.4 11.1-122.5H228.4l-2.8-33.5h133.8z"/><path d="M362.5 158h-187l4.4 44.6 6.9 78.1h121.4l-3.9 44.5-35.1 11.2-35.1-11.2-2.3-22.2h-42.9l5.1 55.7 75.2 22.3 75-22.4 11.1-122.5H227.4l-2.8-33.5h133.8z"/><path d="M361.5 157h-187l4.4 44.6 6.9 78.1h121.4l-3.9 44.5-35.1 11.2-35.1-11.2-2.3-22.2h-42.9l5.1 55.7 75.2 22.3 75-22.4 11.1-122.5H226.4l-2.8-33.5h133.8z"/><path d="M360.5 156h-187l4.4 44.6 6.9 78.1h121.4l-3.9 44.5-35.1 11.2-35.1-11.2-2.3-22.2h-42.9l5.1 55.7 75.2 22.3 75-22.4 11.1-122.5H225.4l-2.8-33.5h133.8z"/><path d="M359.5 155h-187l4.4 44.6 6.9 78.1h121.4l-3.9 44.5-35.1 11.2-35.1-11.2-2.3-22.2h-42.9l5.1 55.7 75.2 22.3 75-22.4 11.1-122.5H224.4l-2.8-33.5h133.8z"/><path d="M358.5 154h-187l4.4 44.6 6.9 78.1h121.4l-3.9 44.5-35.1 11.2-35.1-11.2-2.3-22.2h-42.9l5.1 55.7 75.2 22.3 75-22.4 11.1-122.5H223.4l-2.8-33.5h133.8z"/><path d="M357.5 153h-187l4.4 44.6 6.9 78.1h121.4l-3.9 44.5-35.1 11.2-35.1-11.2-2.3-22.2h-42.9l5.1 55.7 75.2 22.3 75-22.4 11.1-122.5H222.4l-2.8-33.5h133.8z"/><path d="M356.5 152h-187l4.4 44.6 6.9 78.1h121.4l-3.9 44.5-35.1 11.2-35.1-11.2-2.3-22.2h-42.9l5.1 55.7 75.2 22.3 75-22.4 11.1-122.5H221.4l-2.8-33.5h133.8z"/><path d="M355.5 151h-187l4.4 44.6 6.9 78.1h121.4l-3.9 44.5-35.1 11.2-35.1-11.2-2.3-22.2h-42.9l5.1 55.7 75.2 22.3 75-22.4 11.1-122.5H220.4l-2.8-33.5h133.8z"/><path d="M354.5 150h-187l4.4 44.6 6.9 78.1h121.4l-3.9 44.5-35.1 11.2-35.1-11.2-2.3-22.2h-42.9l5.1 55.7 75.2 22.3 75-22.4 11.1-122.5H219.4l-2.8-33.5h133.8z"/><path d="M353.5 149h-187l4.4 44.6 6.9 78.1h121.4l-3.9 44.5-35.1 11.2-35.1-11.2-2.3-22.2h-42.9l5.1 55.7 75.2 22.3 75-22.4 11.1-122.5H218.4l-2.8-33.5h133.8z"/><path d="M352.5 148h-187l4.4 44.6 6.9 78.1h121.4l-3.9 44.5-35.1 11.2-35.1-11.2-2.3-22.2h-42.9l5.1 55.7 75.2 22.3 75-22.4 11.1-122.5H217.4l-2.8-33.5h133.8z"/><path d="M351.5 147h-187l4.4 44.6 6.9 78.1h121.4l-3.9 44.5-35.1 11.2-35.1-11.2-2.3-22.2h-42.9l5.1 55.7 75.2 22.3 75-22.4 11.1-122.5H216.4l-2.8-33.5h133.8z"/><path d="M350.5 146h-187l4.4 44.6 6.9 78.1h121.4l-3.9 44.5-35.1 11.2-35.1-11.2-2.3-22.2h-42.9l5.1 55.7 75.2 22.3 75-22.4 11.1-122.5H215.4l-2.8-33.5h133.8z"/><path d="M349.5 145h-187l4.4 44.6 6.9 78.1h121.4l-3.9 44.5-35.1 11.2-35.1-11.2-2.3-22.2h-42.9l5.1 55.7 75.2 22.3 75-22.4 11.1-122.5H214.4l-2.8-33.5h133.8z"/></g><path class="st10" d="M349.5 145h-187l4.4 44.6 6.9 78.1h121.4l-3.9 44.5-35.1 11.2-35.1-11.2-2.3-22.2h-42.9l5.1 55.7 75.2 22.3 75-22.4 11.1-122.5H214.4l-2.8-33.5h133.8z"/><g><path fill="#4a4842" d="M349.3 144.9H162.4l4.3 44.7 6.9 78.1h121.5l-4 44.4-35.1 11.2-35.1-11.2-2.3-22.1h-42.9l5.1 55.6L256 368l75-22.4L342.1 223H214.2l-2.8-33.4h133.8z"/><path class="st10" d="M349.3 144.9H162.4l4.3 44.7 6.9 78.1h121.5l-4 44.4-35.1 11.2-35.1-11.2-2.3-22.1h-42.9l5.1 55.6L256 368l75-22.4L342.1 223H214.2l-2.8-33.4h133.8z"/></g></g></g></svg>