<?xml version="1.0" encoding="utf-8"?>
<!-- Generator: Adobe Illustrator 24.0.2, SVG Export Plug-In . SVG Version: 6.00 Build 0)  -->
<svg version="1.1" id="圖層_1" xmlns="http://www.w3.org/2000/svg" xmlns:xlink="http://www.w3.org/1999/xlink" x="0px" y="0px"
	 viewBox="0 0 512 512" enable-background="new 0 0 512 512" xml:space="preserve">
<g>
	<circle fill="#B3B3B3" cx="256" cy="256.5" r="256"/>
	<g>
		<defs>
			<circle id="SVGID_1_" cx="256" cy="256.5" r="256"/>
		</defs>
		<clipPath id="SVGID_2_">
			<use xlink:href="#SVGID_1_"  overflow="visible"/>
		</clipPath>
		<path clip-path="url(#SVGID_2_)" fill="#E5A228" d="M415.8,75.7H96.2l30,324.8L256,437.3l129.8-36.8L415.8,75.7z"/>
	</g>
	<g>
		<defs>
			<circle id="SVGID_3_" cx="256" cy="256.5" r="256"/>
		</defs>
		<clipPath id="SVGID_4_">
			<use xlink:href="#SVGID_3_"  overflow="visible"/>
		</clipPath>
		<path clip-path="url(#SVGID_4_)" fill="#F1BE20" d="M256,102.2v307.6L361.1,380l25.6-277.8L256,102.2z"/>
	</g>
	<g>
		<defs>
			<circle id="SVGID_5_" cx="256" cy="256.5" r="256"/>
		</defs>
		<clipPath id="SVGID_6_">
			<use xlink:href="#SVGID_5_"  overflow="visible"/>
		</clipPath>
		<g opacity="0.4" clip-path="url(#SVGID_6_)">
			<path d="M537.8,343.3H376.1l-11.3,121.6l0.3-0.7h137.3l-4.5,51.4l-43.8,12.6l-44.4-12.8l-2.7-31.1h-40.4l5.8,62.2l81.7,23.2
				l81.8-23.2l11.3-122.1H401.4l1.9-40.7h101.1l1.5,23.3h40.8L537.8,343.3z"/>
			<path d="M536.8,342.3H375.1l-11.3,121.6l0.3-0.7h137.3l-4.5,51.4l-43.8,12.6l-44.4-12.8l-2.7-31.1h-40.4l5.8,62.2l81.7,23.2
				l81.8-23.2l11.3-122.1H400.4l1.9-40.7h101.1l1.5,23.3h40.8L536.8,342.3z"/>
			<path d="M535.8,341.3H374.1l-11.3,121.6l0.3-0.7h137.3l-4.5,51.4l-43.8,12.6l-44.4-12.8l-2.7-31.1h-40.4l5.8,62.2l81.7,23.2
				l81.8-23.2l11.3-122.1H399.4l1.9-40.7h101.1l1.5,23.3h40.8L535.8,341.3z"/>
			<path d="M534.8,340.3H373.1l-11.3,121.6l0.3-0.7h137.3l-4.5,51.4l-43.8,12.6l-44.4-12.8l-2.7-31.1h-40.4l5.8,62.2l81.7,23.2
				l81.8-23.2l11.3-122.1H398.4l1.9-40.7h101.1l1.5,23.3h40.8L534.8,340.3z"/>
			<path d="M533.8,339.3H372.1l-11.3,121.6l0.3-0.7h137.3l-4.5,51.4l-43.8,12.6l-44.4-12.8l-2.7-31.1h-40.4l5.8,62.2l81.7,23.2
				l81.8-23.2l11.3-122.1H397.4l1.9-40.7h101.1l1.5,23.3h40.8L533.8,339.3z"/>
			<path d="M532.8,338.3H371.1l-11.3,121.6l0.3-0.7h137.3l-4.5,51.4l-43.8,12.6l-44.4-12.8l-2.7-31.1h-40.4l5.8,62.2l81.7,23.2
				l81.8-23.2l11.3-122.1H396.4l1.9-40.7h101.1l1.5,23.3h40.8L532.8,338.3z"/>
			<path d="M531.8,337.3H370.1l-11.3,121.6l0.3-0.7h137.3l-4.5,51.4l-43.8,12.6l-44.4-12.8l-2.7-31.1h-40.4l5.8,62.2l81.7,23.2
				l81.8-23.2l11.3-122.1H395.4l1.9-40.7h101.1l1.5,23.3h40.8L531.8,337.3z"/>
			<path d="M530.8,336.3H369.1l-11.3,121.6l0.3-0.7h137.3l-4.5,51.4l-43.8,12.6l-44.4-12.8l-2.7-31.1h-40.4l5.8,62.2l81.7,23.2
				l81.8-23.2l11.3-122.1H394.4l1.9-40.7h101.1l1.5,23.3h40.8L530.8,336.3z"/>
			<path d="M529.8,335.3H368.1l-11.3,121.6l0.3-0.7h137.3l-4.5,51.4l-43.8,12.6l-44.4-12.8l-2.7-31.1h-40.4l5.8,62.2l81.7,23.2
				l81.8-23.2l11.3-122.1H393.4l1.9-40.7h101.1l1.5,23.3h40.8L529.8,335.3z"/>
			<path d="M528.8,334.3H367.1l-11.3,121.6l0.3-0.7h137.3l-4.5,51.4l-43.8,12.6l-44.4-12.8l-2.7-31.1h-40.4l5.8,62.2l81.7,23.2
				l81.8-23.2l11.3-122.1H392.4l1.9-40.7h101.1l1.5,23.3h40.8L528.8,334.3z"/>
			<path d="M527.8,333.3H366.1l-11.3,121.6l0.3-0.7h137.3l-4.5,51.4l-43.8,12.6l-44.4-12.8l-2.7-31.1h-40.4l5.8,62.2l81.7,23.2
				l81.8-23.2l11.3-122.1H391.4l1.9-40.7h101.1l1.5,23.3h40.8L527.8,333.3z"/>
			<path d="M526.8,332.3H365.1l-11.3,121.6l0.3-0.7h137.3l-4.5,51.4l-43.8,12.6l-44.4-12.8l-2.7-31.1h-40.4l5.8,62.2l81.7,23.2
				l81.8-23.2l11.3-122.1H390.4l1.9-40.7h101.1l1.5,23.3h40.8L526.8,332.3z"/>
			<path d="M525.8,331.3H364.1l-11.3,121.6l0.3-0.7h137.3l-4.5,51.4l-43.8,12.6l-44.4-12.8l-2.7-31.1h-40.4l5.8,62.2l81.7,23.2
				l81.8-23.2l11.3-122.1H389.4l1.9-40.7h101.1l1.5,23.3h40.8L525.8,331.3z"/>
			<path d="M524.8,330.3H363.1l-11.3,121.6l0.3-0.7h137.3l-4.5,51.4l-43.8,12.6l-44.4-12.8l-2.7-31.1h-40.4l5.8,62.2l81.7,23.2
				l81.8-23.2l11.3-122.1H388.4l1.9-40.7h101.1l1.5,23.3h40.8L524.8,330.3z"/>
			<path d="M523.8,329.3H362.1l-11.3,121.6l0.3-0.7h137.3l-4.5,51.4l-43.8,12.6l-44.4-12.8l-2.7-31.1h-40.4l5.8,62.2l81.7,23.2
				l81.8-23.2l11.3-122.1H387.4l1.9-40.7h101.1l1.5,23.3h40.8L523.8,329.3z"/>
			<path d="M522.8,328.3H361.1l-11.3,121.6l0.3-0.7h137.3l-4.5,51.4l-43.8,12.6l-44.4-12.8l-2.7-31.1h-40.4l5.8,62.2l81.7,23.2
				l81.8-23.2l11.3-122.1H386.4l1.9-40.7h101.1l1.5,23.3h40.8L522.8,328.3z"/>
			<path d="M521.8,327.3H360.1l-11.3,121.6l0.3-0.7h137.3l-4.5,51.4l-43.8,12.6l-44.4-12.8l-2.7-31.1h-40.4l5.8,62.2l81.7,23.2
				l81.8-23.2l11.3-122.1H385.4l1.9-40.7h101.1l1.5,23.3h40.8L521.8,327.3z"/>
			<path d="M520.8,326.3H359.1l-11.3,121.6l0.3-0.7h137.3l-4.5,51.4l-43.8,12.6l-44.4-12.8l-2.7-31.1h-40.4l5.8,62.2l81.7,23.2
				l81.8-23.2l11.3-122.1H384.4l1.9-40.7h101.1l1.5,23.3h40.8L520.8,326.3z"/>
			<path d="M519.8,325.3H358.1l-11.3,121.6l0.3-0.7h137.3l-4.5,51.4l-43.8,12.6l-44.4-12.8l-2.7-31.1h-40.4l5.8,62.2l81.7,23.2
				l81.8-23.2l11.3-122.1H383.4l1.9-40.7h101.1l1.5,23.3h40.8L519.8,325.3z"/>
			<path d="M518.8,324.3H357.1l-11.3,121.6l0.3-0.7h137.3l-4.5,51.4l-43.8,12.6l-44.4-12.8l-2.7-31.1h-40.4l5.8,62.2l81.7,23.2
				l81.8-23.2l11.3-122.1H382.4l1.9-40.7h101.1l1.5,23.3h40.8L518.8,324.3z"/>
			<path d="M517.8,323.3H356.1l-11.3,121.6l0.3-0.7h137.3l-4.5,51.4l-43.8,12.6l-44.4-12.8l-2.7-31.1h-40.4l5.8,62.2l81.7,23.2
				l81.8-23.2l11.3-122.1H381.4l1.9-40.7h101.1l1.5,23.3h40.8L517.8,323.3z"/>
			<path d="M516.8,322.3H355.1l-11.3,121.6l0.3-0.7h137.3l-4.5,51.4l-43.8,12.6l-44.4-12.8l-2.7-31.1h-40.4l5.8,62.2l81.7,23.2
				l81.8-23.2l11.3-122.1H380.4l1.9-40.7h101.1l1.5,23.3h40.8L516.8,322.3z"/>
			<path d="M515.8,321.3H354.1l-11.3,121.6l0.3-0.7h137.3l-4.5,51.4l-43.8,12.6l-44.4-12.8l-2.7-31.1h-40.4l5.8,62.2l81.7,23.2
				l81.8-23.2l11.3-122.1H379.4l1.9-40.7h101.1l1.5,23.3h40.8L515.8,321.3z"/>
			<path d="M514.8,320.3H353.1l-11.3,121.6l0.3-0.7h137.3l-4.5,51.4l-43.8,12.6l-44.4-12.8l-2.7-31.1h-40.4l5.8,62.2l81.7,23.2
				l81.8-23.2l11.3-122.1H378.4l1.9-40.7h101.1l1.5,23.3h40.8L514.8,320.3z"/>
			<path d="M513.8,319.3H352.1l-11.3,121.6l0.3-0.7h137.3l-4.5,51.4l-43.8,12.6l-44.4-12.8l-2.7-31.1h-40.4l5.8,62.2l81.7,23.2
				l81.8-23.2l11.3-122.1H377.4l1.9-40.7h101.1l1.5,23.3h40.8L513.8,319.3z"/>
			<path d="M512.8,318.3H351.1l-11.3,121.6l0.3-0.7h137.3l-4.5,51.4l-43.8,12.6l-44.4-12.8l-2.7-31.1h-40.4l5.8,62.2l81.7,23.2
				l81.8-23.2l11.3-122.1H376.4l1.9-40.7h101.1l1.5,23.3h40.8L512.8,318.3z"/>
			<path d="M511.8,317.3H350.1l-11.3,121.6l0.3-0.7h137.3l-4.5,51.4l-43.8,12.6l-44.4-12.8l-2.7-31.1h-40.4l5.8,62.2l81.7,23.2
				l81.8-23.2l11.3-122.1H375.4l1.9-40.7h101.1l1.5,23.3h40.8L511.8,317.3z"/>
			<path d="M510.8,316.3H349.1l-11.3,121.6l0.3-0.7h137.3l-4.5,51.4l-43.8,12.6l-44.4-12.8l-2.7-31.1h-40.4l5.8,62.2l81.7,23.2
				l81.8-23.2l11.3-122.1H374.4l1.9-40.7h101.1l1.5,23.3h40.8L510.8,316.3z"/>
			<path d="M509.8,315.3H348.1l-11.3,121.6l0.3-0.7h137.3l-4.5,51.4l-43.8,12.6l-44.4-12.8l-2.7-31.1h-40.4l5.8,62.2l81.7,23.2
				l81.8-23.2l11.3-122.1H373.4l1.9-40.7h101.1l1.5,23.3h40.8L509.8,315.3z"/>
			<path d="M508.8,314.3H347.1l-11.3,121.6l0.3-0.7h137.3l-4.5,51.4l-43.8,12.6l-44.4-12.8l-2.7-31.1h-40.4l5.8,62.2l81.7,23.2
				l81.8-23.2l11.3-122.1H372.4l1.9-40.7h101.1l1.5,23.3h40.8L508.8,314.3z"/>
			<path d="M507.8,313.3H346.1l-11.3,121.6l0.3-0.7h137.3l-4.5,51.4l-43.8,12.6l-44.4-12.8l-2.7-31.1h-40.4l5.8,62.2l81.7,23.2
				l81.8-23.2l11.3-122.1H371.4l1.9-40.7h101.1l1.5,23.3h40.8L507.8,313.3z"/>
			<path d="M506.8,312.3H345.1l-11.3,121.6l0.3-0.7h137.3l-4.5,51.4l-43.8,12.6l-44.4-12.8l-2.7-31.1h-40.4l5.8,62.2l81.7,23.2
				l81.8-23.2l11.3-122.1H370.4l1.9-40.7h101.1l1.5,23.3h40.8L506.8,312.3z"/>
			<path d="M505.8,311.3H344.1l-11.3,121.6l0.3-0.7h137.3l-4.5,51.4l-43.8,12.6l-44.4-12.8l-2.7-31.1h-40.4l5.8,62.2l81.7,23.2
				l81.8-23.2l11.3-122.1H369.4l1.9-40.7h101.1l1.5,23.3h40.8L505.8,311.3z"/>
			<path d="M504.8,310.3H343.1l-11.3,121.6l0.3-0.7h137.3l-4.5,51.4l-43.8,12.6l-44.4-12.8l-2.7-31.1h-40.4l5.8,62.2l81.7,23.2
				l81.8-23.2l11.3-122.1H368.4l1.9-40.7h101.1l1.5,23.3h40.8L504.8,310.3z"/>
			<path d="M503.8,309.3H342.1l-11.3,121.6l0.3-0.7h137.3l-4.5,51.4l-43.8,12.6l-44.4-12.8l-2.7-31.1h-40.4l5.8,62.2l81.7,23.2
				l81.8-23.2l11.3-122.1H367.4l1.9-40.7h101.1l1.5,23.3h40.8L503.8,309.3z"/>
			<path d="M502.8,308.3H341.1l-11.3,121.6l0.3-0.7h137.3l-4.5,51.4l-43.8,12.6l-44.4-12.8l-2.7-31.1h-40.4l5.8,62.2l81.7,23.2
				l81.8-23.2l11.3-122.1H366.4l1.9-40.7h101.1l1.5,23.3h40.8L502.8,308.3z"/>
			<path d="M501.8,307.3H340.1l-11.3,121.6l0.3-0.7h137.3l-4.5,51.4l-43.8,12.6l-44.4-12.8l-2.7-31.1h-40.4l5.8,62.2l81.7,23.2
				l81.8-23.2l11.3-122.1H365.4l1.9-40.7h101.1l1.5,23.3h40.8L501.8,307.3z"/>
			<path d="M500.8,306.3H339.1l-11.3,121.6l0.3-0.7h137.3l-4.5,51.4l-43.8,12.6l-44.4-12.8l-2.7-31.1h-40.4l5.8,62.2l81.7,23.2
				l81.8-23.2l11.3-122.1H364.4l1.9-40.7h101.1l1.5,23.3h40.8L500.8,306.3z"/>
			<path d="M499.8,305.3H338.1l-11.3,121.6l0.3-0.7h137.3l-4.5,51.4l-43.8,12.6l-44.4-12.8l-2.7-31.1h-40.4l5.8,62.2l81.7,23.2
				l81.8-23.2l11.3-122.1H363.4l1.9-40.7h101.1l1.5,23.3h40.8L499.8,305.3z"/>
			<path d="M498.8,304.3H337.1l-11.3,121.6l0.3-0.7h137.3l-4.5,51.4l-43.8,12.6l-44.4-12.8l-2.7-31.1h-40.4l5.8,62.2l81.7,23.2
				l81.8-23.2l11.3-122.1H362.4l1.9-40.7h101.1l1.5,23.3h40.8L498.8,304.3z"/>
			<path d="M497.8,303.3H336.1l-11.3,121.6l0.3-0.7h137.3l-4.5,51.4l-43.8,12.6l-44.4-12.8l-2.7-31.1h-40.4l5.8,62.2l81.7,23.2
				l81.8-23.2l11.3-122.1H361.4l1.9-40.7h101.1l1.5,23.3h40.8L497.8,303.3z"/>
			<path d="M496.8,302.3H335.1l-11.3,121.6l0.3-0.7h137.3l-4.5,51.4l-43.8,12.6l-44.4-12.8l-2.7-31.1h-40.4l5.8,62.2l81.7,23.2
				l81.8-23.2l11.3-122.1H360.4l1.9-40.7h101.1l1.5,23.3h40.8L496.8,302.3z"/>
			<path d="M495.8,301.3H334.1l-11.3,121.6l0.3-0.7h137.3l-4.5,51.4l-43.8,12.6l-44.4-12.8l-2.7-31.1h-40.4l5.8,62.2l81.7,23.2
				l81.8-23.2l11.3-122.1H359.4l1.9-40.7h101.1l1.5,23.3h40.8L495.8,301.3z"/>
			<path d="M494.8,300.3H333.1l-11.3,121.6l0.3-0.7h137.3l-4.5,51.4l-43.8,12.6l-44.4-12.8l-2.7-31.1h-40.4l5.8,62.2l81.7,23.2
				l81.8-23.2l11.3-122.1H358.4l1.9-40.7h101.1l1.5,23.3h40.8L494.8,300.3z"/>
			<path d="M493.8,299.3H332.1l-11.3,121.6l0.3-0.7h137.3l-4.5,51.4l-43.8,12.6l-44.4-12.8l-2.7-31.1h-40.4l5.8,62.2l81.7,23.2
				l81.8-23.2l11.3-122.1H357.4l1.9-40.7h101.1l1.5,23.3h40.8L493.8,299.3z"/>
			<path d="M492.8,298.3H331.1l-11.3,121.6l0.3-0.7h137.3l-4.5,51.4l-43.8,12.6l-44.4-12.8l-2.7-31.1h-40.4l5.8,62.2l81.7,23.2
				l81.8-23.2l11.3-122.1H356.4l1.9-40.7h101.1l1.5,23.3h40.8L492.8,298.3z"/>
			<path d="M491.8,297.3H330.1l-11.3,121.6l0.3-0.7h137.3l-4.5,51.4l-43.8,12.6l-44.4-12.8l-2.7-31.1h-40.4l5.8,62.2l81.7,23.2
				l81.8-23.2l11.3-122.1H355.4l1.9-40.7h101.1l1.5,23.3h40.8L491.8,297.3z"/>
			<path d="M490.8,296.3H329.1l-11.3,121.6l0.3-0.7h137.3l-4.5,51.4l-43.8,12.6l-44.4-12.8l-2.7-31.1h-40.4l5.8,62.2l81.7,23.2
				l81.8-23.2l11.3-122.1H354.4l1.9-40.7h101.1l1.5,23.3h40.8L490.8,296.3z"/>
			<path d="M489.8,295.3H328.1l-11.3,121.6l0.3-0.7h137.3l-4.5,51.4l-43.8,12.6l-44.4-12.8l-2.7-31.1h-40.4l5.8,62.2l81.7,23.2
				l81.8-23.2l11.3-122.1H353.4l1.9-40.7h101.1l1.5,23.3h40.8L489.8,295.3z"/>
			<path d="M488.8,294.3H327.1l-11.3,121.6l0.3-0.7h137.3l-4.5,51.4l-43.8,12.6l-44.4-12.8l-2.7-31.1h-40.4l5.8,62.2l81.7,23.2
				l81.8-23.2l11.3-122.1H352.4l1.9-40.7h101.1l1.5,23.3h40.8L488.8,294.3z"/>
			<path d="M487.8,293.3H326.1l-11.3,121.6l0.3-0.7h137.3l-4.5,51.4l-43.8,12.6l-44.4-12.8l-2.7-31.1h-40.4l5.8,62.2l81.7,23.2
				l81.8-23.2l11.3-122.1H351.4l1.9-40.7h101.1l1.5,23.3h40.8L487.8,293.3z"/>
			<path d="M486.8,292.3H325.1l-11.3,121.6l0.3-0.7h137.3l-4.5,51.4l-43.8,12.6l-44.4-12.8l-2.7-31.1h-40.4l5.8,62.2l81.7,23.2
				l81.8-23.2l11.3-122.1H350.4l1.9-40.7h101.1l1.5,23.3h40.8L486.8,292.3z"/>
			<path d="M485.8,291.3H324.1l-11.3,121.6l0.3-0.7h137.3l-4.5,51.4l-43.8,12.6l-44.4-12.8l-2.7-31.1h-40.4l5.8,62.2l81.7,23.2
				l81.8-23.2l11.3-122.1H349.4l1.9-40.7h101.1l1.5,23.3h40.8L485.8,291.3z"/>
			<path d="M484.8,290.3H323.1l-11.3,121.6l0.3-0.7h137.3l-4.5,51.4l-43.8,12.6l-44.4-12.8l-2.7-31.1h-40.4l5.8,62.2l81.7,23.2
				l81.8-23.2l11.3-122.1H348.4l1.9-40.7h101.1l1.5,23.3h40.8L484.8,290.3z"/>
			<path d="M483.8,289.3H322.1l-11.3,121.6l0.3-0.7h137.3l-4.5,51.4l-43.8,12.6l-44.4-12.8l-2.7-31.1h-40.4l5.8,62.2l81.7,23.2
				l81.8-23.2l11.3-122.1H347.4l1.9-40.7h101.1l1.5,23.3h40.8L483.8,289.3z"/>
			<path d="M482.8,288.3H321.1l-11.3,121.6l0.3-0.7h137.3l-4.5,51.4l-43.8,12.6l-44.4-12.8l-2.7-31.1h-40.4l5.8,62.2l81.7,23.2
				l81.8-23.2l11.3-122.1H346.4l1.9-40.7h101.1l1.5,23.3h40.8L482.8,288.3z"/>
			<path d="M481.8,287.3H320.1l-11.3,121.6l0.3-0.7h137.3l-4.5,51.4l-43.8,12.6l-44.4-12.8l-2.7-31.1h-40.4l5.8,62.2l81.7,23.2
				l81.8-23.2l11.3-122.1H345.4l1.9-40.7h101.1l1.5,23.3h40.8L481.8,287.3z"/>
			<path d="M480.8,286.3H319.1l-11.3,121.6l0.3-0.7h137.3l-4.5,51.4l-43.8,12.6l-44.4-12.8l-2.7-31.1h-40.4l5.8,62.2l81.7,23.2
				l81.8-23.2l11.3-122.1H344.4l1.9-40.7h101.1l1.5,23.3h40.8L480.8,286.3z"/>
			<path d="M479.8,285.3H318.1l-11.3,121.6l0.3-0.7h137.3l-4.5,51.4l-43.8,12.6l-44.4-12.8l-2.7-31.1h-40.4l5.8,62.2l81.7,23.2
				l81.8-23.2l11.3-122.1H343.4l1.9-40.7h101.1l1.5,23.3h40.8L479.8,285.3z"/>
			<path d="M478.8,284.3H317.1l-11.3,121.6l0.3-0.7h137.3l-4.5,51.4l-43.8,12.6l-44.4-12.8l-2.7-31.1h-40.4l5.8,62.2l81.7,23.2
				l81.8-23.2l11.3-122.1H342.4l1.9-40.7h101.1l1.5,23.3h40.8L478.8,284.3z"/>
			<path d="M477.8,283.3H316.1l-11.3,121.6l0.3-0.7h137.3l-4.5,51.4l-43.8,12.6l-44.4-12.8l-2.7-31.1h-40.4l5.8,62.2l81.7,23.2
				l81.8-23.2l11.3-122.1H341.4l1.9-40.7h101.1l1.5,23.3h40.8L477.8,283.3z"/>
			<path d="M476.8,282.3H315.1l-11.3,121.6l0.3-0.7h137.3l-4.5,51.4l-43.8,12.6l-44.4-12.8l-2.7-31.1h-40.4l5.8,62.2l81.7,23.2
				l81.8-23.2l11.3-122.1H340.4l1.9-40.7h101.1l1.5,23.3h40.8L476.8,282.3z"/>
			<path d="M475.8,281.3H314.1l-11.3,121.6l0.3-0.7h137.3l-4.5,51.4l-43.8,12.6l-44.4-12.8l-2.7-31.1h-40.4l5.8,62.2l81.7,23.2
				l81.8-23.2l11.3-122.1H339.4l1.9-40.7h101.1l1.5,23.3h40.8L475.8,281.3z"/>
			<path d="M474.8,280.3H313.1l-11.3,121.6l0.3-0.7h137.3l-4.5,51.4l-43.8,12.6l-44.4-12.8l-2.7-31.1h-40.4l5.8,62.2l81.7,23.2
				l81.8-23.2l11.3-122.1H338.4l1.9-40.7h101.1l1.5,23.3h40.8L474.8,280.3z"/>
			<path d="M473.8,279.3H312.1l-11.3,121.6l0.3-0.7h137.3l-4.5,51.4l-43.8,12.6l-44.4-12.8l-2.7-31.1h-40.4l5.8,62.2l81.7,23.2
				l81.8-23.2l11.3-122.1H337.4l1.9-40.7h101.1l1.5,23.3h40.8L473.8,279.3z"/>
			<path d="M472.8,278.3H311.1l-11.3,121.6l0.3-0.7h137.3l-4.5,51.4l-43.8,12.6l-44.4-12.8l-2.7-31.1h-40.4l5.8,62.2l81.7,23.2
				l81.8-23.2l11.3-122.1H336.4l1.9-40.7h101.1l1.5,23.3h40.8L472.8,278.3z"/>
			<path d="M471.8,277.3H310.1l-11.3,121.6l0.3-0.7h137.3l-4.5,51.4l-43.8,12.6l-44.4-12.8l-2.7-31.1h-40.4l5.8,62.2l81.7,23.2
				l81.8-23.2l11.3-122.1H335.4l1.9-40.7h101.1l1.5,23.3h40.8L471.8,277.3z"/>
			<path d="M470.8,276.3H309.1l-11.3,121.6l0.3-0.7h137.3l-4.5,51.4l-43.8,12.6l-44.4-12.8l-2.7-31.1h-40.4l5.8,62.2l81.7,23.2
				l81.8-23.2l11.3-122.1H334.4l1.9-40.7h101.1l1.5,23.3h40.8L470.8,276.3z"/>
			<path d="M469.8,275.3H308.1l-11.3,121.6l0.3-0.7h137.3l-4.5,51.4l-43.8,12.6l-44.4-12.8l-2.7-31.1h-40.4l5.8,62.2l81.7,23.2
				l81.8-23.2l11.3-122.1H333.4l1.9-40.7h101.1l1.5,23.3h40.8L469.8,275.3z"/>
			<path d="M468.8,274.3H307.1l-11.3,121.6l0.3-0.7h137.3l-4.5,51.4l-43.8,12.6l-44.4-12.8l-2.7-31.1h-40.4l5.8,62.2l81.7,23.2
				l81.8-23.2l11.3-122.1H332.4l1.9-40.7h101.1l1.5,23.3h40.8L468.8,274.3z"/>
			<path d="M467.8,273.3H306.1l-11.3,121.6l0.3-0.7h137.3l-4.5,51.4l-43.8,12.6l-44.4-12.8l-2.7-31.1h-40.4l5.8,62.2l81.7,23.2
				l81.8-23.2l11.3-122.1H331.4l1.9-40.7h101.1l1.5,23.3h40.8L467.8,273.3z"/>
			<path d="M466.8,272.3H305.1l-11.3,121.6l0.3-0.7h137.3l-4.5,51.4l-43.8,12.6l-44.4-12.8l-2.7-31.1h-40.4l5.8,62.2l81.7,23.2
				l81.8-23.2l11.3-122.1H330.4l1.9-40.7h101.1l1.5,23.3h40.8L466.8,272.3z"/>
			<path d="M465.8,271.3H304.1l-11.3,121.6l0.3-0.7h137.3l-4.5,51.4l-43.8,12.6l-44.4-12.8l-2.7-31.1h-40.4l5.8,62.2l81.7,23.2
				l81.8-23.2l11.3-122.1H329.4l1.9-40.7h101.1l1.5,23.3h40.8L465.8,271.3z"/>
			<path d="M464.8,270.3H303.1l-11.3,121.6l0.3-0.7h137.3l-4.5,51.4l-43.8,12.6l-44.4-12.8l-2.7-31.1h-40.4l5.8,62.2l81.7,23.2
				l81.8-23.2l11.3-122.1H328.4l1.9-40.7h101.1l1.5,23.3h40.8L464.8,270.3z"/>
			<path d="M463.8,269.3H302.1l-11.3,121.6l0.3-0.7h137.3l-4.5,51.4l-43.8,12.6l-44.4-12.8l-2.7-31.1h-40.4l5.8,62.2l81.7,23.2
				l81.8-23.2l11.3-122.1H327.4l1.9-40.7h101.1l1.5,23.3h40.8L463.8,269.3z"/>
			<path d="M462.8,268.3H301.1l-11.3,121.6l0.3-0.7h137.3l-4.5,51.4l-43.8,12.6l-44.4-12.8l-2.7-31.1h-40.4l5.8,62.2l81.7,23.2
				l81.8-23.2l11.3-122.1H326.4l1.9-40.7h101.1l1.5,23.3h40.8L462.8,268.3z"/>
			<path d="M461.8,267.3H300.1l-11.3,121.6l0.3-0.7h137.3l-4.5,51.4l-43.8,12.6l-44.4-12.8l-2.7-31.1h-40.4l5.8,62.2l81.7,23.2
				l81.8-23.2l11.3-122.1H325.4l1.9-40.7h101.1l1.5,23.3h40.8L461.8,267.3z"/>
			<path d="M460.8,266.3H299.1l-11.3,121.6l0.3-0.7h137.3l-4.5,51.4l-43.8,12.6l-44.4-12.8l-2.7-31.1h-40.4l5.8,62.2l81.7,23.2
				l81.8-23.2l11.3-122.1H324.4l1.9-40.7h101.1l1.5,23.3h40.8L460.8,266.3z"/>
			<path d="M459.8,265.3H298.1l-11.3,121.6l0.3-0.7h137.3l-4.5,51.4l-43.8,12.6l-44.4-12.8l-2.7-31.1h-40.4l5.8,62.2l81.7,23.2
				l81.8-23.2l11.3-122.1H323.4l1.9-40.7h101.1l1.5,23.3h40.8L459.8,265.3z"/>
			<path d="M458.8,264.3H297.1l-11.3,121.6l0.3-0.7h137.3l-4.5,51.4l-43.8,12.6l-44.4-12.8l-2.7-31.1h-40.4l5.8,62.2l81.7,23.2
				l81.8-23.2l11.3-122.1H322.4l1.9-40.7h101.1l1.5,23.3h40.8L458.8,264.3z"/>
			<path d="M457.8,263.3H296.1l-11.3,121.6l0.3-0.7h137.3l-4.5,51.4l-43.8,12.6l-44.4-12.8l-2.7-31.1h-40.4l5.8,62.2l81.7,23.2
				l81.8-23.2l11.3-122.1H321.4l1.9-40.7h101.1l1.5,23.3h40.8L457.8,263.3z"/>
			<path d="M456.8,262.3H295.1l-11.3,121.6l0.3-0.7h137.3l-4.5,51.4l-43.8,12.6l-44.4-12.8l-2.7-31.1h-40.4l5.8,62.2l81.7,23.2
				l81.8-23.2l11.3-122.1H320.4l1.9-40.7h101.1l1.5,23.3h40.8L456.8,262.3z"/>
			<path d="M455.8,261.3H294.1l-11.3,121.6l0.3-0.7h137.3l-4.5,51.4l-43.8,12.6l-44.4-12.8l-2.7-31.1h-40.4l5.8,62.2l81.7,23.2
				l81.8-23.2l11.3-122.1H319.4l1.9-40.7h101.1l1.5,23.3h40.8L455.8,261.3z"/>
			<path d="M454.8,260.3H293.1l-11.3,121.6l0.3-0.7h137.3l-4.5,51.4l-43.8,12.6l-44.4-12.8l-2.7-31.1h-40.4l5.8,62.2l81.7,23.2
				l81.8-23.2l11.3-122.1H318.4l1.9-40.7h101.1l1.5,23.3h40.8L454.8,260.3z"/>
			<path d="M453.8,259.3H292.1l-11.3,121.6l0.3-0.7h137.3l-4.5,51.4l-43.8,12.6l-44.4-12.8l-2.7-31.1h-40.4l5.8,62.2l81.7,23.2
				l81.8-23.2l11.3-122.1H317.4l1.9-40.7h101.1l1.5,23.3h40.8L453.8,259.3z"/>
			<path d="M452.8,258.3H291.1l-11.3,121.6l0.3-0.7h137.3l-4.5,51.4l-43.8,12.6l-44.4-12.8l-2.7-31.1h-40.4l5.8,62.2l81.7,23.2
				l81.8-23.2l11.3-122.1H316.4l1.9-40.7h101.1l1.5,23.3h40.8L452.8,258.3z"/>
			<path d="M451.8,257.3H290.1l-11.3,121.6l0.3-0.7h137.3l-4.5,51.4l-43.8,12.6l-44.4-12.8l-2.7-31.1h-40.4l5.8,62.2l81.7,23.2
				l81.8-23.2l11.3-122.1H315.4l1.9-40.7h101.1l1.5,23.3h40.8L451.8,257.3z"/>
			<path d="M450.8,256.3H289.1l-11.3,121.6l0.3-0.7h137.3l-4.5,51.4l-43.8,12.6l-44.4-12.8l-2.7-31.1h-40.4l5.8,62.2l81.7,23.2
				l81.8-23.2l11.3-122.1H314.4l1.9-40.7h101.1l1.5,23.3h40.8L450.8,256.3z"/>
			<path d="M449.8,255.3H288.1l-11.3,121.6l0.3-0.7h137.3l-4.5,51.4l-43.8,12.6l-44.4-12.8l-2.7-31.1h-40.4l5.8,62.2l81.7,23.2
				l81.8-23.2l11.3-122.1H313.4l1.9-40.7h101.1l1.5,23.3h40.8L449.8,255.3z"/>
			<path d="M448.8,254.3H287.1l-11.3,121.6l0.3-0.7h137.3l-4.5,51.4l-43.8,12.6l-44.4-12.8l-2.7-31.1h-40.4l5.8,62.2l81.7,23.2
				l81.8-23.2l11.3-122.1H312.4l1.9-40.7h101.1l1.5,23.3h40.8L448.8,254.3z"/>
			<path d="M447.8,253.3H286.1l-11.3,121.6l0.3-0.7h137.3l-4.5,51.4l-43.8,12.6l-44.4-12.8l-2.7-31.1h-40.4l5.8,62.2l81.7,23.2
				l81.8-23.2l11.3-122.1H311.4l1.9-40.7h101.1l1.5,23.3h40.8L447.8,253.3z"/>
			<path d="M446.8,252.3H285.1l-11.3,121.6l0.3-0.7h137.3l-4.5,51.4l-43.8,12.6l-44.4-12.8l-2.7-31.1h-40.4l5.8,62.2l81.7,23.2
				l81.8-23.2l11.3-122.1H310.4l1.9-40.7h101.1l1.5,23.3h40.8L446.8,252.3z"/>
			<path d="M445.8,251.3H284.1l-11.3,121.6l0.3-0.7h137.3l-4.5,51.4l-43.8,12.6l-44.4-12.8l-2.7-31.1h-40.4l5.8,62.2l81.7,23.2
				l81.8-23.2l11.3-122.1H309.4l1.9-40.7h101.1l1.5,23.3h40.8L445.8,251.3z"/>
			<path d="M444.8,250.3H283.1l-11.3,121.6l0.3-0.7h137.3l-4.5,51.4l-43.8,12.6l-44.4-12.8l-2.7-31.1h-40.4l5.8,62.2l81.7,23.2
				l81.8-23.2l11.3-122.1H308.4l1.9-40.7h101.1l1.5,23.3h40.8L444.8,250.3z"/>
			<path d="M443.8,249.3H282.1l-11.3,121.6l0.3-0.7h137.3l-4.5,51.4l-43.8,12.6l-44.4-12.8l-2.7-31.1h-40.4l5.8,62.2l81.7,23.2
				l81.8-23.2l11.3-122.1H307.4l1.9-40.7h101.1l1.5,23.3h40.8L443.8,249.3z"/>
			<path d="M442.8,248.3H281.1l-11.3,121.6l0.3-0.7h137.3l-4.5,51.4l-43.8,12.6l-44.4-12.8l-2.7-31.1h-40.4l5.8,62.2l81.7,23.2
				l81.8-23.2l11.3-122.1H306.4l1.9-40.7h101.1l1.5,23.3h40.8L442.8,248.3z"/>
			<path d="M441.8,247.3H280.1l-11.3,121.6l0.3-0.7h137.3l-4.5,51.4l-43.8,12.6l-44.4-12.8l-2.7-31.1h-40.4l5.8,62.2l81.7,23.2
				l81.8-23.2l11.3-122.1H305.4l1.9-40.7h101.1l1.5,23.3h40.8L441.8,247.3z"/>
			<path d="M440.8,246.3H279.1l-11.3,121.6l0.3-0.7h137.3l-4.5,51.4l-43.8,12.6l-44.4-12.8l-2.7-31.1h-40.4l5.8,62.2l81.7,23.2
				l81.8-23.2l11.3-122.1H304.4l1.9-40.7h101.1l1.5,23.3h40.8L440.8,246.3z"/>
			<path d="M439.8,245.3H278.1l-11.3,121.6l0.3-0.7h137.3l-4.5,51.4l-43.8,12.6l-44.4-12.8l-2.7-31.1h-40.4l5.8,62.2l81.7,23.2
				l81.8-23.2l11.3-122.1H303.4l1.9-40.7h101.1l1.5,23.3h40.8L439.8,245.3z"/>
			<path d="M438.8,244.3H277.1l-11.3,121.6l0.3-0.7h137.3l-4.5,51.4l-43.8,12.6l-44.4-12.8l-2.7-31.1h-40.4l5.8,62.2l81.7,23.2
				l81.8-23.2l11.3-122.1H302.4l1.9-40.7h101.1l1.5,23.3h40.8L438.8,244.3z"/>
			<path d="M437.8,243.3H276.1l-11.3,121.6l0.3-0.7h137.3l-4.5,51.4l-43.8,12.6l-44.4-12.8l-2.7-31.1h-40.4l5.8,62.2l81.7,23.2
				l81.8-23.2l11.3-122.1H301.4l1.9-40.7h101.1l1.5,23.3h40.8L437.8,243.3z"/>
			<path d="M436.8,242.3H275.1l-11.3,121.6l0.3-0.7h137.3l-4.5,51.4l-43.8,12.6l-44.4-12.8l-2.7-31.1h-40.4l5.8,62.2l81.7,23.2
				l81.8-23.2l11.3-122.1H300.4l1.9-40.7h101.1l1.5,23.3h40.8L436.8,242.3z"/>
			<path d="M435.8,241.3H274.1l-11.3,121.6l0.3-0.7h137.3l-4.5,51.4l-43.8,12.6l-44.4-12.8l-2.7-31.1h-40.4l5.8,62.2l81.7,23.2
				l81.8-23.2l11.3-122.1H299.4l1.9-40.7h101.1l1.5,23.3h40.8L435.8,241.3z"/>
			<path d="M434.8,240.3H273.1l-11.3,121.6l0.3-0.7h137.3l-4.5,51.4l-43.8,12.6l-44.4-12.8l-2.7-31.1h-40.4l5.8,62.2l81.7,23.2
				l81.8-23.2l11.3-122.1H298.4l1.9-40.7h101.1l1.5,23.3h40.8L434.8,240.3z"/>
			<path d="M433.8,239.3H272.1l-11.3,121.6l0.3-0.7h137.3l-4.5,51.4l-43.8,12.6l-44.4-12.8l-2.7-31.1h-40.4l5.8,62.2l81.7,23.2
				l81.8-23.2l11.3-122.1H297.4l1.9-40.7h101.1l1.5,23.3h40.8L433.8,239.3z"/>
			<path d="M432.8,238.3H271.1l-11.3,121.6l0.3-0.7h137.3l-4.5,51.4l-43.8,12.6l-44.4-12.8l-2.7-31.1h-40.4l5.8,62.2l81.7,23.2
				l81.8-23.2l11.3-122.1H296.4l1.9-40.7h101.1l1.5,23.3h40.8L432.8,238.3z"/>
			<path d="M431.8,237.3H270.1l-11.3,121.6l0.3-0.7h137.3l-4.5,51.4l-43.8,12.6l-44.4-12.8l-2.7-31.1h-40.4l5.8,62.2l81.7,23.2
				l81.8-23.2l11.3-122.1H295.4l1.9-40.7h101.1l1.5,23.3h40.8L431.8,237.3z"/>
			<path d="M430.8,236.3H269.1l-11.3,121.6l0.3-0.7h137.3l-4.5,51.4l-43.8,12.6l-44.4-12.8l-2.7-31.1h-40.4l5.8,62.2l81.7,23.2
				l81.8-23.2l11.3-122.1H294.4l1.9-40.7h101.1l1.5,23.3h40.8L430.8,236.3z"/>
			<path d="M429.8,235.3H268.1l-11.3,121.6l0.3-0.7h137.3l-4.5,51.4l-43.8,12.6l-44.4-12.8l-2.7-31.1h-40.4l5.8,62.2l81.7,23.2
				l81.8-23.2l11.3-122.1H293.4l1.9-40.7h101.1l1.5,23.3h40.8L429.8,235.3z"/>
			<path d="M428.8,234.3H267.1l-11.3,121.6l0.3-0.7h137.3l-4.5,51.4l-43.8,12.6l-44.4-12.8l-2.7-31.1h-40.4l5.8,62.2l81.7,23.2
				l81.8-23.2l11.3-122.1H292.4l1.9-40.7h101.1l1.5,23.3h40.8L428.8,234.3z"/>
			<path d="M427.8,233.3H266.1l-11.3,121.6l0.3-0.7h137.3l-4.5,51.4l-43.8,12.6l-44.4-12.8l-2.7-31.1h-40.4l5.8,62.2l81.7,23.2
				l81.8-23.2l11.3-122.1H291.4l1.9-40.7h101.1l1.5,23.3h40.8L427.8,233.3z"/>
			<path d="M426.8,232.3H265.1l-11.3,121.6l0.3-0.7h137.3l-4.5,51.4l-43.8,12.6l-44.4-12.8l-2.7-31.1h-40.4l5.8,62.2l81.7,23.2
				l81.8-23.2l11.3-122.1H290.4l1.9-40.7h101.1l1.5,23.3h40.8L426.8,232.3z"/>
			<path d="M425.8,231.3H264.1l-11.3,121.6l0.3-0.7h137.3l-4.5,51.4l-43.8,12.6l-44.4-12.8l-2.7-31.1h-40.4l5.8,62.2l81.7,23.2
				l81.8-23.2l11.3-122.1H289.4l1.9-40.7h101.1l1.5,23.3h40.8L425.8,231.3z"/>
			<path d="M424.8,230.3H263.1l-11.3,121.6l0.3-0.7h137.3l-4.5,51.4l-43.8,12.6l-44.4-12.8l-2.7-31.1h-40.4l5.8,62.2l81.7,23.2
				l81.8-23.2l11.3-122.1H288.4l1.9-40.7h101.1l1.5,23.3h40.8L424.8,230.3z"/>
			<path d="M423.8,229.3H262.1l-11.3,121.6l0.3-0.7h137.3l-4.5,51.4l-43.8,12.6l-44.4-12.8l-2.7-31.1h-40.4l5.8,62.2l81.7,23.2
				l81.8-23.2l11.3-122.1H287.4l1.9-40.7h101.1l1.5,23.3h40.8L423.8,229.3z"/>
			<path d="M422.8,228.3H261.1l-11.3,121.6l0.3-0.7h137.3l-4.5,51.4l-43.8,12.6l-44.4-12.8l-2.7-31.1h-40.4l5.8,62.2l81.7,23.2
				l81.8-23.2l11.3-122.1H286.4l1.9-40.7h101.1l1.5,23.3h40.8L422.8,228.3z"/>
			<path d="M421.8,227.3H260.1l-11.3,121.6l0.3-0.7h137.3l-4.5,51.4l-43.8,12.6l-44.4-12.8l-2.7-31.1h-40.4l5.8,62.2l81.7,23.2
				l81.8-23.2l11.3-122.1H285.4l1.9-40.7h101.1l1.5,23.3h40.8L421.8,227.3z"/>
			<path d="M420.8,226.3H259.1l-11.3,121.6l0.3-0.7h137.3l-4.5,51.4l-43.8,12.6l-44.4-12.8l-2.7-31.1h-40.4l5.8,62.2l81.7,23.2
				l81.8-23.2l11.3-122.1H284.4l1.9-40.7h101.1l1.5,23.3h40.8L420.8,226.3z"/>
			<path d="M419.8,225.3H258.1l-11.3,121.6l0.3-0.7h137.3l-4.5,51.4l-43.8,12.6l-44.4-12.8l-2.7-31.1h-40.4l5.8,62.2l81.7,23.2
				l81.8-23.2l11.3-122.1H283.4l1.9-40.7h101.1l1.5,23.3h40.8L419.8,225.3z"/>
			<path d="M418.8,224.3H257.1l-11.3,121.6l0.3-0.7h137.3l-4.5,51.4l-43.8,12.6l-44.4-12.8l-2.7-31.1h-40.4l5.8,62.2l81.7,23.2
				l81.8-23.2l11.3-122.1H282.4l1.9-40.7h101.1l1.5,23.3h40.8L418.8,224.3z"/>
			<path d="M417.8,223.3H256.1l-11.3,121.6l0.3-0.7h137.3l-4.5,51.4l-43.8,12.6l-44.4-12.8l-2.7-31.1h-40.4l5.8,62.2l81.7,23.2
				l81.8-23.2l11.3-122.1H281.4l1.9-40.7h101.1l1.5,23.3h40.8L417.8,223.3z"/>
			<path d="M416.8,222.3H255.1l-11.3,121.6l0.3-0.7h137.3l-4.5,51.4l-43.8,12.6l-44.4-12.8l-2.7-31.1h-40.4l5.8,62.2l81.7,23.2
				l81.8-23.2l11.3-122.1H280.4l1.9-40.7h101.1l1.5,23.3h40.8L416.8,222.3z"/>
			<path d="M415.8,221.3H254.1l-11.3,121.6l0.3-0.7h137.3l-4.5,51.4l-43.8,12.6l-44.4-12.8l-2.7-31.1h-40.4l5.8,62.2l81.7,23.2
				l81.8-23.2l11.3-122.1H279.4l1.9-40.7h101.1l1.5,23.3h40.8L415.8,221.3z"/>
			<path d="M414.8,220.3H253.1l-11.3,121.6l0.3-0.7h137.3l-4.5,51.4l-43.8,12.6l-44.4-12.8l-2.7-31.1h-40.4l5.8,62.2l81.7,23.2
				l81.8-23.2l11.3-122.1H278.4l1.9-40.7h101.1l1.5,23.3h40.8L414.8,220.3z"/>
			<path d="M413.8,219.3H252.1l-11.3,121.6l0.3-0.7h137.3l-4.5,51.4l-43.8,12.6l-44.4-12.8l-2.7-31.1h-40.4l5.8,62.2l81.7,23.2
				l81.8-23.2l11.3-122.1H277.4l1.9-40.7h101.1l1.5,23.3h40.8L413.8,219.3z"/>
			<path d="M412.8,218.3H251.1l-11.3,121.6l0.3-0.7h137.3l-4.5,51.4l-43.8,12.6l-44.4-12.8l-2.7-31.1h-40.4l5.8,62.2l81.7,23.2
				l81.8-23.2l11.3-122.1H276.4l1.9-40.7h101.1l1.5,23.3h40.8L412.8,218.3z"/>
			<path d="M411.8,217.3H250.1l-11.3,121.6l0.3-0.7h137.3l-4.5,51.4l-43.8,12.6l-44.4-12.8l-2.7-31.1h-40.4l5.8,62.2l81.7,23.2
				l81.8-23.2l11.3-122.1H275.4l1.9-40.7h101.1l1.5,23.3h40.8L411.8,217.3z"/>
			<path d="M410.8,216.3H249.1l-11.3,121.6l0.3-0.7h137.3l-4.5,51.4l-43.8,12.6l-44.4-12.8l-2.7-31.1h-40.4l5.8,62.2l81.7,23.2
				l81.8-23.2l11.3-122.1H274.4l1.9-40.7h101.1l1.5,23.3h40.8L410.8,216.3z"/>
			<path d="M409.8,215.3H248.1l-11.3,121.6l0.3-0.7h137.3l-4.5,51.4l-43.8,12.6l-44.4-12.8l-2.7-31.1h-40.4l5.8,62.2l81.7,23.2
				l81.8-23.2l11.3-122.1H273.4l1.9-40.7h101.1l1.5,23.3h40.8L409.8,215.3z"/>
			<path d="M408.8,214.3H247.1l-11.3,121.6l0.3-0.7h137.3l-4.5,51.4l-43.8,12.6l-44.4-12.8l-2.7-31.1h-40.4l5.8,62.2l81.7,23.2
				l81.8-23.2l11.3-122.1H272.4l1.9-40.7h101.1l1.5,23.3h40.8L408.8,214.3z"/>
			<path d="M407.8,213.3H246.1l-11.3,121.6l0.3-0.7h137.3l-4.5,51.4l-43.8,12.6l-44.4-12.8l-2.7-31.1h-40.4l5.8,62.2l81.7,23.2
				l81.8-23.2l11.3-122.1H271.4l1.9-40.7h101.1l1.5,23.3h40.8L407.8,213.3z"/>
			<path d="M406.8,212.3H245.1l-11.3,121.6l0.3-0.7h137.3l-4.5,51.4l-43.8,12.6l-44.4-12.8l-2.7-31.1h-40.4l5.8,62.2l81.7,23.2
				l81.8-23.2l11.3-122.1H270.4l1.9-40.7h101.1l1.5,23.3h40.8L406.8,212.3z"/>
			<path d="M405.8,211.3H244.1l-11.3,121.6l0.3-0.7h137.3l-4.5,51.4l-43.8,12.6l-44.4-12.8l-2.7-31.1h-40.4l5.8,62.2l81.7,23.2
				l81.8-23.2l11.3-122.1H269.4l1.9-40.7h101.1l1.5,23.3h40.8L405.8,211.3z"/>
			<path d="M404.8,210.3H243.1l-11.3,121.6l0.3-0.7h137.3l-4.5,51.4l-43.8,12.6l-44.4-12.8l-2.7-31.1h-40.4l5.8,62.2l81.7,23.2
				l81.8-23.2l11.3-122.1H268.4l1.9-40.7h101.1l1.5,23.3h40.8L404.8,210.3z"/>
			<path d="M403.8,209.3H242.1l-11.3,121.6l0.3-0.7h137.3l-4.5,51.4l-43.8,12.6l-44.4-12.8l-2.7-31.1h-40.4l5.8,62.2l81.7,23.2
				l81.8-23.2l11.3-122.1H267.4l1.9-40.7h101.1l1.5,23.3h40.8L403.8,209.3z"/>
			<path d="M402.8,208.3H241.1l-11.3,121.6l0.3-0.7h137.3l-4.5,51.4l-43.8,12.6l-44.4-12.8l-2.7-31.1h-40.4l5.8,62.2l81.7,23.2
				l81.8-23.2l11.3-122.1H266.4l1.9-40.7h101.1l1.5,23.3h40.8L402.8,208.3z"/>
			<path d="M401.8,207.3H240.1l-11.3,121.6l0.3-0.7h137.3l-4.5,51.4l-43.8,12.6l-44.4-12.8l-2.7-31.1h-40.4l5.8,62.2l81.7,23.2
				l81.8-23.2l11.3-122.1H265.4l1.9-40.7h101.1l1.5,23.3h40.8L401.8,207.3z"/>
			<path d="M400.8,206.3H239.1l-11.3,121.6l0.3-0.7h137.3l-4.5,51.4l-43.8,12.6l-44.4-12.8l-2.7-31.1h-40.4l5.8,62.2l81.7,23.2
				l81.8-23.2l11.3-122.1H264.4l1.9-40.7h101.1l1.5,23.3h40.8L400.8,206.3z"/>
			<path d="M399.8,205.3H238.1l-11.3,121.6l0.3-0.7h137.3l-4.5,51.4l-43.8,12.6l-44.4-12.8l-2.7-31.1h-40.4l5.8,62.2l81.7,23.2
				l81.8-23.2l11.3-122.1H263.4l1.9-40.7h101.1l1.5,23.3h40.8L399.8,205.3z"/>
			<path d="M398.8,204.3H237.1l-11.3,121.6l0.3-0.7h137.3l-4.5,51.4l-43.8,12.6l-44.4-12.8l-2.7-31.1h-40.4l5.8,62.2l81.7,23.2
				l81.8-23.2l11.3-122.1H262.4l1.9-40.7h101.1l1.5,23.3h40.8L398.8,204.3z"/>
			<path d="M397.8,203.3H236.1l-11.3,121.6l0.3-0.7h137.3l-4.5,51.4l-43.8,12.6l-44.4-12.8l-2.7-31.1h-40.4l5.8,62.2l81.7,23.2
				l81.8-23.2l11.3-122.1H261.4l1.9-40.7h101.1l1.5,23.3h40.8L397.8,203.3z"/>
			<path d="M396.8,202.3H235.1l-11.3,121.6l0.3-0.7h137.3l-4.5,51.4l-43.8,12.6l-44.4-12.8l-2.7-31.1h-40.4l5.8,62.2l81.7,23.2
				l81.8-23.2l11.3-122.1H260.4l1.9-40.7h101.1l1.5,23.3h40.8L396.8,202.3z"/>
			<path d="M395.8,201.3H234.1l-11.3,121.6l0.3-0.7h137.3l-4.5,51.4l-43.8,12.6l-44.4-12.8l-2.7-31.1h-40.4l5.8,62.2l81.7,23.2
				l81.8-23.2l11.3-122.1H259.4l1.9-40.7h101.1l1.5,23.3h40.8L395.8,201.3z"/>
			<path d="M394.8,200.3H233.1l-11.3,121.6l0.3-0.7h137.3l-4.5,51.4l-43.8,12.6l-44.4-12.8l-2.7-31.1h-40.4l5.8,62.2l81.7,23.2
				l81.8-23.2l11.3-122.1H258.4l1.9-40.7h101.1l1.5,23.3h40.8L394.8,200.3z"/>
			<path d="M393.8,199.3H232.1l-11.3,121.6l0.3-0.7h137.3l-4.5,51.4l-43.8,12.6l-44.4-12.8l-2.7-31.1h-40.4l5.8,62.2l81.7,23.2
				l81.8-23.2l11.3-122.1H257.4l1.9-40.7h101.1l1.5,23.3h40.8L393.8,199.3z"/>
			<path d="M392.8,198.3H231.1l-11.3,121.6l0.3-0.7h137.3l-4.5,51.4l-43.8,12.6l-44.4-12.8l-2.7-31.1h-40.4l5.8,62.2l81.7,23.2
				l81.8-23.2l11.3-122.1H256.4l1.9-40.7h101.1l1.5,23.3h40.8L392.8,198.3z"/>
			<path d="M391.8,197.3H230.1l-11.3,121.6l0.3-0.7h137.3l-4.5,51.4l-43.8,12.6l-44.4-12.8l-2.7-31.1h-40.4l5.8,62.2l81.7,23.2
				l81.8-23.2l11.3-122.1H255.4l1.9-40.7h101.1l1.5,23.3h40.8L391.8,197.3z"/>
			<path d="M390.8,196.3H229.1l-11.3,121.6l0.3-0.7h137.3l-4.5,51.4l-43.8,12.6l-44.4-12.8l-2.7-31.1h-40.4l5.8,62.2l81.7,23.2
				l81.8-23.2l11.3-122.1H254.4l1.9-40.7h101.1l1.5,23.3h40.8L390.8,196.3z"/>
			<path d="M389.8,195.3H228.1l-11.3,121.6l0.3-0.7h137.3l-4.5,51.4l-43.8,12.6l-44.4-12.8l-2.7-31.1h-40.4l5.8,62.2l81.7,23.2
				l81.8-23.2l11.3-122.1H253.4l1.9-40.7h101.1l1.5,23.3h40.8L389.8,195.3z"/>
			<path d="M388.8,194.3H227.1l-11.3,121.6l0.3-0.7h137.3l-4.5,51.4l-43.8,12.6l-44.4-12.8l-2.7-31.1h-40.4l5.8,62.2l81.7,23.2
				l81.8-23.2l11.3-122.1H252.4l1.9-40.7h101.1l1.5,23.3h40.8L388.8,194.3z"/>
			<path d="M387.8,193.3H226.1l-11.3,121.6l0.3-0.7h137.3l-4.5,51.4l-43.8,12.6l-44.4-12.8l-2.7-31.1h-40.4l5.8,62.2l81.7,23.2
				l81.8-23.2l11.3-122.1H251.4l1.9-40.7h101.1l1.5,23.3h40.8L387.8,193.3z"/>
			<path d="M386.8,192.3H225.1l-11.3,121.6l0.3-0.7h137.3l-4.5,51.4l-43.8,12.6l-44.4-12.8l-2.7-31.1h-40.4l5.8,62.2l81.7,23.2
				l81.8-23.2l11.3-122.1H250.4l1.9-40.7h101.1l1.5,23.3h40.8L386.8,192.3z"/>
			<path d="M385.8,191.3H224.1l-11.3,121.6l0.3-0.7h137.3l-4.5,51.4l-43.8,12.6l-44.4-12.8l-2.7-31.1h-40.4l5.8,62.2l81.7,23.2
				l81.8-23.2l11.3-122.1H249.4l1.9-40.7h101.1l1.5,23.3h40.8L385.8,191.3z"/>
			<path d="M384.8,190.3H223.1l-11.3,121.6l0.3-0.7h137.3l-4.5,51.4l-43.8,12.6l-44.4-12.8l-2.7-31.1h-40.4l5.8,62.2l81.7,23.2
				l81.8-23.2l11.3-122.1H248.4l1.9-40.7h101.1l1.5,23.3h40.8L384.8,190.3z"/>
			<path d="M383.8,189.3H222.1l-11.3,121.6l0.3-0.7h137.3l-4.5,51.4l-43.8,12.6l-44.4-12.8l-2.7-31.1h-40.4l5.8,62.2l81.7,23.2
				l81.8-23.2l11.3-122.1H247.4l1.9-40.7h101.1l1.5,23.3h40.8L383.8,189.3z"/>
			<path d="M382.8,188.3H221.1l-11.3,121.6l0.3-0.7h137.3l-4.5,51.4l-43.8,12.6l-44.4-12.8l-2.7-31.1h-40.4l5.8,62.2l81.7,23.2
				l81.8-23.2l11.3-122.1H246.4l1.9-40.7h101.1l1.5,23.3h40.8L382.8,188.3z"/>
			<path d="M381.8,187.3H220.1l-11.3,121.6l0.3-0.7h137.3l-4.5,51.4l-43.8,12.6l-44.4-12.8l-2.7-31.1h-40.4l5.8,62.2l81.7,23.2
				l81.8-23.2l11.3-122.1H245.4l1.9-40.7h101.1l1.5,23.3h40.8L381.8,187.3z"/>
			<path d="M380.8,186.3H219.1l-11.3,121.6l0.3-0.7h137.3l-4.5,51.4l-43.8,12.6l-44.4-12.8l-2.7-31.1h-40.4l5.8,62.2l81.7,23.2
				l81.8-23.2l11.3-122.1H244.4l1.9-40.7h101.1l1.5,23.3h40.8L380.8,186.3z"/>
			<path d="M379.8,185.3H218.1l-11.3,121.6l0.3-0.7h137.3l-4.5,51.4l-43.8,12.6l-44.4-12.8l-2.7-31.1h-40.4l5.8,62.2l81.7,23.2
				l81.8-23.2l11.3-122.1H243.4l1.9-40.7h101.1l1.5,23.3h40.8L379.8,185.3z"/>
			<path d="M378.8,184.3H217.1l-11.3,121.6l0.3-0.7h137.3l-4.5,51.4l-43.8,12.6l-44.4-12.8l-2.7-31.1h-40.4l5.8,62.2l81.7,23.2
				l81.8-23.2l11.3-122.1H242.4l1.9-40.7h101.1l1.5,23.3h40.8L378.8,184.3z"/>
			<path d="M377.8,183.3H216.1l-11.3,121.6l0.3-0.7h137.3l-4.5,51.4l-43.8,12.6l-44.4-12.8l-2.7-31.1h-40.4l5.8,62.2l81.7,23.2
				l81.8-23.2l11.3-122.1H241.4l1.9-40.7h101.1l1.5,23.3h40.8L377.8,183.3z"/>
			<path d="M376.8,182.3H215.1l-11.3,121.6l0.3-0.7h137.3l-4.5,51.4l-43.8,12.6l-44.4-12.8l-2.7-31.1h-40.4l5.8,62.2l81.7,23.2
				l81.8-23.2l11.3-122.1H240.4l1.9-40.7h101.1l1.5,23.3h40.8L376.8,182.3z"/>
			<path d="M375.8,181.3H214.1l-11.3,121.6l0.3-0.7h137.3l-4.5,51.4l-43.8,12.6l-44.4-12.8l-2.7-31.1h-40.4l5.8,62.2l81.7,23.2
				l81.8-23.2l11.3-122.1H239.4l1.9-40.7h101.1l1.5,23.3h40.8L375.8,181.3z"/>
			<path d="M374.8,180.3H213.1l-11.3,121.6l0.3-0.7h137.3l-4.5,51.4l-43.8,12.6l-44.4-12.8l-2.7-31.1h-40.4l5.8,62.2l81.7,23.2
				l81.8-23.2l11.3-122.1H238.4l1.9-40.7h101.1l1.5,23.3h40.8L374.8,180.3z"/>
			<path d="M373.8,179.3H212.1l-11.3,121.6l0.3-0.7h137.3l-4.5,51.4l-43.8,12.6l-44.4-12.8l-2.7-31.1h-40.4l5.8,62.2l81.7,23.2
				l81.8-23.2l11.3-122.1H237.4l1.9-40.7h101.1l1.5,23.3h40.8L373.8,179.3z"/>
			<path d="M372.8,178.3H211.1l-11.3,121.6l0.3-0.7h137.3l-4.5,51.4l-43.8,12.6l-44.4-12.8l-2.7-31.1h-40.4l5.8,62.2l81.7,23.2
				l81.8-23.2l11.3-122.1H236.4l1.9-40.7h101.1l1.5,23.3h40.8L372.8,178.3z"/>
			<path d="M371.8,177.3H210.1l-11.3,121.6l0.3-0.7h137.3l-4.5,51.4l-43.8,12.6l-44.4-12.8l-2.7-31.1h-40.4l5.8,62.2l81.7,23.2
				l81.8-23.2l11.3-122.1H235.4l1.9-40.7h101.1l1.5,23.3h40.8L371.8,177.3z"/>
			<path d="M370.8,176.3H209.1l-11.3,121.6l0.3-0.7h137.3l-4.5,51.4l-43.8,12.6l-44.4-12.8l-2.7-31.1h-40.4l5.8,62.2l81.7,23.2
				l81.8-23.2l11.3-122.1H234.4l1.9-40.7h101.1l1.5,23.3h40.8L370.8,176.3z"/>
			<path d="M369.8,175.3H208.1l-11.3,121.6l0.3-0.7h137.3l-4.5,51.4l-43.8,12.6l-44.4-12.8l-2.7-31.1h-40.4l5.8,62.2l81.7,23.2
				l81.8-23.2l11.3-122.1H233.4l1.9-40.7h101.1l1.5,23.3h40.8L369.8,175.3z"/>
			<path d="M368.8,174.3H207.1l-11.3,121.6l0.3-0.7h137.3l-4.5,51.4l-43.8,12.6l-44.4-12.8l-2.7-31.1h-40.4l5.8,62.2l81.7,23.2
				l81.8-23.2l11.3-122.1H232.4l1.9-40.7h101.1l1.5,23.3h40.8L368.8,174.3z"/>
			<path d="M367.8,173.3H206.1l-11.3,121.6l0.3-0.7h137.3l-4.5,51.4l-43.8,12.6l-44.4-12.8l-2.7-31.1h-40.4l5.8,62.2l81.7,23.2
				l81.8-23.2l11.3-122.1H231.4l1.9-40.7h101.1l1.5,23.3h40.8L367.8,173.3z"/>
			<path d="M366.8,172.3H205.1l-11.3,121.6l0.3-0.7h137.3l-4.5,51.4l-43.8,12.6l-44.4-12.8l-2.7-31.1h-40.4l5.8,62.2l81.7,23.2
				l81.8-23.2l11.3-122.1H230.4l1.9-40.7h101.1l1.5,23.3h40.8L366.8,172.3z"/>
			<path d="M365.8,171.3H204.1l-11.3,121.6l0.3-0.7h137.3l-4.5,51.4l-43.8,12.6l-44.4-12.8l-2.7-31.1h-40.4l5.8,62.2l81.7,23.2
				l81.8-23.2l11.3-122.1H229.4l1.9-40.7h101.1l1.5,23.3h40.8L365.8,171.3z"/>
			<path d="M364.8,170.3H203.1l-11.3,121.6l0.3-0.7h137.3l-4.5,51.4l-43.8,12.6l-44.4-12.8l-2.7-31.1h-40.4l5.8,62.2l81.7,23.2
				l81.8-23.2l11.3-122.1H228.4l1.9-40.7h101.1l1.5,23.3h40.8L364.8,170.3z"/>
			<path d="M363.8,169.3H202.1l-11.3,121.6l0.3-0.7h137.3l-4.5,51.4l-43.8,12.6l-44.4-12.8l-2.7-31.1h-40.4l5.8,62.2l81.7,23.2
				l81.8-23.2l11.3-122.1H227.4l1.9-40.7h101.1l1.5,23.3h40.8L363.8,169.3z"/>
			<path d="M362.8,168.3H201.1l-11.3,121.6l0.3-0.7h137.3l-4.5,51.4l-43.8,12.6l-44.4-12.8l-2.7-31.1h-40.4l5.8,62.2l81.7,23.2
				l81.8-23.2l11.3-122.1H226.4l1.9-40.7h101.1l1.5,23.3h40.8L362.8,168.3z"/>
			<path d="M361.8,167.3H200.1l-11.3,121.6l0.3-0.7h137.3l-4.5,51.4l-43.8,12.6l-44.4-12.8l-2.7-31.1h-40.4l5.8,62.2l81.7,23.2
				l81.8-23.2l11.3-122.1H225.4l1.9-40.7h101.1l1.5,23.3h40.8L361.8,167.3z"/>
			<path d="M360.8,166.3H199.1l-11.3,121.6l0.3-0.7h137.3l-4.5,51.4l-43.8,12.6l-44.4-12.8l-2.7-31.1h-40.4l5.8,62.2l81.7,23.2
				l81.8-23.2l11.3-122.1H224.4l1.9-40.7h101.1l1.5,23.3h40.8L360.8,166.3z"/>
			<path d="M359.8,165.3H198.1l-11.3,121.6l0.3-0.7h137.3l-4.5,51.4l-43.8,12.6l-44.4-12.8l-2.7-31.1h-40.4l5.8,62.2l81.7,23.2
				l81.8-23.2l11.3-122.1H223.4l1.9-40.7h101.1l1.5,23.3h40.8L359.8,165.3z"/>
			<path d="M358.8,164.3H197.1l-11.3,121.6l0.3-0.7h137.3l-4.5,51.4l-43.8,12.6l-44.4-12.8l-2.7-31.1h-40.4l5.8,62.2l81.7,23.2
				l81.8-23.2l11.3-122.1H222.4l1.9-40.7h101.1l1.5,23.3h40.8L358.8,164.3z"/>
			<path d="M357.8,163.3H196.1l-11.3,121.6l0.3-0.7h137.3l-4.5,51.4l-43.8,12.6l-44.4-12.8l-2.7-31.1h-40.4l5.8,62.2l81.7,23.2
				l81.8-23.2l11.3-122.1H221.4l1.9-40.7h101.1l1.5,23.3h40.8L357.8,163.3z"/>
			<path d="M356.8,162.3H195.1l-11.3,121.6l0.3-0.7h137.3l-4.5,51.4l-43.8,12.6l-44.4-12.8l-2.7-31.1h-40.4l5.8,62.2l81.7,23.2
				l81.8-23.2l11.3-122.1H220.4l1.9-40.7h101.1l1.5,23.3h40.8L356.8,162.3z"/>
			<path d="M355.8,161.3H194.1l-11.3,121.6l0.3-0.7h137.3l-4.5,51.4l-43.8,12.6l-44.4-12.8l-2.7-31.1h-40.4l5.8,62.2l81.7,23.2
				l81.8-23.2l11.3-122.1H219.4l1.9-40.7h101.1l1.5,23.3h40.8L355.8,161.3z"/>
			<path d="M354.8,160.3H193.1l-11.3,121.6l0.3-0.7h137.3l-4.5,51.4l-43.8,12.6l-44.4-12.8l-2.7-31.1h-40.4l5.8,62.2l81.7,23.2
				l81.8-23.2l11.3-122.1H218.4l1.9-40.7h101.1l1.5,23.3h40.8L354.8,160.3z"/>
			<path d="M353.8,159.3H192.1l-11.3,121.6l0.3-0.7h137.3l-4.5,51.4l-43.8,12.6l-44.4-12.8l-2.7-31.1h-40.4l5.8,62.2l81.7,23.2
				l81.8-23.2l11.3-122.1H217.4l1.9-40.7h101.1l1.5,23.3h40.8L353.8,159.3z"/>
			<path d="M352.8,158.3H191.1l-11.3,121.6l0.3-0.7h137.3l-4.5,51.4l-43.8,12.6l-44.4-12.8l-2.7-31.1h-40.4l5.8,62.2l81.7,23.2
				l81.8-23.2l11.3-122.1H216.4l1.9-40.7h101.1l1.5,23.3h40.8L352.8,158.3z"/>
			<path d="M351.8,157.3H190.1l-11.3,121.6l0.3-0.7h137.3l-4.5,51.4l-43.8,12.6l-44.4-12.8l-2.7-31.1h-40.4l5.8,62.2l81.7,23.2
				l81.8-23.2l11.3-122.1H215.4l1.9-40.7h101.1l1.5,23.3h40.8L351.8,157.3z"/>
			<path d="M350.8,156.3H189.1l-11.3,121.6l0.3-0.7h137.3l-4.5,51.4l-43.8,12.6l-44.4-12.8l-2.7-31.1h-40.4l5.8,62.2l81.7,23.2
				l81.8-23.2l11.3-122.1H214.4l1.9-40.7h101.1l1.5,23.3h40.8L350.8,156.3z"/>
			<path d="M349.8,155.3H188.1l-11.3,121.6l0.3-0.7h137.3l-4.5,51.4l-43.8,12.6l-44.4-12.8l-2.7-31.1h-40.4l5.8,62.2l81.7,23.2
				l81.8-23.2l11.3-122.1H213.4l1.9-40.7h101.1l1.5,23.3h40.8L349.8,155.3z"/>
			<path d="M348.8,154.3H187.1l-11.3,121.6l0.3-0.7h137.3l-4.5,51.4l-43.8,12.6l-44.4-12.8l-2.7-31.1h-40.4l5.8,62.2l81.7,23.2
				l81.8-23.2l11.3-122.1H212.4l1.9-40.7h101.1l1.5,23.3h40.8L348.8,154.3z"/>
			<path d="M347.8,153.3H186.1l-11.3,121.6l0.3-0.7h137.3l-4.5,51.4l-43.8,12.6l-44.4-12.8l-2.7-31.1h-40.4l5.8,62.2l81.7,23.2
				l81.8-23.2l11.3-122.1H211.4l1.9-40.7h101.1l1.5,23.3h40.8L347.8,153.3z"/>
			<path d="M346.8,152.3H185.1l-11.3,121.6l0.3-0.7h137.3l-4.5,51.4l-43.8,12.6l-44.4-12.8l-2.7-31.1h-40.4l5.8,62.2l81.7,23.2
				l81.8-23.2l11.3-122.1H210.4l1.9-40.7h101.1l1.5,23.3h40.8L346.8,152.3z"/>
			<path d="M345.8,151.3H184.1l-11.3,121.6l0.3-0.7h137.3l-4.5,51.4l-43.8,12.6l-44.4-12.8l-2.7-31.1h-40.4l5.8,62.2l81.7,23.2
				l81.8-23.2l11.3-122.1H209.4l1.9-40.7h101.1l1.5,23.3h40.8L345.8,151.3z"/>
			<path d="M344.8,150.3H183.1l-11.3,121.6l0.3-0.7h137.3l-4.5,51.4l-43.8,12.6l-44.4-12.8l-2.7-31.1h-40.4l5.8,62.2l81.7,23.2
				l81.8-23.2l11.3-122.1H208.4l1.9-40.7h101.1l1.5,23.3h40.8L344.8,150.3z"/>
			<path d="M343.8,149.3H182.1l-11.3,121.6l0.3-0.7h137.3l-4.5,51.4l-43.8,12.6l-44.4-12.8l-2.7-31.1h-40.4l5.8,62.2l81.7,23.2
				l81.8-23.2l11.3-122.1H207.4l1.9-40.7h101.1l1.5,23.3h40.8L343.8,149.3z"/>
			<path d="M342.8,148.3H181.1l-11.3,121.6l0.3-0.7h137.3l-4.5,51.4l-43.8,12.6l-44.4-12.8l-2.7-31.1h-40.4l5.8,62.2l81.7,23.2
				l81.8-23.2l11.3-122.1H206.4l1.9-40.7h101.1l1.5,23.3h40.8L342.8,148.3z"/>
			<path d="M341.8,147.3H180.1l-11.3,121.6l0.3-0.7h137.3l-4.5,51.4l-43.8,12.6l-44.4-12.8l-2.7-31.1h-40.4l5.8,62.2l81.7,23.2
				l81.8-23.2l11.3-122.1H205.4l1.9-40.7h101.1l1.5,23.3h40.8L341.8,147.3z"/>
			<path d="M340.8,146.3H179.1l-11.3,121.6l0.3-0.7h137.3l-4.5,51.4l-43.8,12.6l-44.4-12.8l-2.7-31.1h-40.4l5.8,62.2l81.7,23.2
				l81.8-23.2l11.3-122.1H204.4l1.9-40.7h101.1l1.5,23.3h40.8L340.8,146.3z"/>
			<path d="M339.8,145.3H178.1l-11.3,121.6l0.3-0.7h137.3l-4.5,51.4l-43.8,12.6l-44.4-12.8l-2.7-31.1h-40.4l5.8,62.2l81.7,23.2
				l81.8-23.2l11.3-122.1H203.4l1.9-40.7h101.1l1.5,23.3h40.8L339.8,145.3z"/>
			<path d="M338.8,144.3H177.1l-11.3,121.6l0.3-0.7h137.3l-4.5,51.4l-43.8,12.6l-44.4-12.8l-2.7-31.1h-40.4l5.8,62.2l81.7,23.2
				l81.8-23.2l11.3-122.1H202.4l1.9-40.7h101.1l1.5,23.3h40.8L338.8,144.3z"/>
			<path d="M337.8,143.3H176.1l-11.3,121.6l0.3-0.7h137.3l-4.5,51.4l-43.8,12.6l-44.4-12.8l-2.7-31.1h-40.4l5.8,62.2l81.7,23.2
				l81.8-23.2l11.3-122.1H201.4l1.9-40.7h101.1l1.5,23.3h40.8L337.8,143.3z"/>
		</g>
	</g>
	<g>
		<defs>
			<circle id="SVGID_7_" cx="256" cy="256.5" r="256"/>
		</defs>
		<clipPath id="SVGID_8_">
			<use xlink:href="#SVGID_7_"  overflow="visible"/>
		</clipPath>
		<path clip-path="url(#SVGID_8_)" fill="#FFFFFF" d="M339.6,142H177.9l-11.2,121.6l0.2-0.7h137.4l-4.5,51.4L256,326.9l-44.5-12.8
			l-2.6-31.1h-40.4l5.7,62.2l81.8,23.2l81.8-23.2L349,223.1H203.3l1.8-40.7h101.2l1.5,23.3h40.7L339.6,142z"/>
	</g>
	<g>
		<defs>
			<circle id="SVGID_9_" cx="256" cy="256.5" r="256"/>
		</defs>
		<clipPath id="SVGID_10_">
			<use xlink:href="#SVGID_9_"  overflow="visible"/>
		</clipPath>
		<g clip-path="url(#SVGID_10_)">
			<path fill="#EBEAEA" d="M256,142h-78.1l-11.2,121.6l0.2-0.8H256V223h-47.1l1.9-40.7H256V142z M208.9,283h-40.4l5.8,62.2
				l81.8,23.2V327l-44.5-12.8L208.9,283L208.9,283z"/>
		</g>
	</g>
</g>
</svg>
